<svg width="68" height="68" viewBox="0 0 68 68" fill="none" xmlns="http://www.w3.org/2000/svg">
<path d="M39.3125 3.1875H7.4375C5.09029 3.1875 3.1875 5.09029 3.1875 7.4375V60.5625C3.1875 62.9097 5.09029 64.8125 7.4375 64.8125H39.3125C41.6597 64.8125 43.5625 62.9097 43.5625 60.5625V7.4375C43.5625 5.09029 41.6597 3.1875 39.3125 3.1875Z" fill="#125E9E"/>
<path d="M38.25 52.0625C32.0506 52.0625 26.105 49.5998 21.7214 45.2161C17.3377 40.8325 14.875 34.8869 14.875 28.6875V3.1875H7.4375C6.31033 3.1875 5.22933 3.63527 4.4323 4.4323C3.63527 5.22933 3.1875 6.31033 3.1875 7.4375V60.5625C3.1875 61.6897 3.63527 62.7707 4.4323 63.5677C5.22933 64.3647 6.31033 64.8125 7.4375 64.8125H39.3125C40.4397 64.8125 41.5207 64.3647 42.3177 63.5677C43.1147 62.7707 43.5625 61.6897 43.5625 60.5625V52.0625H38.25Z" fill="#014E8F"/>
<path d="M7.4375 11.6875H39.3125V55.25H7.4375V11.6875Z" fill="#94CAF8"/>
<path d="M19.125 3.1875C19.125 4.31467 19.5728 5.39567 20.3698 6.1927C21.1668 6.98973 22.2478 7.4375 23.375 7.4375H37.1875C38.3147 7.4375 39.3957 7.88527 40.1927 8.6823C40.9897 9.47933 41.4375 10.5603 41.4375 11.6875V37.1875C41.4375 37.7511 41.6614 38.2916 42.0599 38.6901C42.4584 39.0886 42.9989 39.3125 43.5625 39.3125V7.4375C43.5625 6.31033 43.1147 5.22933 42.3177 4.4323C41.5207 3.63527 40.4397 3.1875 39.3125 3.1875H19.125Z" fill="#014E8F"/>
<path d="M39.3125 52.0625H38.25C32.0506 52.0625 26.105 49.5998 21.7214 45.2161C17.3377 40.8325 14.875 34.8869 14.875 28.6875V11.6875H7.4375V55.25H39.3125V52.0625Z" fill="#3C84C0"/>
<path d="M11.6875 21.25H46.75V42.5H11.6875V21.25Z" fill="url(#paint0_linear)"/>
<path d="M31.875 27.625V37.1875C28.7753 37.1875 25.8025 35.9561 23.6107 33.7643C21.4189 31.5725 20.1875 28.5997 20.1875 25.5V21.25H11.6875V42.5H46.75V21.25L31.875 27.625Z" fill="#F58B1C"/>
<path d="M35.0625 28.6875H46.75V21.25L35.0625 28.6875Z" fill="#FAB063"/>
<path d="M35.0625 28.6875V49.9375H64.8125L61.3796 44.625L64.8125 39.3125L61.3796 34L64.8125 28.6875H35.0625Z" fill="#FF8E18" fill-opacity="0.72"/>
<path d="M51 44.625C46.7731 44.625 42.7193 42.9459 39.7305 39.957C36.7416 36.9682 35.0625 32.9144 35.0625 28.6875V49.9375H64.8125L61.3796 44.625H51Z" fill="#FAB063"/>
<path d="M7.4375 8.5C8.0243 8.5 8.5 8.0243 8.5 7.4375C8.5 6.8507 8.0243 6.375 7.4375 6.375C6.8507 6.375 6.375 6.8507 6.375 7.4375C6.375 8.0243 6.8507 8.5 7.4375 8.5Z" fill="#93CAF8"/>
<path d="M11.6875 8.5C12.2743 8.5 12.75 8.0243 12.75 7.4375C12.75 6.8507 12.2743 6.375 11.6875 6.375C11.1007 6.375 10.625 6.8507 10.625 7.4375C10.625 8.0243 11.1007 8.5 11.6875 8.5Z" fill="#93CAF8"/>
<path d="M27.625 58.4375H19.125C18.8432 58.4375 18.573 58.5494 18.3737 58.7487C18.1744 58.948 18.0625 59.2182 18.0625 59.5C18.0625 59.7818 18.1744 60.052 18.3737 60.2513C18.573 60.4506 18.8432 60.5625 19.125 60.5625H27.625C27.9068 60.5625 28.177 60.4506 28.3763 60.2513C28.5756 60.052 28.6875 59.7818 28.6875 59.5C28.6875 59.2182 28.5756 58.948 28.3763 58.7487C28.177 58.5494 27.9068 58.4375 27.625 58.4375Z" fill="#93CAF8"/>
<path d="M56.3125 35.7C56.0307 35.7 55.7605 35.8119 55.5612 36.0112C55.3619 36.2104 55.25 36.4807 55.25 36.7625V45.6875C55.25 45.9692 55.3619 46.2395 55.5612 46.4388C55.7605 46.638 56.0307 46.75 56.3125 46.75C56.5943 46.75 56.8645 46.638 57.0638 46.4388C57.2631 46.2395 57.375 45.9692 57.375 45.6875V36.7625C57.375 36.4807 57.2631 36.2104 57.0638 36.0112C56.8645 35.8119 56.5943 35.7 56.3125 35.7Z" fill="#3C84C0"/>
<path d="M52.0625 31.875C51.7807 31.875 51.5105 31.9869 51.3112 32.1862C51.1119 32.3855 51 32.6557 51 32.9375V45.6875C51 45.9693 51.1119 46.2395 51.3112 46.4388C51.5105 46.6381 51.7807 46.75 52.0625 46.75C52.3443 46.75 52.6145 46.6381 52.8138 46.4388C53.0131 46.2395 53.125 45.9693 53.125 45.6875V32.9375C53.125 32.6557 53.0131 32.3855 52.8138 32.1862C52.6145 31.9869 52.3443 31.875 52.0625 31.875Z" fill="#3C84C0"/>
<path d="M47.8125 31.875C47.5307 31.875 47.2605 31.9869 47.0612 32.1862C46.8619 32.3855 46.75 32.6557 46.75 32.9375V45.6875C46.75 45.9693 46.8619 46.2395 47.0612 46.4388C47.2605 46.6381 47.5307 46.75 47.8125 46.75C48.0943 46.75 48.3645 46.6381 48.5638 46.4388C48.7631 46.2395 48.875 45.9693 48.875 45.6875V32.9375C48.875 32.6557 48.7631 32.3855 48.5638 32.1862C48.3645 31.9869 48.0943 31.875 47.8125 31.875Z" fill="#3C84C0"/>
<path d="M43.5625 31.875C43.2807 31.875 43.0105 31.9869 42.8112 32.1862C42.6119 32.3855 42.5 32.6557 42.5 32.9375V45.6875C42.5 45.9693 42.6119 46.2395 42.8112 46.4388C43.0105 46.6381 43.2807 46.75 43.5625 46.75C43.8443 46.75 44.1145 46.6381 44.3138 46.4388C44.5131 46.2395 44.625 45.9693 44.625 45.6875V32.9375C44.625 32.6557 44.5131 32.3855 44.3138 32.1862C44.1145 31.9869 43.8443 31.875 43.5625 31.875Z" fill="#3C84C0"/>
<path d="M39.3125 31.875C39.0307 31.875 38.7605 31.9869 38.5612 32.1862C38.3619 32.3855 38.25 32.6557 38.25 32.9375V41.8625C38.25 42.1443 38.3619 42.4145 38.5612 42.6138C38.7605 42.8131 39.0307 42.925 39.3125 42.925C39.5943 42.925 39.8645 42.8131 40.0638 42.6138C40.2631 42.4145 40.375 42.1443 40.375 41.8625V32.9375C40.375 32.6557 40.2631 32.3855 40.0638 32.1862C39.8645 31.9869 39.5943 31.875 39.3125 31.875Z" fill="#3C84C0"/>
<path d="M23.375 36.125C22.9523 36.125 22.5469 35.9571 22.248 35.6582C21.9492 35.3593 21.7812 34.9539 21.7812 34.5312C21.7812 34.2495 21.6693 33.9792 21.47 33.7799C21.2708 33.5807 21.0005 33.4688 20.7187 33.4688C20.437 33.4688 20.1667 33.5807 19.9674 33.7799C19.7682 33.9792 19.6562 34.2495 19.6562 34.5312C19.6591 35.3292 19.9191 36.105 20.3975 36.7437C20.876 37.3823 21.5475 37.8498 22.3125 38.0768V39.3125C22.3125 39.5943 22.4244 39.8645 22.6237 40.0638C22.8229 40.2631 23.0932 40.375 23.375 40.375C23.6568 40.375 23.927 40.2631 24.1263 40.0638C24.3255 39.8645 24.4375 39.5943 24.4375 39.3125V38.0768C25.2935 37.824 26.0295 37.2708 26.5105 36.519C26.9915 35.7672 27.1852 34.8671 27.0561 33.984C26.9269 33.1008 26.4835 32.2939 25.8073 31.7113C25.1311 31.1288 24.2675 30.8096 23.375 30.8125C23.0598 30.8125 22.7516 30.719 22.4896 30.5439C22.2275 30.3688 22.0232 30.1199 21.9026 29.8287C21.7819 29.5374 21.7504 29.217 21.8119 28.9078C21.8734 28.5987 22.0252 28.3147 22.248 28.0918C22.4709 27.8689 22.7549 27.7171 23.0641 27.6556C23.3732 27.5941 23.6937 27.6257 23.9849 27.7463C24.2761 27.8669 24.525 28.0712 24.7001 28.3333C24.8753 28.5954 24.9687 28.9035 24.9687 29.2188C24.9687 29.5005 25.0807 29.7708 25.2799 29.9701C25.4792 30.1693 25.7494 30.2812 26.0312 30.2812C26.313 30.2812 26.5833 30.1693 26.7825 29.9701C26.9818 29.7708 27.0937 29.5005 27.0937 29.2188C27.0909 28.4208 26.8309 27.645 26.3525 27.0063C25.874 26.3677 25.2025 25.9002 24.4375 25.6732V24.4375C24.4375 24.1557 24.3255 23.8855 24.1263 23.6862C23.927 23.4869 23.6568 23.375 23.375 23.375C23.0932 23.375 22.8229 23.4869 22.6237 23.6862C22.4244 23.8855 22.3125 24.1557 22.3125 24.4375V25.6732C21.4565 25.926 20.7205 26.4792 20.2395 27.231C19.7585 27.9828 19.5648 28.8829 19.6939 29.766C19.8231 30.6492 20.2665 31.4561 20.9427 32.0387C21.6188 32.6212 22.4825 32.9404 23.375 32.9375C23.7977 32.9375 24.2031 33.1054 24.5019 33.4043C24.8008 33.7032 24.9687 34.1086 24.9687 34.5312C24.9687 34.9539 24.8008 35.3593 24.5019 35.6582C24.2031 35.9571 23.7977 36.125 23.375 36.125Z" fill="white"/>
<path d="M29.75 32.9375C30.3368 32.9375 30.8125 32.4618 30.8125 31.875C30.8125 31.2882 30.3368 30.8125 29.75 30.8125C29.1632 30.8125 28.6875 31.2882 28.6875 31.875C28.6875 32.4618 29.1632 32.9375 29.75 32.9375Z" fill="white"/>
<path d="M17 32.9375C17.5868 32.9375 18.0625 32.4618 18.0625 31.875C18.0625 31.2882 17.5868 30.8125 17 30.8125C16.4132 30.8125 15.9375 31.2882 15.9375 31.875C15.9375 32.4618 16.4132 32.9375 17 32.9375Z" fill="#EDEDED"/>
<path d="M19.6562 29.2187C19.6596 30.1057 19.9799 30.9623 20.5593 31.6339C21.1388 32.3055 21.9392 32.7479 22.8161 32.8812C21.4727 31.2309 20.6077 29.2439 20.315 27.1362C19.8879 27.7468 19.658 28.4736 19.6562 29.2187Z" fill="#EDEDED"/>
<path d="M22.3125 38.0768V39.3125C22.3125 39.5943 22.4244 39.8645 22.6237 40.0638C22.823 40.2631 23.0932 40.375 23.375 40.375C23.6568 40.375 23.927 40.2631 24.1263 40.0638C24.3256 39.8645 24.4375 39.5943 24.4375 39.3125V38.0768C24.9536 37.9201 25.4298 37.6536 25.8332 37.2956C26.2367 36.9377 26.558 36.4966 26.775 36.0028C26.1259 35.6875 25.5077 35.3122 24.9284 34.8819C24.8409 35.2631 24.6163 35.5989 24.2973 35.8252C23.9783 36.0516 23.5872 36.1527 23.1985 36.1094C22.8098 36.0661 22.4506 35.8814 22.1892 35.5903C21.9279 35.2993 21.7827 34.9224 21.7813 34.5312C21.7813 34.2495 21.6693 33.9792 21.4701 33.7799C21.2708 33.5807 21.0005 33.4688 20.7188 33.4688C20.437 33.4688 20.1667 33.5807 19.9674 33.7799C19.7682 33.9792 19.6562 34.2495 19.6562 34.5312C19.6591 35.3292 19.9191 36.105 20.3975 36.7437C20.876 37.3823 21.5475 37.8498 22.3125 38.0768Z" fill="#EDEDED"/>
<path d="M56.3125 46.75C56.5943 46.75 56.8645 46.6381 57.0638 46.4388C57.2631 46.2395 57.375 45.9693 57.375 45.6875V44.625H55.25V45.6875C55.25 45.9693 55.3619 46.2395 55.5612 46.4388C55.7605 46.6381 56.0307 46.75 56.3125 46.75Z" fill="#014E8F"/>
<path d="M52.0625 46.75C52.3443 46.75 52.6145 46.6381 52.8138 46.4388C53.0131 46.2395 53.125 45.9693 53.125 45.6875V44.625H51V45.6875C51 45.9693 51.1119 46.2395 51.3112 46.4388C51.5105 46.6381 51.7807 46.75 52.0625 46.75Z" fill="#014E8F"/>
<path d="M47.8125 46.7502C48.0943 46.7502 48.3645 46.6382 48.5638 46.439C48.7631 46.2397 48.875 45.9695 48.875 45.6877V44.4669C48.1576 44.3717 47.4476 44.2272 46.75 44.0344V45.6877C46.75 45.9695 46.8619 46.2397 47.0612 46.439C47.2605 46.6382 47.5307 46.7502 47.8125 46.7502Z" fill="#014E8F"/>
<path d="M43.5625 46.75C43.8443 46.75 44.1145 46.6381 44.3138 46.4388C44.5131 46.2396 44.625 45.9693 44.625 45.6875V43.2905C43.8888 42.9657 43.1784 42.5853 42.5 42.1526V45.6875C42.5 45.9693 42.6119 46.2396 42.8112 46.4388C43.0105 46.6381 43.2807 46.75 43.5625 46.75Z" fill="#014E8F"/>
<path d="M39.3125 42.9251C39.5943 42.9251 39.8645 42.8132 40.0638 42.6139C40.2631 42.4147 40.375 42.1444 40.375 41.8626V40.543C39.5921 39.8408 38.8803 39.0632 38.25 38.2214V41.8626C38.25 42.1444 38.3619 42.4147 38.5612 42.6139C38.7605 42.8132 39.0307 42.9251 39.3125 42.9251Z" fill="#014E8F"/>
<defs>
<linearGradient id="paint0_linear" x1="42.168" y1="21.25" x2="10.5288" y2="25.51" gradientUnits="userSpaceOnUse">
<stop stop-color="#FF9424"/>
<stop offset="1" stop-color="#FF8302"/>
</linearGradient>
</defs>
</svg>
