<svg width="20" height="20" viewBox="0 0 20 20" fill="none" xmlns="http://www.w3.org/2000/svg">
<g opacity="0.7">
<g clip-path="url(#clip0)">
<path d="M12.5001 13.2144C12.5001 13.4078 12.4293 13.5754 12.2881 13.7166C12.1467 13.8581 11.9792 13.9287 11.7857 13.9287H8.21435C8.02077 13.9287 7.85342 13.8581 7.71203 13.7166C7.57068 13.5754 7.5 13.4079 7.5 13.2144V11.4287H0V16.7859C0 17.2769 0.174776 17.6972 0.524523 18.0469C0.874192 18.3966 1.29466 18.5714 1.78576 18.5714H18.2144C18.7054 18.5714 19.1258 18.3966 19.4755 18.0469C19.8253 17.6972 20 17.2769 20 16.7859V11.4287H12.5001V13.2144Z" fill="#3D5C70"/>
<path d="M11.4287 11.4287H8.57134V12.8573H11.4287V11.4287Z" fill="#3D5C70"/>
<path d="M19.4755 4.8104C19.1258 4.46065 18.7053 4.28587 18.2144 4.28587H14.2857V2.50008C14.2857 2.20244 14.1816 1.94952 13.9732 1.74117C13.765 1.53293 13.5119 1.42871 13.2144 1.42871H6.78578C6.48822 1.42871 6.23526 1.53293 6.02686 1.74117C5.81847 1.9494 5.71437 2.2024 5.71437 2.50008V4.28587H1.78576C1.2947 4.28587 0.874232 4.46065 0.524524 4.8104C0.174776 5.1601 0 5.58033 0 6.07143V10.3572H20V6.07143C20 5.58033 19.8253 5.1601 19.4755 4.8104ZM12.8572 4.28587H7.14291V2.85721H12.8572V4.28587Z" fill="#3D5C70"/>
</g>
</g>
<defs>
<clipPath id="clip0">
<rect width="20" height="20" fill="white"/>
</clipPath>
</defs>
</svg>
