<svg width="219" height="219" viewBox="0 0 219 219" fill="white" xmlns="http://www.w3.org/2000/svg">
<mask id="mask0" mask-type="alpha" maskUnits="userSpaceOnUse" x="50" y="40" width="119" height="119">
<rect x="50" y="40" width="119" height="119" rx="15" fill="white"/>
</mask>
<g mask="url(#mask0)">
<g filter="url(#filter0_d)">
<path d="M129.5 117C153.108 92.8163 169 40 169 40V159H50C50 159 104.972 142.126 129.5 117Z" fill="#F9F9F9"/>
</g>
</g>
<g clip-path="url(#clip0)">
<path d="M132.793 100.742H83.4828L90.319 81.32C90.9508 79.5279 92.6438 78.3289 94.544 78.3278H115.983L132.793 100.742Z" fill="#4994D3"/>
<path d="M109.259 78.3278V82.8105C109.259 83.4294 108.757 83.9312 108.138 83.9312C107.519 83.9312 107.017 83.4294 107.017 82.8105V78.3278H109.259Z" fill="#35495E"/>
<path d="M89.8124 97.3793C89.4489 97.3792 89.108 97.2029 88.898 96.9062C88.688 96.6095 88.6349 96.2295 88.7556 95.8866L92.9626 83.9311C93.4398 82.5886 94.7095 81.6913 96.1342 81.6897H98.0517C98.6706 81.6897 99.1724 82.1914 99.1724 82.8104C99.1724 83.4293 98.6706 83.9311 98.0517 83.9311H96.1342C95.6588 83.9312 95.2352 84.2313 95.0774 84.6797L90.8703 96.6307C90.7123 97.0795 90.2882 97.3797 89.8124 97.3793Z" fill="#77B6EB"/>
<path d="M112.621 87.2932H103.655C103.036 87.2932 102.534 86.7914 102.534 86.1725V83.9311C102.534 83.3122 103.036 82.8104 103.655 82.8104H112.621" fill="#0A355A"/>
<path d="M82.3621 120.914H93.569V128.759C93.569 129.997 92.5655 131 91.3276 131H84.6035C83.3656 131 82.3621 129.997 82.3621 128.759V120.914Z" fill="#0A355A"/>
<path d="M122.707 120.914H133.914V128.759C133.914 129.997 132.91 131 131.672 131H124.948C123.71 131 122.707 129.997 122.707 128.759V120.914Z" fill="#0A355A"/>
<path d="M121.732 100.741H83.4828C81.007 100.741 79 102.748 79 105.224V122.035C79 122.653 79.5017 123.155 80.1207 123.155H136.155C136.774 123.155 137.276 122.653 137.276 122.035V105.224C137.281 103.385 136.154 101.733 134.441 101.066L121.732 100.741Z" fill="#014E8F"/>
<path d="M85.7242 105.224H90.2069C92.6827 105.224 94.6897 107.231 94.6897 109.707C94.6897 110.945 93.6862 111.948 92.4483 111.948H85.7242C84.4863 111.948 83.4828 110.945 83.4828 109.707V107.466C83.4828 106.228 84.4863 105.224 85.7242 105.224Z" fill="#FFCA94"/>
<path d="M126.069 105.224H130.552C131.79 105.224 132.793 106.228 132.793 107.466V109.707C132.793 110.945 131.79 111.948 130.552 111.948H123.828C122.59 111.948 121.586 110.945 121.586 109.707C121.586 107.231 123.593 105.224 126.069 105.224Z" fill="#FFCA94"/>
<path d="M85.7241 118.672H87.9655C88.5844 118.672 89.0862 119.174 89.0862 119.793V123.155H84.6034V119.793C84.6034 119.174 85.1052 118.672 85.7241 118.672Z" fill="url(#paint0_linear)"/>
<path d="M128.31 118.672H130.552C131.171 118.672 131.672 119.174 131.672 119.793V123.155H127.19V119.793C127.19 119.174 127.691 118.672 128.31 118.672Z" fill="url(#paint1_linear)"/>
<path d="M115.983 111.948H100.293C99.6742 111.948 99.1724 112.45 99.1724 113.069V117.552C99.1724 118.171 99.6742 118.673 100.293 118.673H115.983C116.602 118.673 117.103 118.171 117.103 117.552V113.069C117.103 112.45 116.602 111.948 115.983 111.948Z" fill="#A5A5A4"/>
<path d="M114.862 111.948H101.414C100.795 111.948 100.293 112.45 100.293 113.069V117.552C100.293 118.171 100.795 118.673 101.414 118.673H114.862C115.481 118.673 115.983 118.171 115.983 117.552V113.069C115.983 112.45 115.481 111.948 114.862 111.948Z" fill="#D1D4D1"/>
<path d="M128.635 105.144L139.664 97.292C142.377 95.3729 143.993 92.2585 144 88.935V73.0963C144 72.8732 143.868 72.6712 143.664 72.5819L128.534 66.046C128.392 65.9837 128.229 65.9837 128.086 66.046L112.957 72.5819C112.752 72.6712 112.62 72.8732 112.621 73.0963V88.935C112.627 92.2585 114.243 95.3729 116.957 97.292L127.985 105.144C128.18 105.282 128.441 105.282 128.635 105.144Z" fill="url(#paint2_linear)"/>
<path d="M119.556 93.6408C118.027 92.5596 117.114 90.8073 117.103 88.935V75.675L128.31 70.8336L139.517 75.675V88.935C139.507 90.8077 138.594 92.5605 137.065 93.6419L128.31 99.8729L119.556 93.6408Z" fill="#955BA5"/>
<path d="M119.556 93.6408C118.027 92.5596 117.114 90.8073 117.103 88.935V75.675L128.31 70.8336L139.517 75.675V88.935C139.507 90.8077 138.594 92.5605 137.065 93.6419L128.31 99.8729L119.556 93.6408Z" fill="#FFAB55"/>
<path d="M126.069 91.7255C125.826 91.7255 125.591 91.6469 125.397 91.5014L120.914 88.1393C120.593 87.8991 120.426 87.5062 120.474 87.1087C120.521 86.7112 120.778 86.3695 121.146 86.2122C121.514 86.0549 121.938 86.106 122.259 86.3462L125.873 89.0561L134.159 78.6975C134.547 78.2186 135.249 78.1427 135.73 78.5276C136.211 78.9124 136.292 79.6136 135.91 80.0973L126.944 91.3042C126.732 91.5703 126.41 91.7254 126.069 91.7255Z" fill="white"/>
</g>
<defs>
<filter id="filter0_d" x="0" y="0" width="219" height="219" filterUnits="userSpaceOnUse" color-interpolation-filters="sRGB">
<feFlood flood-opacity="0" result="BackgroundImageFix"/>
<feColorMatrix in="SourceAlpha" type="matrix" values="0 0 0 0 0 0 0 0 0 0 0 0 0 0 0 0 0 0 127 0"/>
<feOffset dy="10"/>
<feGaussianBlur stdDeviation="25"/>
<feColorMatrix type="matrix" values="0 0 0 0 0.821906 0 0 0 0 0.825 0 0 0 0 0.794062 0 0 0 0.25 0"/>
<feBlend mode="normal" in2="BackgroundImageFix" result="effect1_dropShadow"/>
<feBlend mode="normal" in="SourceGraphic" in2="effect1_dropShadow" result="shape"/>
</filter>
<linearGradient id="paint0_linear" x1="88.5004" y1="118.672" x2="84.4092" y2="119.006" gradientUnits="userSpaceOnUse">
<stop stop-color="#FF9424"/>
<stop offset="1" stop-color="#FF8302"/>
</linearGradient>
<linearGradient id="paint1_linear" x1="131.087" y1="118.672" x2="126.995" y2="119.006" gradientUnits="userSpaceOnUse">
<stop stop-color="#FF9424"/>
<stop offset="1" stop-color="#FF8302"/>
</linearGradient>
<linearGradient id="paint2_linear" x1="139.899" y1="65.9993" x2="111.193" y2="67.8721" gradientUnits="userSpaceOnUse">
<stop stop-color="#FF9424"/>
<stop offset="1" stop-color="#FF8302"/>
</linearGradient>
<clipPath id="clip0">
<rect x="79" y="66" width="65" height="65" fill="white"/>
</clipPath>
</defs>
</svg>
