<svg width="82" height="82" viewBox="0 0 82 82" fill="none" xmlns="http://www.w3.org/2000/svg">
<path d="M69.4606 37.2476H23.5519L29.7405 25.2368H66.2557L69.4606 37.2476Z" fill="#4994D3"/>
<path d="M66.2557 25.2368H61.3059L64.511 37.2476H69.4606L66.2557 25.2368Z" fill="#5AB9CC"/>
<path d="M50.4739 23.7159H45.5243V38.769H50.4739V23.7159Z" fill="#014E8F"/>
<path d="M66.3453 25.6206H29.6524C29.2102 25.6206 28.8516 25.262 28.8516 24.8198V21.6513C28.8516 21.1041 29.2953 20.6603 29.8427 20.6603H66.1552C66.7024 20.6603 67.1462 21.1039 67.1462 21.6513V24.8198C67.146 25.262 66.7876 25.6206 66.3453 25.6206Z" fill="url(#paint0_linear)"/>
<path d="M66.155 20.6603H61.1902C61.7374 20.6603 62.1812 21.1039 62.1812 21.6513V24.8198C62.1812 25.262 61.8226 25.6206 61.3804 25.6206H66.3453C66.7874 25.6206 67.146 25.262 67.146 24.8198V21.6513C67.146 21.1039 66.7024 20.6603 66.155 20.6603Z" fill="#E2831F"/>
<path d="M79.7726 49.43H2.22729V40.3059C2.22729 38.405 3.76832 36.864 5.66921 36.864H79.7724L79.7726 49.43Z" fill="url(#paint1_linear)"/>
<path d="M79.7729 36.8633H74.8233V49.4291H79.7729V36.8633Z" fill="#E2831F"/>
<path d="M6.41826 45.942H2.22729V40.9817H6.4181C6.83723 40.9817 7.17692 41.31 7.17692 41.715V45.2087C7.17708 45.6137 6.83723 45.942 6.41826 45.942Z" fill="#FFCA94"/>
<path d="M0.690592 49.4301H81.3094C81.6907 49.4301 82 49.8338 82 50.3319V53.4884C82 53.9865 81.6909 54.3902 81.3094 54.3902H0.690592C0.309261 54.3902 0 53.9865 0 53.4884V50.3319C0 49.8338 0.309101 49.4301 0.690592 49.4301Z" fill="#014E8F"/>
<path d="M81.3093 49.4301H76.3596C76.741 49.4301 77.0502 49.8338 77.0502 50.3319V53.4884C77.0502 53.9865 76.7411 54.3902 76.3596 54.3902H81.3093C81.6906 54.3902 81.9999 53.9865 81.9999 53.4884V50.3319C81.9999 49.8338 81.6908 49.4301 81.3093 49.4301Z" fill="#266FAB"/>
<path d="M79.7726 36.8639H74.8229V34.6304C74.8229 33.1244 76.0438 31.9036 77.5498 31.9036H79.1119C79.4768 31.9036 79.7726 32.1994 79.7726 32.5642V36.8639Z" fill="#266FAB"/>
<path d="M13.2065 61.3399C17.0983 61.3399 20.2533 58.185 20.2533 54.2931C20.2533 50.4012 17.0983 47.2462 13.2065 47.2462C9.31459 47.2462 6.15961 50.4012 6.15961 54.2931C6.15961 58.185 9.31459 61.3399 13.2065 61.3399Z" fill="#0A355A"/>
<path d="M13.2687 56.7802C11.8975 56.7802 10.7817 55.6645 10.7817 54.2931C10.7817 52.9217 11.8975 51.806 13.2687 51.806C14.64 51.806 15.756 52.9217 15.756 54.2931C15.756 55.6645 14.6402 56.7802 13.2687 56.7802Z" fill="#D1D3D4"/>
<path d="M66.5656 61.3399C70.4575 61.3399 73.6125 58.185 73.6125 54.2931C73.6125 50.4012 70.4575 47.2462 66.5656 47.2462C62.6738 47.2462 59.5188 50.4012 59.5188 54.2931C59.5188 58.185 62.6738 61.3399 66.5656 61.3399Z" fill="#0A355A"/>
<path d="M66.6268 56.7802C65.2555 56.7802 64.1397 55.6645 64.1397 54.2931C64.1397 52.9217 65.2555 51.806 66.6268 51.806C67.998 51.806 69.1139 52.9217 69.1139 54.2931C69.1139 55.6645 67.998 56.7802 66.6268 56.7802Z" fill="#D1D3D4"/>
<path d="M38.8703 44.4497H38.1797C37.5164 44.4497 36.9786 43.9119 36.9786 43.2485C36.9786 42.5852 37.5164 42.0474 38.1797 42.0474H38.8703C39.5337 42.0474 40.0715 42.5852 40.0715 43.2485C40.0715 43.9119 39.5337 44.4497 38.8703 44.4497Z" fill="#FFCA94"/>
<defs>
<linearGradient id="paint0_linear" x1="62.1418" y1="20.6603" x2="36.9555" y2="36.5272" gradientUnits="userSpaceOnUse">
<stop stop-color="#FF9424"/>
<stop offset="1" stop-color="#FF8302"/>
</linearGradient>
<linearGradient id="paint1_linear" x1="69.6388" y1="36.864" x2="12.8076" y2="65.4825" gradientUnits="userSpaceOnUse">
<stop stop-color="#FF9424"/>
<stop offset="1" stop-color="#FF8302"/>
</linearGradient>
</defs>
</svg>
