<svg width="65" height="65" viewBox="0 0 65 65" fill="none" xmlns="http://www.w3.org/2000/svg">
<g clip-path="url(#clip0)">
<path d="M53.7931 34.7416H4.48277L11.319 15.32C11.9508 13.5279 13.6438 12.3289 15.544 12.3278H36.9828L53.7931 34.7416Z" fill="#4994D3"/>
<path d="M30.2586 12.3278V16.8105C30.2586 17.4294 29.7569 17.9312 29.138 17.9312C28.519 17.9312 28.0173 17.4294 28.0173 16.8105V12.3278H30.2586Z" fill="#35495E"/>
<path d="M10.8124 31.3793C10.4489 31.3792 10.108 31.2029 9.89803 30.9062C9.688 30.6095 9.6349 30.2295 9.75557 29.8866L13.9626 17.9311C14.4398 16.5886 15.7095 15.6913 17.1342 15.6897H19.0517C19.6706 15.6897 20.1724 16.1914 20.1724 16.8104C20.1724 17.4293 19.6706 17.9311 19.0517 17.9311H17.1342C16.6588 17.9312 16.2352 18.2313 16.0774 18.6797L11.8703 30.6307C11.7123 31.0795 11.2882 31.3797 10.8124 31.3793Z" fill="#77B6EB"/>
<path d="M33.6207 21.2932H24.6552C24.0362 21.2932 23.5345 20.7914 23.5345 20.1725V17.9311C23.5345 17.3122 24.0362 16.8104 24.6552 16.8104H33.6207" fill="#0A355A"/>
<path d="M3.36208 54.9139H14.569V62.7588C14.569 63.9967 13.5655 65.0002 12.3276 65.0002H5.60346C4.36558 65.0002 3.36208 63.9967 3.36208 62.7588V54.9139Z" fill="#0A355A"/>
<path d="M43.7069 54.9139H54.9138V62.7588C54.9138 63.9967 53.9103 65.0002 52.6724 65.0002H45.9483C44.7104 65.0002 43.7069 63.9967 43.7069 62.7588V54.9139Z" fill="#0A355A"/>
<path d="M42.7319 34.7415H4.48276C2.007 34.7415 0 36.7485 0 39.2242V56.0346C0 56.6535 0.50175 57.1553 1.12069 57.1553H57.1552C57.7741 57.1553 58.2759 56.6535 58.2759 56.0346V39.2242C58.2813 37.3854 57.1544 35.7328 55.4405 35.0665L42.7319 34.7415Z" fill="#014E8F"/>
<path d="M6.72415 39.2242H11.2069C13.6827 39.2242 15.6897 41.2312 15.6897 43.707C15.6897 44.9449 14.6862 45.9484 13.4483 45.9484H6.72415C5.48627 45.9484 4.48277 44.9449 4.48277 43.707V41.4656C4.48277 40.2277 5.48627 39.2242 6.72415 39.2242Z" fill="#FFCA94"/>
<path d="M47.069 39.2242H51.5517C52.7896 39.2242 53.7931 40.2277 53.7931 41.4656V43.707C53.7931 44.9449 52.7896 45.9484 51.5517 45.9484H44.8276C43.5897 45.9484 42.5862 44.9449 42.5862 43.707C42.5862 41.2312 44.5932 39.2242 47.069 39.2242Z" fill="#FFCA94"/>
<path d="M6.72413 52.6725H8.96551C9.58444 52.6725 10.0862 53.1742 10.0862 53.7932V57.1553H5.60344V53.7932C5.60344 53.1742 6.10519 52.6725 6.72413 52.6725Z" fill="url(#paint0_linear)"/>
<path d="M49.3103 52.6725H51.5517C52.1707 52.6725 52.6724 53.1742 52.6724 53.7932V57.1553H48.1897V53.7932C48.1897 53.1742 48.6914 52.6725 49.3103 52.6725Z" fill="url(#paint1_linear)"/>
<path d="M36.9827 45.9484H21.2931C20.6742 45.9484 20.1724 46.4501 20.1724 47.0691V51.5518C20.1724 52.1708 20.6742 52.6725 21.2931 52.6725H36.9827C37.6017 52.6725 38.1034 52.1708 38.1034 51.5518V47.0691C38.1034 46.4501 37.6017 45.9484 36.9827 45.9484Z" fill="#A5A5A4"/>
<path d="M35.8621 45.9484H22.4138C21.7949 45.9484 21.2931 46.4501 21.2931 47.0691V51.5518C21.2931 52.1708 21.7949 52.6725 22.4138 52.6725H35.8621C36.481 52.6725 36.9828 52.1708 36.9828 51.5518V47.0691C36.9828 46.4501 36.481 45.9484 35.8621 45.9484Z" fill="#D1D4D1"/>
<path d="M49.6353 39.1435L60.6641 31.292C63.3775 29.3729 64.9934 26.2585 65 22.935V7.09631C65.0003 6.8732 64.8683 6.67115 64.6638 6.58191L49.5345 0.0460479C49.3916 -0.0163259 49.2291 -0.0163259 49.0862 0.0460479L33.9569 6.58191C33.7524 6.67115 33.6204 6.8732 33.6207 7.09631V22.935C33.6273 26.2585 35.2432 29.3729 37.9566 31.292L48.9853 39.1435C49.1799 39.2821 49.4408 39.2821 49.6353 39.1435Z" fill="url(#paint2_linear)"/>
<path d="M40.5555 27.6408C39.0269 26.5596 38.1138 24.8073 38.1035 22.935V9.675L49.3104 4.83362L60.5172 9.675V22.935C60.5073 24.8077 59.5942 26.5605 58.0652 27.6419L49.3104 33.8729L40.5555 27.6408Z" fill="#955BA5"/>
<path d="M40.5555 27.6408C39.0269 26.5596 38.1138 24.8073 38.1035 22.935V9.675L49.3104 4.83362L60.5172 9.675V22.935C60.5073 24.8077 59.5942 26.5605 58.0652 27.6419L49.3104 33.8729L40.5555 27.6408Z" fill="#FFAB55"/>
<path d="M47.069 25.7255C46.8265 25.7255 46.5905 25.6469 46.3965 25.5014L41.9138 22.1393C41.5935 21.8991 41.4257 21.5062 41.4736 21.1087C41.5215 20.7112 41.7778 20.3695 42.146 20.2122C42.5142 20.0549 42.9383 20.106 43.2586 20.3462L46.8728 23.0561L55.1592 12.6975C55.547 12.2186 56.2487 12.1427 56.73 12.5276C57.2113 12.9124 57.2916 13.6136 56.9097 14.0973L47.9442 25.3042C47.7317 25.5703 47.4096 25.7254 47.069 25.7255Z" fill="white"/>
</g>
<defs>
<linearGradient id="paint0_linear" x1="9.50038" y1="52.6725" x2="5.40921" y2="53.0063" gradientUnits="userSpaceOnUse">
<stop stop-color="#FF9424"/>
<stop offset="1" stop-color="#FF8302"/>
</linearGradient>
<linearGradient id="paint1_linear" x1="52.0866" y1="52.6725" x2="47.9954" y2="53.0063" gradientUnits="userSpaceOnUse">
<stop stop-color="#FF9424"/>
<stop offset="1" stop-color="#FF8302"/>
</linearGradient>
<linearGradient id="paint2_linear" x1="60.8993" y1="-0.000728738" x2="32.1926" y2="1.87215" gradientUnits="userSpaceOnUse">
<stop stop-color="#FF9424"/>
<stop offset="1" stop-color="#FF8302"/>
</linearGradient>
<clipPath id="clip0">
<rect width="65" height="65" fill="white"/>
</clipPath>
</defs>
</svg>
