<svg width="61" height="61" viewBox="0 0 61 61" fill="none" xmlns="http://www.w3.org/2000/svg">
<path d="M30.5 28.3555H61L57.4258 44.6777H30.5V28.3555Z" fill="#014E8F"/>
<path d="M30.5 28.3555H0L3.57422 44.6777H30.5V28.3555Z" fill="#014E8F"/>
<path d="M50.2773 0H30.5L23.3516 46.4648H50.2773V0Z" fill="#FF8F1A"/>
<path d="M30.5 0H10.7227V46.4648H30.5V0Z" fill="#FFAB55"/>
<path d="M39.4951 23.2324C39.4951 20.3763 38.1258 17.697 35.8613 16.012V12.5098C35.8613 9.55353 33.4562 7.14844 30.5 7.14844L26.9258 16.084L30.5 25.0195H39.4951V23.2324Z" fill="#F2F2F2"/>
<path d="M25.1387 12.5098V16.012C22.8742 17.6971 21.5049 20.3763 21.5049 23.2324V25.0195H30.5V7.14844C27.5438 7.14844 25.1387 9.55353 25.1387 12.5098Z" fill="white"/>
<path d="M39.4951 28.7129H30.5L29.0545 30.5L30.5 32.2871H39.4951V28.7129Z" fill="#F2F2F2"/>
<path d="M30.5 28.7129H21.5049V32.2871H30.5V28.7129Z" fill="white"/>
<path d="M39.4951 35.8613H30.5L29.0545 37.6484L30.5 39.4355H39.4951V35.8613Z" fill="#F2F2F2"/>
<path d="M30.5 35.8613H21.5049V39.4355H30.5V35.8613Z" fill="white"/>
<path d="M57.4258 44.6777L61 61H30.5L23.3516 52.8389L30.5 44.6777H57.4258Z" fill="#1E71B8"/>
<path d="M3.57422 44.6777L0 61H30.5V44.6777H3.57422Z" fill="#3888CD"/>
<path d="M0 28.3555V61L14.2969 44.6777L0 28.3555Z" fill="#89C1FF"/>
<path d="M61 28.3555V61L46.7031 44.6777L61 28.3555Z" fill="#57A6E9"/>
</svg>
