<svg width="61" height="65" viewBox="0 0 61 65" fill="none" xmlns="http://www.w3.org/2000/svg">
<path d="M50.3223 20.9678C56.1124 20.9678 60.8062 16.274 60.8062 10.4839C60.8062 4.69381 56.1124 0 50.3223 0C44.5322 0 39.8384 4.69381 39.8384 10.4839C39.8384 16.274 44.5322 20.9678 50.3223 20.9678Z" fill="#2A7ABE"/>
<path d="M51.8949 19.3953C46.1048 19.3953 41.411 14.7015 41.411 8.9114C41.411 6.41715 42.2919 4.11866 43.7464 2.31885C41.3683 4.24079 39.8384 7.18826 39.8384 10.484C39.8384 16.274 44.5322 20.9679 50.3223 20.9679C53.618 20.9679 56.5638 19.4408 58.4858 17.0627C56.6859 18.5173 54.3892 19.3953 51.8949 19.3953Z" fill="#014E8F"/>
<path d="M10.4839 20.9678C16.274 20.9678 20.9678 16.274 20.9678 10.4839C20.9678 4.69381 16.274 0 10.4839 0C4.69381 0 0 4.69381 0 10.4839C0 16.274 4.69381 20.9678 10.4839 20.9678Z" fill="#FFAB55"/>
<path d="M11.9665 10.4839L14.3704 8.08001C14.7799 7.67045 14.7799 7.007 14.3704 6.59757C13.9608 6.18802 13.2974 6.18802 12.888 6.59757L10.4841 9.0013L8.08012 6.59745C7.67057 6.1879 7.00711 6.1879 6.59769 6.59745C6.18827 7.007 6.18814 7.67045 6.59769 8.07988L9.00155 10.4837L6.59769 12.8876C6.18814 13.2971 6.18814 13.9606 6.59769 14.37C6.80247 14.5748 7.07072 14.6771 7.33897 14.6771C7.60722 14.6771 7.87547 14.5748 8.08025 14.37L10.4841 11.9662L12.888 14.37C13.0927 14.5748 13.361 14.6771 13.6292 14.6771C13.8975 14.6771 14.1657 14.5748 14.3705 14.37C14.7801 13.9605 14.7801 13.297 14.3705 12.8876L11.9665 10.4839Z" fill="white"/>
<path d="M48.75 14.6774C48.4817 14.6774 48.2135 14.575 48.0087 14.3703L45.3877 11.7493C44.9782 11.3398 44.9782 10.6763 45.3877 10.2669C45.7973 9.85733 46.4607 9.85733 46.8702 10.2669L48.7498 12.1465L53.7748 7.12162C54.1843 6.71207 54.8478 6.71207 55.2572 7.12162C55.6666 7.53117 55.6667 8.19462 55.2572 8.60405L49.4911 14.3701C49.2865 14.5749 49.0182 14.6774 48.75 14.6774Z" fill="white"/>
<path d="M46.4068 57.754L38.8442 55.2331C37.5599 54.805 36.6936 53.6031 36.6936 52.2493V46.1292H24.1129V52.2493C24.1129 53.6031 23.2466 54.805 21.9623 55.2331L14.3996 57.754C12.6872 58.3248 11.5322 59.9273 11.5322 61.7322V62.9032C11.5322 64.0613 12.471 65 13.629 65H47.1774C48.3354 65 49.2741 64.0612 49.2741 62.9032V61.7322C49.2743 59.9273 48.1192 58.3248 46.4068 57.754Z" fill="#D29B6E"/>
<path d="M24.1129 50.7172C25.9659 51.793 28.1107 52.4194 30.4032 52.4194C32.6957 52.4194 34.8405 51.793 36.6935 50.7172V46.1292H24.1128V50.7172H24.1129Z" fill="#E2A975"/>
<path d="M40.8874 36.6936V28.3064H22.0163L19.9195 30.4032V36.6934C18.7616 36.6934 17.8228 37.6321 17.8228 38.7902C17.8228 39.9481 18.7616 40.8869 19.9195 40.8869H19.9725C20.4987 46.1847 24.9673 50.3225 30.4034 50.3225C35.8396 50.3225 40.3082 46.1847 40.8344 40.8869H40.8874C42.0453 40.8869 42.9841 39.9481 42.9841 38.7902C42.9841 37.6322 42.0453 36.6936 40.8874 36.6936Z" fill="#F0C087"/>
<path d="M26.6772 32.4999H37.7417V29.3547H19.9191V36.6934C18.6968 36.6934 17.7187 37.7392 17.8311 38.9849C17.9289 40.0711 18.8714 40.8869 19.9621 40.8869H19.972C20.4982 46.1846 24.9669 50.3224 30.403 50.3224C30.9389 50.3224 31.4975 50.2775 32.0117 50.1999C26.9697 49.4393 23.0643 45.0927 23.0643 39.8386V36.5132C23.0643 36.1005 23.2686 35.7184 23.6026 35.4759C24.4188 34.8834 25.0904 34.1043 25.5455 33.1965C25.7599 32.7686 26.1987 32.4999 26.6772 32.4999Z" fill="#D29B6E"/>
<path d="M25.1612 38.7904C24.5816 38.7904 24.1128 38.3209 24.1128 37.742V36.6936C24.1128 36.1147 24.5818 35.6453 25.1612 35.6453C25.7407 35.6453 26.2096 36.1147 26.2096 36.6936V37.742C26.2096 38.3211 25.7406 38.7904 25.1612 38.7904Z" fill="#6E4848"/>
<path d="M35.6451 38.7904C35.0655 38.7904 34.5967 38.3209 34.5967 37.742V36.6936C34.5967 36.1147 35.0656 35.6453 35.6451 35.6453C36.2245 35.6453 36.6934 36.1147 36.6934 36.6936V37.742C36.6934 38.3211 36.2246 38.7904 35.6451 38.7904Z" fill="#6E4848"/>
<path d="M24.1129 26.2097H23.0646C21.3276 26.2097 19.9194 27.6179 19.9194 29.3549V34.5967C22.2354 34.5967 24.1129 32.7192 24.1129 30.4032V26.2097Z" fill="#64463C"/>
<path d="M36.6938 26.2097H37.7422C39.4792 26.2097 40.8874 27.6179 40.8874 29.3549V34.5967C38.5714 34.5967 36.6938 32.7192 36.6938 30.4032V26.2097Z" fill="#785546"/>
<path d="M29.193 44.1643C28.6647 44.1643 28.2101 43.7665 28.1517 43.2295C28.0893 42.6542 28.5049 42.1366 29.0804 42.0736L31.4986 41.8094C32.076 41.7429 32.592 42.1626 32.6545 42.7381C32.717 43.3134 32.3013 43.831 31.7258 43.894L29.3076 44.1582C29.2688 44.1623 29.2308 44.1643 29.193 44.1643Z" fill="#D19A6E"/>
<path d="M37.7419 23.0645H27.258C24.942 23.0645 23.0645 24.942 23.0645 27.258V28.3063C23.0645 29.4644 24.0033 30.4031 25.1612 30.4031H40.887V26.2096C40.8871 24.4726 39.479 23.0645 37.7419 23.0645Z" fill="#785546"/>
<path d="M40.8874 26.2098C40.8874 24.4729 39.4792 23.0647 37.7423 23.0647H27.2583C26.8941 23.0647 26.5469 23.1095 26.21 23.1967C26.21 26.0099 28.4904 28.3066 31.3036 28.3066H40.8873V26.2098H40.8874Z" fill="#967262"/>
<path d="M46.4066 57.7538L41.5007 56.1184C39.0299 59.586 34.9853 61.8547 30.4032 61.8547C25.8211 61.8547 21.7765 59.5859 19.3057 56.1184L14.3996 57.7538C12.6872 58.3246 11.5322 59.9271 11.5322 61.7322V62.9032C11.5322 64.0611 12.471 65 13.629 65H47.1774C48.3353 65 49.2741 64.0611 49.2741 62.9032V61.7322C49.2741 59.9271 48.1191 58.3246 46.4066 57.7538Z" fill="#014E8F"/>
<path d="M30.4033 63.9518C35.9193 63.9518 40.7638 61.1061 43.5707 56.8086L39.4073 55.4209C37.2941 58.062 34.049 59.7582 30.4033 59.7582C26.7576 59.7582 23.5125 58.0622 21.3993 55.4209L17.2358 56.8086C20.0428 61.1061 24.8873 63.9518 30.4033 63.9518Z" fill="#2A7ABE"/>
<path d="M12.0565 19.395C6.26641 19.395 1.57257 14.7012 1.57257 8.91111C1.57257 6.41687 2.45527 4.11609 3.90978 2.31641C1.53182 4.23835 0 7.18798 0 10.4838C0 16.2739 4.69384 20.9677 10.4839 20.9677C13.7796 20.9677 16.7356 19.4268 18.6574 17.0487C16.8576 18.5032 14.5509 19.395 12.0565 19.395Z" fill="url(#paint0_linear)"/>
<defs>
<linearGradient id="paint0_linear" x1="16.2192" y1="2.31641" x2="-0.808315" y2="3.70635" gradientUnits="userSpaceOnUse">
<stop stop-color="#FF9424"/>
<stop offset="1" stop-color="#FF8302"/>
</linearGradient>
</defs>
</svg>
