<svg width="69" height="66" viewBox="0 0 69 66" fill="none" xmlns="http://www.w3.org/2000/svg">
<path d="M4.47974 23.6418H45.8532V56.1496H4.47974V23.6418Z" fill="#307BBA"/>
<path d="M0.046875 56.1499H50.2861V59.1052C50.2861 60.6727 49.6634 62.1761 48.555 63.2845C47.4465 64.3929 45.9432 65.0156 44.3756 65.0156H5.95737C4.38981 65.0156 2.88645 64.3929 1.77802 63.2845C0.669586 62.1761 0.046875 60.6727 0.046875 59.1052V56.1499Z" fill="#FFB365"/>
<path d="M10.3902 35.4628V23.6418H4.47974V56.1496H45.8532V50.2391H25.1665C21.2476 50.2391 17.4892 48.6823 14.7181 45.9112C11.947 43.1401 10.3902 39.3817 10.3902 35.4628Z" fill="#014E8F"/>
<path d="M8.91262 60.5828C7.73695 60.5828 6.60943 60.1157 5.77811 59.2844C4.94678 58.4531 4.47975 57.3256 4.47975 56.1499H0.046875V59.1052C0.046875 60.6727 0.669586 62.1761 1.77802 63.2845C2.88645 64.3929 4.38981 65.0156 5.95737 65.0156H44.3756C45.6827 65.0114 46.9514 64.574 47.9834 63.7719C49.0154 62.9699 49.7525 61.8483 50.0792 60.5828H8.91262Z" fill="url(#paint0_linear)"/>
<path d="M23.7808 38.6628L28.8993 35.7076L34.8097 45.9446C35.2016 46.6233 35.3078 47.43 35.105 48.187C34.9022 48.9441 34.4069 49.5895 33.7281 49.9814C33.0494 50.3733 32.2427 50.4795 31.4857 50.2767C30.7286 50.0738 30.0831 49.5786 29.6913 48.8998L23.7808 38.6628Z" fill="#78BAF1"/>
<path d="M32.6433 42.186L28.9049 35.6992L23.7776 38.6545L27.2796 44.7127L29.8358 43.2351L32.6433 42.186Z" fill="#64A7DF"/>
<path d="M55.0884 30.8231L29.8358 40.2799L22.4476 27.4837L43.2674 10.3433L55.0884 30.8231Z" fill="#71B5EF"/>
<path d="M16.0557 31.18L22.4538 27.486L29.842 40.2822L23.4438 43.9763C22.4257 44.5641 21.2158 44.7234 20.0802 44.4192C18.9446 44.1149 17.9764 43.372 17.3885 42.3538L14.4333 37.2354C13.8455 36.2172 13.6862 35.0073 13.9904 33.8717C14.2947 32.7361 15.0376 31.7679 16.0557 31.18Z" fill="#8CCAFF"/>
<path d="M11.8634 38.7099L14.4227 37.2323L17.3779 42.3507L14.8187 43.8284C14.1399 44.2202 13.3333 44.3265 12.5763 44.1236C11.8192 43.9208 11.1737 43.4255 10.7818 42.7467C10.3899 42.068 10.2837 41.2614 10.4866 40.5043C10.6894 39.7472 11.1847 39.1018 11.8634 38.7099Z" fill="#78BAF1"/>
<path d="M31.5498 35.7585C31.3968 35.8157 31.2486 35.8848 31.1065 35.9654L28.2842 37.5908L29.8357 40.2801L55.0883 30.8233L53.2413 27.6316L31.5498 35.7585Z" fill="#4D99D9"/>
<path d="M27.4716 38.0633C26.2958 38.7361 24.9575 39.0726 23.6033 39.0361C22.2491 38.9996 20.9309 38.5914 19.793 37.8562C18.6552 37.121 17.7413 36.0871 17.1515 34.8675C16.5616 33.6479 16.3184 32.2896 16.4485 30.9412L16.0496 31.1776C15.5448 31.4684 15.1023 31.8559 14.7474 32.3178C14.3925 32.7798 14.1321 33.3072 13.9812 33.8698C13.8302 34.4325 13.7917 35.0194 13.8677 35.5969C13.9437 36.1745 14.1328 36.7314 14.4242 37.2358L17.3794 42.3484C17.6703 42.8532 18.0577 43.2957 18.5197 43.6506C18.9816 44.0055 19.509 44.2659 20.0717 44.4168C20.6343 44.5678 21.2212 44.6063 21.7988 44.5303C22.3763 44.4543 22.9333 44.2652 23.4377 43.9738L29.8358 40.2797L28.2843 37.5905L27.4716 38.0633Z" fill="#78BAF1"/>
<path d="M8.9126 65.0156V62.0604C8.9126 61.6685 9.06828 61.2927 9.34538 61.0155C9.62249 60.7384 9.99833 60.5828 10.3902 60.5828C10.7821 60.5828 11.158 60.7384 11.4351 61.0155C11.7122 61.2927 11.8678 61.6685 11.8678 62.0604V65.0156H8.9126Z" fill="#014E8F"/>
<path d="M38.4651 65.0156V62.0604C38.4651 61.6685 38.6208 61.2927 38.8979 61.0155C39.175 60.7384 39.5509 60.5828 39.9428 60.5828C40.3347 60.5828 40.7105 60.7384 40.9876 61.0155C41.2647 61.2927 41.4204 61.6685 41.4204 62.0604V65.0156H38.4651Z" fill="#014E8F"/>
<path d="M50.2861 8.86576C49.9664 8.86576 49.6553 8.76206 49.3995 8.57024C49.086 8.3351 48.8788 7.98506 48.8233 7.59711C48.7679 7.20915 48.8689 6.81507 49.104 6.50156L53.5369 0.591057C53.772 0.277544 54.122 0.0702785 54.51 0.0148567C54.8979 -0.040565 55.292 0.0603987 55.6055 0.295533C55.919 0.530668 56.1263 0.880712 56.1817 1.26866C56.2371 1.65662 56.1362 2.0507 55.9011 2.36421L51.4682 8.27471C51.3306 8.45823 51.1521 8.60718 50.9469 8.70976C50.7417 8.81235 50.5155 8.86576 50.2861 8.86576Z" fill="url(#paint1_linear)"/>
<path d="M54.719 14.7763C54.4896 14.7763 54.2633 14.7229 54.0582 14.6203C53.853 14.5177 53.6745 14.3688 53.5369 14.1853C53.3017 13.8717 53.2008 13.4777 53.2562 13.0897C53.3116 12.7018 53.5189 12.3517 53.8324 12.1166L59.7429 7.68371C59.8981 7.56728 60.0748 7.48257 60.2628 7.43441C60.4507 7.38626 60.6463 7.37559 60.8384 7.40303C61.0305 7.43048 61.2153 7.49549 61.3823 7.59435C61.5493 7.69322 61.6951 7.824 61.8116 7.97923C61.928 8.13447 62.0127 8.31112 62.0609 8.49909C62.109 8.68707 62.1197 8.88268 62.0922 9.07478C62.0648 9.26687 61.9998 9.45168 61.9009 9.61865C61.8021 9.78562 61.6713 9.93148 61.516 10.0479L55.6055 14.4808C55.3498 14.6726 55.0387 14.7763 54.719 14.7763Z" fill="url(#paint2_linear)"/>
<path d="M59.1519 20.687C58.76 20.7262 58.3686 20.6081 58.0637 20.3587C57.7589 20.1093 57.5657 19.749 57.5265 19.3571C57.4873 18.9652 57.6054 18.5738 57.8548 18.269C58.1042 17.9642 58.4644 17.7709 58.8563 17.7317L66.2445 16.2541C66.6363 16.1757 67.0433 16.2563 67.3759 16.4779C67.7084 16.6996 67.9392 17.0443 68.0176 17.4362C68.096 17.8281 68.0155 18.2351 67.7938 18.5676C67.5721 18.9001 67.2274 19.131 66.8355 19.2094L59.4474 20.687H59.1519Z" fill="url(#paint3_linear)"/>
<defs>
<linearGradient id="paint0_linear" x1="43.5409" y1="56.1499" x2="5.61739" y2="73.614" gradientUnits="userSpaceOnUse">
<stop stop-color="#FF9424"/>
<stop offset="1" stop-color="#FF8302"/>
</linearGradient>
<linearGradient id="paint1_linear" x1="55.2311" y1="8.32227e-07" x2="48.4747" y2="0.459446" gradientUnits="userSpaceOnUse">
<stop stop-color="#FF9424"/>
<stop offset="1" stop-color="#FF8302"/>
</linearGradient>
<linearGradient id="paint2_linear" x1="60.9485" y1="7.38818" x2="52.8807" y2="8.17821" gradientUnits="userSpaceOnUse">
<stop stop-color="#FF9424"/>
<stop offset="1" stop-color="#FF8302"/>
</linearGradient>
<linearGradient id="paint3_linear" x1="66.6711" y1="16.2249" x2="57.3436" y2="18.0177" gradientUnits="userSpaceOnUse">
<stop stop-color="#FF9424"/>
<stop offset="1" stop-color="#FF8302"/>
</linearGradient>
</defs>
</svg>
