<svg width="210" height="168" viewBox="0 0 210 168" fill="none" xmlns="http://www.w3.org/2000/svg">
<path d="M147.955 165.773H147.702V164.194H147.955C150.799 164.194 152.411 164.131 152.427 164.131L152.49 165.71C152.474 165.726 150.847 165.773 147.955 165.773ZM142.929 165.726C141.475 165.694 139.879 165.647 138.156 165.568L138.219 163.989C139.926 164.052 141.507 164.115 142.961 164.147L142.929 165.726ZM133.399 165.331C131.882 165.236 130.286 165.126 128.642 164.999L128.769 163.42C130.397 163.547 131.977 163.657 133.494 163.752L133.399 165.331ZM123.885 164.589C122.337 164.431 120.756 164.273 119.144 164.083L119.334 162.52C120.93 162.71 122.511 162.883 124.043 163.025L123.885 164.589ZM114.419 163.468C112.87 163.246 111.29 163.01 109.709 162.757L109.962 161.193C111.543 161.446 113.107 161.683 114.64 161.904L114.419 163.468ZM105.016 161.936C103.467 161.651 101.902 161.336 100.338 161.004L100.67 159.456C102.219 159.788 103.767 160.088 105.3 160.388L105.016 161.936ZM95.6916 159.946C94.1428 159.567 92.6099 159.172 91.0769 158.746L91.5036 157.23C93.0208 157.64 94.5537 158.035 96.0709 158.414L95.6916 159.946ZM86.478 157.403C84.9609 156.929 83.4437 156.424 81.9423 155.887L82.4639 154.403C83.9336 154.924 85.435 155.429 86.9363 155.887L86.478 157.403ZM77.4857 154.213C75.9843 153.613 74.5146 152.966 73.0923 152.318L73.756 150.881C75.1467 151.528 76.6007 152.144 78.0704 152.745L77.4857 154.213ZM68.7936 150.202C67.3555 149.444 65.9648 148.654 64.6215 147.833L65.4432 146.491C66.755 147.28 68.1141 148.07 69.5206 148.796L68.7936 150.202ZM60.6231 145.212C59.2956 144.264 58.0155 143.285 56.8302 142.274L57.8417 141.058C59.0111 142.037 60.2438 143.001 61.5397 143.917L60.6231 145.212ZM53.2902 139.037C52.1365 137.884 51.0619 136.684 50.0662 135.452L51.2989 134.457C52.2471 135.641 53.306 136.81 54.4122 137.915L53.2902 139.037ZM47.2532 131.551C46.3839 130.193 45.5938 128.787 44.8984 127.35L46.3207 126.655C46.9845 128.029 47.7431 129.387 48.5807 130.698L47.2532 131.551ZM43.0652 122.913C42.5436 121.412 42.1169 119.849 41.7693 118.285L43.318 117.954C43.6499 119.47 44.0608 120.97 44.5665 122.407L43.0652 122.913ZM41.0265 113.532C40.8684 111.968 40.7736 110.358 40.7736 108.731H42.354C42.354 110.31 42.433 111.874 42.5911 113.374L41.0265 113.532ZM42.5594 104.072L40.9791 103.93C41.1213 102.382 41.3268 100.772 41.5954 99.1765L43.16 99.445C42.8913 100.993 42.6859 102.556 42.5594 104.072ZM44.0924 94.8494L42.5594 94.4862C42.9229 92.9701 43.3496 91.4224 43.8237 89.8748L45.3409 90.3328C44.8826 91.8488 44.4559 93.3649 44.0924 94.8494ZM46.8264 85.8635L45.3409 85.3423C45.8782 83.8263 46.4472 82.3418 47.0319 80.8889L48.5016 81.4732C47.9169 82.8945 47.3638 84.3632 46.8264 85.8635ZM50.3191 77.1303L48.8809 76.4828C49.5447 75.0141 50.2243 73.577 50.9196 72.1715L52.342 72.8821C51.6466 74.2561 50.967 75.6774 50.3191 77.1303ZM54.5071 68.7129L53.1163 67.9549C53.8907 66.5493 54.6967 65.1754 55.5185 63.833L56.8618 64.6542C56.0716 65.965 55.2815 67.339 54.5071 68.7129ZM59.4378 60.7061L58.1261 59.8218C59.0269 58.4952 59.9594 57.2002 60.9076 55.9368L62.1719 56.8844C61.2395 58.1162 60.3228 59.4112 59.4378 60.7061ZM65.1114 53.2205L63.8945 52.2098C64.9217 50.9938 65.9964 49.7936 67.071 48.6407L68.2247 49.7146C67.1659 50.8359 66.107 52.0203 65.1114 53.2205ZM128.753 51.0412L128.516 49.4777C129.938 49.2566 131.392 48.7039 132.593 47.8985L133.463 49.225C132.056 50.141 130.381 50.7885 128.753 51.0412ZM123.712 50.4726C122.163 49.9199 120.709 49.1145 119.366 48.0564L120.345 46.8088C121.546 47.7563 122.858 48.4828 124.249 48.9724L123.712 50.4726ZM71.5277 46.3824L70.4372 45.2453C71.5909 44.1399 72.792 43.066 73.9931 42.0553L75.0203 43.2555C73.835 44.2504 72.6656 45.2927 71.5277 46.3824ZM136.844 45.3717L135.391 44.74C135.691 44.0451 135.849 43.3029 135.849 42.5448C135.849 41.9289 135.754 41.2972 135.549 40.6497L137.066 40.1918C137.303 40.9814 137.429 41.771 137.429 42.5448C137.429 43.5398 137.224 44.4873 136.844 45.3717ZM115.968 44.4399C115.035 43.0818 114.293 41.5973 113.755 40.018L115.257 39.5285C115.731 40.9656 116.41 42.3237 117.264 43.5555L115.968 44.4399ZM78.6868 40.3181L77.7385 39.0547C79.0187 38.0914 80.3462 37.1754 81.6579 36.3068L82.5271 37.6334C81.2312 38.4862 79.9511 39.3863 78.6868 40.3181ZM133.399 36.828C132.546 35.7699 131.455 34.6802 130.16 33.5905L131.171 32.3745C132.53 33.5273 133.7 34.696 134.616 35.833L133.399 36.828ZM86.5412 35.2013L85.7668 33.8274C87.1734 33.0378 88.6115 32.2955 90.018 31.6165L90.6976 33.0378C89.3069 33.7169 87.9161 34.4275 86.5412 35.2013ZM112.87 35.154C112.854 34.8539 112.854 34.5539 112.854 34.2538C112.854 32.943 112.997 31.5849 113.265 30.2425L114.814 30.5584C114.561 31.7902 114.435 33.0378 114.435 34.2538C114.435 34.5381 114.435 34.8065 114.451 35.075L112.87 35.154ZM94.9962 31.2059L94.4273 29.7372C95.9286 29.1528 97.4616 28.6317 98.9788 28.1895L99.4371 29.7056C97.9515 30.132 96.466 30.6373 94.9962 31.2059ZM126.446 30.8426C125.229 30.1004 123.838 29.4529 122.305 28.9633L122.795 27.463C124.439 28 125.94 28.6791 127.267 29.5003L126.446 30.8426ZM103.957 28.5527L103.641 27.0051C105.237 26.6734 106.849 26.4207 108.398 26.2628L108.556 27.8263C107.054 28 105.506 28.2369 103.957 28.5527ZM117.833 27.9368C116.363 27.7315 114.814 27.621 113.218 27.6052L113.234 26.0259C114.182 26.0259 115.114 26.0733 116.015 26.1523L114.751 25.5995C115.367 24.1624 116.142 22.7253 117.058 21.3198L118.386 22.1726C117.532 23.4834 116.805 24.8257 116.236 26.1681C116.869 26.2154 117.485 26.2944 118.085 26.3734L117.833 27.9368ZM121.136 18.4614L119.935 17.4348C120.946 16.2662 122.052 15.0976 123.269 13.9447L124.36 15.0976C123.19 16.203 122.1 17.3401 121.136 18.4614ZM127.884 12.0654L126.904 10.8178C128.121 9.85447 129.417 8.90693 130.776 7.99097L131.661 9.30174C130.349 10.1861 129.069 11.1179 127.884 12.0654Z" fill="#D7D9DD"/>
<path d="M210 164.052C210 166.231 166.05 168 111.843 168C57.6362 168 13.7018 166.231 13.7018 164.052C13.7018 161.873 57.652 160.104 111.843 160.104C166.05 160.104 210 161.873 210 164.052Z" fill="#C3DBEF"/>
<g opacity="0.5">
<g opacity="0.5">
<path opacity="0.5" d="M118.006 70.4185C101.191 70.4185 87.5527 84.0473 87.5527 100.85C87.5527 117.654 101.191 131.283 118.006 131.283C134.837 131.283 148.46 117.654 148.46 100.85C148.46 84.0473 134.822 70.4185 118.006 70.4185ZM118.006 116.864C109.156 116.864 101.997 109.694 101.997 100.866C101.997 92.0225 109.172 84.8685 118.006 84.8685C126.857 84.8685 134.031 92.0383 134.031 100.866C134.016 109.694 126.857 116.864 118.006 116.864Z" fill="#DAE2F2"/>
</g>
<g opacity="0.5">
<path opacity="0.5" d="M125.087 77.4934H111.369C111.369 77.4934 109.014 66.5493 111.369 64.1962C113.803 61.78 122.937 61.5273 125.087 64.1962C127.173 66.7862 125.087 77.4934 125.087 77.4934Z" fill="#DAE2F2"/>
</g>
<g opacity="0.5">
<path opacity="0.5" d="M123.791 124.539H110.057C110.057 124.539 107.702 135.483 110.057 137.821C112.491 140.253 121.626 140.489 123.791 137.821C125.893 135.246 123.791 124.539 123.791 124.539Z" fill="#DAE2F2"/>
</g>
<g opacity="0.5">
<path opacity="0.5" d="M105.458 79.2465L97.0665 90.0959C97.0665 90.0959 86.9679 85.2634 86.5412 81.9628C86.0987 78.5674 91.5036 71.1766 94.933 71.1134C98.2676 71.0502 105.458 79.2465 105.458 79.2465Z" fill="#DAE2F2"/>
</g>
<g opacity="0.5">
<path opacity="0.5" d="M95.1069 95.7968L92.8627 109.331C92.8627 109.331 81.6737 109.868 79.7456 107.167C77.7544 104.372 79.0029 95.3231 81.9898 93.6333C84.8819 91.9909 95.1069 95.7968 95.1069 95.7968Z" fill="#DAE2F2"/>
</g>
<g opacity="0.5">
<path opacity="0.5" d="M141.333 108.557L141.886 94.8494C141.886 94.8494 152.917 92.9543 155.177 95.3864C157.5 97.9131 157.374 107.041 154.624 109.094C151.953 111.068 141.333 108.557 141.333 108.557Z" fill="#DAE2F2"/>
</g>
<g opacity="0.5">
<path opacity="0.5" d="M130.27 78.82L138.662 89.6694C138.662 89.6694 148.761 84.8369 149.187 81.5363C149.614 78.1409 144.225 70.7501 140.795 70.6869C137.477 70.6237 130.27 78.82 130.27 78.82Z" fill="#DAE2F2"/>
</g>
<g opacity="0.5">
<path opacity="0.5" d="M103.42 123.576L95.0279 112.726C95.0279 112.726 84.9293 117.559 84.5026 120.859C84.0601 124.255 89.4649 131.646 92.8944 131.709C96.2289 131.788 103.42 123.576 103.42 123.576Z" fill="#DAE2F2"/>
</g>
<g opacity="0.5">
<path opacity="0.5" d="M130.807 124.018L139.199 113.169C139.199 113.169 149.298 118.001 149.725 121.302C150.151 124.697 144.762 132.088 141.333 132.151C137.998 132.214 130.807 124.018 130.807 124.018Z" fill="#DAE2F2"/>
</g>
</g>
<path d="M56.53 74.635C41.232 68.0179 23.4686 75.0298 16.8468 90.3169C10.2251 105.604 17.2419 123.355 32.54 129.972C47.838 136.589 65.6014 129.577 72.2231 114.29C78.8449 99.0185 71.8122 81.2678 56.53 74.635ZM38.2135 116.864C30.1694 113.374 26.4713 104.041 29.9639 96.0022C33.4408 87.9638 42.7966 84.2684 50.8407 87.7585C58.8848 91.2486 62.5829 100.582 59.0902 108.62C55.5976 116.659 46.2576 120.338 38.2135 116.864Z" fill="#EAF0FE"/>
<path d="M60.1648 83.8579L47.6799 78.4569C47.6799 78.4569 49.8608 67.5917 52.9109 66.3756C56.0717 65.128 64.4793 68.5076 65.3959 71.7767C66.2967 74.9509 60.1648 83.8579 60.1648 83.8579Z" fill="#EAF0FE"/>
<path d="M40.4576 126.118L27.9726 120.717C27.9726 120.717 21.5247 129.735 22.7258 132.798C23.9743 135.957 32.1922 139.779 35.2108 138.2C38.1344 136.668 40.4576 126.118 40.4576 126.118Z" fill="#EAF0FE"/>
<path d="M41.6429 77.7304L29.7269 84.2842C29.7269 84.2842 22.4571 75.9142 23.3738 72.7558C24.322 69.4867 32.1448 64.9069 35.2898 66.2019C38.3399 67.4337 41.6429 77.7304 41.6429 77.7304Z" fill="#EAF0FE"/>
<path d="M25.7127 88.6904L18.3324 100.108C18.3324 100.108 7.94932 96.1919 7.25396 92.9702C6.54279 89.6538 11.2523 81.9155 14.6185 81.5523C17.9215 81.2048 25.7127 88.6904 25.7127 88.6904Z" fill="#EAF0FE"/>
<path d="M62.7092 118.491L68.6198 106.251C68.6198 106.251 79.398 108.873 80.4884 111.968C81.6105 115.174 77.8808 123.434 74.5778 124.207C71.3697 124.966 62.7092 118.491 62.7092 118.491Z" fill="#EAF0FE"/>
<path d="M64.3686 87.0953L67.719 100.266C67.719 100.266 78.7974 99.8398 80.4884 97.013C82.2268 94.0914 80.2198 85.2634 77.138 83.8421C74.1511 82.484 64.3686 87.0953 64.3686 87.0953Z" fill="#EAF0FE"/>
<path d="M22.3149 117.227L18.9645 104.056C18.9645 104.056 7.87029 104.467 6.1951 107.31C4.45668 110.231 6.46376 119.059 9.54549 120.481C12.5324 121.854 22.3149 117.227 22.3149 117.227Z" fill="#EAF0FE"/>
<path d="M47.0477 128.392L58.9637 121.839C58.9637 121.839 66.2335 130.209 65.3168 133.367C64.3686 136.636 56.5458 141.216 53.4008 139.921C50.3507 138.689 47.0477 128.392 47.0477 128.392Z" fill="#EAF0FE"/>
<path d="M63.1043 6.52238C53.4956 2.36897 42.3382 6.77506 38.166 16.3769C34.0096 25.9787 38.4188 37.1281 48.0275 41.2973C57.6362 45.4665 68.7936 41.0447 72.9658 31.4429C77.1222 21.841 72.7129 10.6758 63.1043 6.52238ZM51.5992 33.0537C46.542 30.8585 44.2188 24.9995 46.4155 19.946C48.5965 14.8924 54.4754 12.5709 59.5326 14.766C64.5898 16.9612 66.913 22.8202 64.7163 27.8738C62.5195 32.9115 56.6564 35.233 51.5992 33.0537Z" fill="#91BBDF"/>
<path d="M65.3958 12.3181L57.5572 8.92273C57.5572 8.92273 58.9321 2.0846 60.8443 1.32657C62.8356 0.536943 68.1141 2.66892 68.683 4.72194C69.2361 6.71179 65.3958 12.3181 65.3958 12.3181Z" fill="#91BBDF"/>
<path d="M53.0057 38.8651L45.167 35.4697C45.167 35.4697 41.1213 41.1392 41.8799 43.0659C42.6701 45.0557 47.8221 47.4562 49.7185 46.4613C51.5518 45.4979 53.0057 38.8651 53.0057 38.8651Z" fill="#91BBDF"/>
<path d="M53.7485 8.46469L46.2575 12.5865C46.2575 12.5865 41.6902 7.32763 42.2591 5.33778C42.8597 3.28477 47.7588 0.41054 49.7501 1.21595C51.6782 1.98978 53.7485 8.46469 53.7485 8.46469Z" fill="#91BBDF"/>
<path d="M43.7447 15.3503L39.1142 22.52C39.1142 22.52 32.6031 20.0564 32.1606 18.035C31.7181 15.9504 34.6734 11.0863 36.7911 10.8652C38.8456 10.6441 43.7447 15.3503 43.7447 15.3503Z" fill="#91BBDF"/>
<path d="M66.992 34.0642L70.7059 26.3733C70.7059 26.3733 77.4857 28.0157 78.1652 29.974C78.8764 31.9954 76.5375 37.1753 74.4514 37.6649C72.4285 38.1387 66.992 34.0642 66.992 34.0642Z" fill="#91BBDF"/>
<path d="M68.035 14.3553L70.1369 22.6305C70.1369 22.6305 77.1064 22.3621 78.1652 20.5933C79.2557 18.7614 77.9914 13.2024 76.0633 12.3181C74.1827 11.4495 68.035 14.3553 68.035 14.3553Z" fill="#91BBDF"/>
<path d="M41.6112 33.2748L39.5093 24.9995C39.5093 24.9995 32.5399 25.268 31.481 27.0367C30.3906 28.8687 31.6549 34.4276 33.5829 35.312C35.4636 36.1806 41.6112 33.2748 41.6112 33.2748Z" fill="#91BBDF"/>
<path d="M57.1463 40.3022L64.6372 36.1804C64.6372 36.1804 69.2045 41.4393 68.6356 43.4292C68.035 45.4822 63.1201 48.3564 61.1446 47.551C59.2166 46.7614 57.1463 40.3022 57.1463 40.3022Z" fill="#91BBDF"/>
<path d="M72.4601 36.37C55.5501 64.6226 60.6705 139.495 111.843 161.999C119.129 165.205 136.039 170.148 141.112 149.396L118.591 117.622L105.648 121.839C105.648 121.839 85.1031 103.851 90.1761 74.0507L103.072 70.1184L99.7531 27.0998C99.7531 27.084 82.1162 20.2301 72.4601 36.37Z" fill="#014E8F"/>
<path d="M94.6801 25.8997L95.9919 72.2821L107.623 68.9499C107.623 68.9499 109.615 35.8647 99.7531 27.0999L94.6801 25.8997Z" fill="#236CA9"/>
<path d="M117.501 117.969L139.752 153.36C139.752 153.36 142.028 149.902 142.407 145.954C142.787 142.021 121.594 116.153 121.594 116.153L117.501 117.969Z" fill="#236CA9"/>
<path d="M0 54.2469C0 67.3231 16.2146 74.556 29.3001 74.556C42.3856 74.556 51.8995 67.1494 51.8995 54.0732C51.8995 40.9971 40.6946 33.8589 27.6091 33.8589C14.5236 33.8589 0 41.1708 0 54.2469Z" fill="url(#paint0_linear)"/>
<path d="M49.2286 80.6835L40.5998 70.2131L47.9169 59.7585L49.2286 80.6835Z" fill="url(#paint1_linear)"/>
<path d="M55.5343 106.283L64.574 110.989L53.2269 131.488C53.2269 131.488 54.2858 137.758 50.4613 149.428L47.4586 159.772L45.5779 159.567L49.0547 130.398C49.0547 130.398 51.0934 116.327 55.5343 106.283Z" fill="url(#paint2_linear)"/>
<path d="M48.1224 159.267L45.4515 158.098L44.6297 160.214L43.7605 160.893L38.5611 162.315L39.5883 162.615L43.9186 163.199L44.1556 163.61L45.6886 164.052L48.1224 159.267Z" fill="#014E8F"/>
<path d="M58.8689 110.105L69.1255 110.547L67.4977 132.088C67.4977 132.088 72.1124 136.478 76.0317 148.102L79.8246 158.193L78.1968 159.141L63.4835 133.699C63.4994 133.683 58.5686 118.949 58.8689 110.105Z" fill="url(#paint3_linear)"/>
<path d="M79.5401 156.408L76.7903 158.288L78.0862 160.151L78.1178 161.288L75.9527 166.863L76.9009 166.073L80.2355 162.346H80.7412L82.1161 161.146L79.5401 156.408Z" fill="#014E8F"/>
<path d="M60.7969 75.8667C60.7969 75.8667 63.689 76.4352 64.1473 78.3461C64.6056 80.257 65.38 81.3151 67.5925 82.7996C69.8051 84.2841 73.2819 86.9056 72.9342 89.1639C72.3337 92.7646 74.8306 94.6439 73.8508 96.6022C72.8868 98.5604 70.3582 97.6287 69.5996 96.6022C68.8252 95.5756 63.1517 90.6326 62.2983 88.7849C61.4449 86.9372 59.0427 88.1848 58.0313 86.9214C57.0198 85.6738 57.6204 83.6681 57.1621 82.9575C55.4553 80.3517 56.6247 78.125 58.1103 76.5931C59.6116 75.0771 60.7969 75.8667 60.7969 75.8667Z" fill="#2E3B57"/>
<path d="M28.4941 84.9C28.4941 84.9 26.2816 81.9153 25.4282 81.9942C24.717 82.0574 22.3148 83.4313 27.5301 86.0529L28.4941 84.9Z" fill="#FFC190"/>
<path d="M56.2771 92.1962L42.6226 101.94L27.0085 85.9898L28.2728 84.2842L42.1485 94.9915L54.8705 87.2216C54.8705 87.2216 58.9479 84.2526 60.7021 87.1268C60.6863 87.111 59.0743 90.1906 56.2771 92.1962Z" fill="#468CC7"/>
<path d="M66.9288 86.2109C66.9288 86.2109 68.9833 88.0428 70.1211 92.7173C71.259 97.3919 69.4258 103.709 69.4258 103.709L69.5522 114.495L53.4324 112.884L51.8362 101.766L53.9381 98.4816L52.3577 95.181L56.8144 84.8369L66.9288 86.2109Z" fill="#236CA9"/>
<path d="M61.3342 81.7732L63.1675 85.6266C63.1675 85.6266 58.8214 90.1432 58.9321 88.027C59.0427 86.0529 58.616 82.2786 58.616 82.2786L61.3342 81.7732Z" fill="#FFC190"/>
<path d="M61.2868 76.3408C61.7925 77.1305 62.7724 78.6781 62.5037 79.8941C62.2351 81.1102 61.8716 83.2579 60.6705 83.9844C59.4694 84.7108 58.8689 83.3211 58.5054 82.8789C58.1419 82.4525 56.5931 77.8253 58.4422 76.3093C59.8487 75.1564 60.9075 75.7407 61.2868 76.3408Z" fill="#FFC190"/>
<path d="M59.3904 77.225C59.3904 77.225 61.034 79.5149 62.8514 79.7202C62.8514 79.7202 64.2263 75.8195 59.9277 75.2983C59.9277 75.2983 55.3604 76.467 57.3359 79.6413C57.3359 79.6571 59.4536 78.4884 59.3904 77.225Z" fill="#2E3B57"/>
<path d="M53.5904 116.074C53.5904 116.074 49.9714 116.896 49.7027 117.701C49.4657 118.38 49.7659 121.128 54.27 117.401L53.5904 116.074Z" fill="#FFC190"/>
<path d="M70.532 92.4331L74.4672 108.715L53.9855 117.827L53.1479 116.138L67.798 106.678L65.0797 92.0225C65.0797 92.0225 63.768 87.1585 67.0868 86.5583C67.0868 86.5583 69.6628 89.1167 70.532 92.4331Z" fill="#468CC7"/>
<path d="M11.9792 59.727V58.1635L13.4174 56.8528C15.8354 54.6892 17.0206 53.4416 17.0522 52.1466C17.0522 51.2464 16.4991 50.52 15.219 50.52C14.2708 50.52 13.4332 50.9938 12.8485 51.4359L12.1057 49.5882C12.9433 48.9565 14.2392 48.4512 15.7405 48.4512C18.2533 48.4512 19.6283 49.9199 19.6283 51.9255C19.6283 53.789 18.2849 55.2735 16.673 56.6948L15.6457 57.5476V57.5792H19.8337V59.7112H11.9792V59.727Z" fill="white"/>
<path d="M26.0445 59.7269V57.0896H21.1296V55.3998L25.3334 48.6406H28.5099V55.1471H29.8374V57.0896H28.5099V59.7269H26.0445ZM26.0445 55.1313V52.6835C26.0445 52.0202 26.0761 51.3411 26.1236 50.6147H26.0603C25.6969 51.3253 25.4124 51.9728 25.0331 52.6835L23.5475 55.0997V55.1313H26.0445Z" fill="white"/>
<path d="M30.4696 60.406L34.1203 48.0405H35.8429L32.1922 60.406H30.4696Z" fill="white"/>
<path d="M44.5191 48.6406V50.283L39.9519 59.7269H37.202L41.7693 50.8042V50.7726H36.6805V48.6406H44.5191Z" fill="white"/>
<path d="M136.481 6.68013L134.158 7.5803L134.585 3.66378L144.731 0.236816L136.481 6.68013Z" fill="#FFAC55"/>
<path d="M138.725 9.90179L144.731 0.236816L135.675 5.51149L138.725 9.90179Z" fill="url(#paint4_linear)"/>
<path d="M144.731 0.236887L134.948 4.31134L132.593 0L144.731 0.236887Z" fill="url(#paint5_linear)"/>
<path d="M134.158 7.58029L135.675 5.51147L136.481 6.68012L134.158 7.58029Z" fill="#DBAB33"/>
<path d="M160.74 91.4857L156.473 104.988L137.651 102.635L137.777 101.056L152.522 100.614L156.963 88.8168C156.963 88.8168 158.148 84.7265 160.803 85.7373C160.819 85.7215 161.577 88.6905 160.74 91.4857Z" fill="#FFC190"/>
<path d="M138.14 101.198C138.14 101.198 135.248 99.9662 134.664 100.377C134.158 100.724 133.004 102.746 137.935 102.446L138.14 101.198Z" fill="#FFC190"/>
<path d="M177.223 88.1693L167.804 98.766L151.589 88.9431L152.364 87.5534L166.002 93.1439L174.884 84.1896C174.884 84.1896 177.634 80.9364 179.657 82.942C179.641 82.9262 179.12 85.9426 177.223 88.1693Z" fill="#FFC190"/>
<path d="M152.617 87.822C152.617 87.822 150.483 85.5163 149.772 85.6584C149.171 85.769 147.291 87.1587 151.906 88.8801L152.617 87.822Z" fill="#FFC190"/>
<path d="M181.269 159.709L180.305 159.788L180.147 161.272L179.799 161.904L177.144 164.068L181.933 162.52L181.269 159.709Z" fill="#014E8F"/>
<path d="M184.698 157.135L183.955 157.735L184.619 159.061L184.698 159.788L183.671 163.057L186.8 159.109L184.698 157.135Z" fill="#014E8F"/>
<path d="M185.931 106.789L183.228 136.447L182.264 160.893H179.957L177.65 135.483L174.758 106.789H185.931Z" fill="url(#paint6_linear)"/>
<path d="M164.738 106.789L165.497 133.841L183.624 158.588L185.931 157.435L173.414 135.089L177.839 108.32V106.789H164.738Z" fill="url(#paint7_linear)"/>
<path d="M186.8 110.073L165.149 115.68L163.584 99.9189L159.665 84.7739L167.836 80.81L178.756 79.0413L182.533 93.6493L186.8 110.073Z" fill="#236CA9"/>
<path d="M160.582 84.6318C160.582 84.6318 164.627 85.7215 160.36 93.6809L155.872 90.8067C155.872 90.7909 157.105 84.6792 160.582 84.6318Z" fill="#468CC7"/>
<path d="M179.214 79.1043C179.214 79.1043 183.402 78.9148 181.759 87.7902L176.607 86.4004C176.607 86.4162 175.927 80.2256 179.214 79.1043Z" fill="#468CC7"/>
<path d="M169.874 81.2679C170.127 82.026 167.061 82.8156 166.824 82.0576C166.16 79.8782 166.129 78.141 166.129 78.141L168.168 76.7197C168.183 76.7197 169.369 79.7045 169.874 81.2679Z" fill="#FFC190"/>
<path d="M166.856 79.278C166.65 79.357 164.833 80.1782 164.296 79.3096C163.758 78.4568 162.968 74.9825 163.189 74.0349C163.411 73.0874 164.754 72.2188 165.528 72.3294C166.287 72.4399 168.657 73.9402 168.515 77.5882C168.499 77.5882 167.946 78.8674 166.856 79.278Z" fill="#FFC190"/>
<path d="M162.763 74.1455C162.763 74.1455 163.237 75.2826 164.059 74.9667C164.865 74.6509 166.239 74.035 166.54 74.6351C166.856 75.2352 166.808 77.5567 167.409 77.9831C167.994 78.3937 169.29 78.7569 169.321 77.9041C169.353 77.0513 168.594 72.0609 165.734 71.5872C165.75 71.5872 163.047 71.7135 162.763 74.1455Z" fill="#2E3B57"/>
<path d="M153.328 83.8263C153.328 94.6758 138.393 103.062 127.536 103.062C116.679 103.062 107.892 94.2652 107.892 83.4315C107.892 72.5821 116.695 63.8015 127.536 63.8015C138.393 63.7857 153.328 72.9769 153.328 83.8263Z" fill="#014E8F"/>
<path d="M110.105 105.494L117.042 100.014L111.195 88.1377L110.105 105.494Z" fill="#014E8F"/>
<path d="M119.366 79.3413V82.4366H122.368V79.3413H124.186V87.3954H122.368V84.0159H119.366V87.3954H117.532V79.3413H119.366Z" fill="white"/>
<path d="M130.823 84.0002H127.852V85.911H131.171V87.4113H126.019V79.3572H130.997V80.8575H127.852V82.5315H130.823V84.0002Z" fill="white"/>
<path d="M132.657 79.3413H134.49V85.8794H137.698V87.4112H132.657V79.3413Z" fill="white"/>
<path d="M139.01 79.4518C139.579 79.357 140.369 79.2781 141.475 79.2781C142.597 79.2781 143.403 79.4992 143.94 79.9256C144.446 80.3362 144.794 80.9995 144.794 81.7891C144.794 82.5787 144.525 83.242 144.051 83.7C143.435 84.2843 142.502 84.5528 141.428 84.5528C141.191 84.5528 140.969 84.537 140.811 84.5212V87.3954H139.01V79.4518ZM140.811 83.1156C140.969 83.1472 141.159 83.163 141.428 83.163C142.392 83.163 142.992 82.6735 142.992 81.8522C142.992 81.11 142.471 80.6678 141.57 80.6678C141.191 80.6678 140.953 80.6994 140.811 80.7468V83.1156Z" fill="white"/>
<defs>
<linearGradient id="paint0_linear" x1="45.1171" y1="33.8589" x2="-2.05328" y2="38.7676" gradientUnits="userSpaceOnUse">
<stop stop-color="#FF9424"/>
<stop offset="1" stop-color="#FF8302"/>
</linearGradient>
<linearGradient id="paint1_linear" x1="48.101" y1="59.7585" x2="40.1824" y2="60.025" gradientUnits="userSpaceOnUse">
<stop stop-color="#FF9424"/>
<stop offset="1" stop-color="#FF8302"/>
</linearGradient>
<linearGradient id="paint2_linear" x1="62.0915" y1="106.283" x2="44.6541" y2="106.789" gradientUnits="userSpaceOnUse">
<stop stop-color="#FF9424"/>
<stop offset="1" stop-color="#FF8302"/>
</linearGradient>
<linearGradient id="paint3_linear" x1="77.0844" y1="110.105" x2="57.8431" y2="110.776" gradientUnits="userSpaceOnUse">
<stop stop-color="#FF9424"/>
<stop offset="1" stop-color="#FF8302"/>
</linearGradient>
<linearGradient id="paint4_linear" x1="143.547" y1="0.236817" x2="135.276" y2="0.869205" gradientUnits="userSpaceOnUse">
<stop stop-color="#FF9424"/>
<stop offset="1" stop-color="#FF8302"/>
</linearGradient>
<linearGradient id="paint5_linear" x1="143.144" y1="4.04704e-07" x2="132.553" y2="2.43323" gradientUnits="userSpaceOnUse">
<stop stop-color="#FF9424"/>
<stop offset="1" stop-color="#FF8302"/>
</linearGradient>
<linearGradient id="paint6_linear" x1="184.471" y1="106.789" x2="174.209" y2="106.962" gradientUnits="userSpaceOnUse">
<stop stop-color="#FF9424"/>
<stop offset="1" stop-color="#FF8302"/>
</linearGradient>
<linearGradient id="paint7_linear" x1="183.161" y1="106.789" x2="163.713" y2="107.438" gradientUnits="userSpaceOnUse">
<stop stop-color="#FF9424"/>
<stop offset="1" stop-color="#FF8302"/>
</linearGradient>
</defs>
</svg>
