<svg width="62" height="62" viewBox="0 0 62 62" fill="none" xmlns="http://www.w3.org/2000/svg">
<path d="M30.5 61C47.3447 61 61 47.3447 61 30.5C61 13.6553 47.3447 0 30.5 0C13.6553 0 0 13.6553 0 30.5C0 47.3447 13.6553 61 30.5 61Z" fill="#377FBC"/>
<path d="M57.897 43.8991C53.8427 52.1824 46.2581 58.1864 37.2654 60.2314C28.2728 62.2763 18.8377 60.1425 11.6001 54.4269C26.5144 58.6271 42.4251 52.6185 50.8399 39.608C51.4846 40.0277 56.8221 43.2544 57.897 43.8991Z" fill="#2675AA"/>
<path d="M61.0005 30.5C61.0067 35.145 59.9452 39.7294 57.8979 43.8989C56.0048 42.7631 54.1187 41.6202 52.2396 40.4703C51.1737 39.8919 50.1874 39.1778 49.3052 38.3458C48.4202 37.5003 47.89 36.3497 47.8223 35.1275C47.8118 32.9189 49.747 31.2677 51.3982 29.7848C52.9919 28.5465 54.1816 26.8626 54.8163 24.9469C55.3001 23.0012 54.5323 20.6138 52.6497 19.8881C51.7558 19.5515 50.683 19.5936 49.9678 18.9415C48.9687 18.0475 49.2842 16.4384 49.6944 15.1448C48.4473 14.9472 47.1894 15.428 46.3919 16.4069C45.6107 17.3721 44.6677 18.1942 43.6048 18.8363C42.469 19.3412 40.8072 18.9415 40.5548 17.7215C40.3655 16.775 41.1017 15.9231 41.7012 15.1658C43.4781 12.8766 44.4404 10.06 44.4357 7.1622C44.3088 5.93969 44.3978 4.7044 44.6986 3.51271V3.5022C54.7281 8.77216 61.0067 19.1703 61.0005 30.5Z" fill="#014E8F"/>
<path d="M31.0255 38.1457C30.7742 40.0845 30.1492 41.9561 29.185 43.6567C28.3226 45.4447 27.4496 47.2431 26.5872 49.0416C25.6407 50.9978 24.4943 53.1538 22.4119 53.8585C21.9904 54.0062 21.541 54.0565 21.0972 54.0057C20.9382 53.9896 20.7824 53.9507 20.6345 53.89C20.4818 53.8381 20.3394 53.7598 20.2138 53.6586C19.578 53.0386 19.2837 52.148 19.425 51.2712C19.5764 50.407 19.6293 49.5285 19.5828 48.6524C19.2883 46.896 17.595 45.7391 15.9228 45.1186C14.2506 44.4981 12.4416 44.1931 10.9902 43.1729C9.53886 42.1317 8.6449 39.9862 9.69662 38.5559C10.4118 37.5883 11.7685 37.2517 12.4626 36.2736C13.4513 34.8538 12.6099 32.9291 11.758 31.4252C10.3913 28.7688 8.69514 26.2953 6.70974 24.0631C5.47923 22.801 4.02785 21.6652 3.31269 20.056C2.99001 19.323 2.81832 18.5325 2.80786 17.7317C7.40106 7.72775 17.0443 0.989125 28.0176 0.115356C27.3234 3.06018 26.7345 6.27846 28.1332 8.96036C28.901 10.4328 30.2682 11.6948 30.426 13.3671C30.6679 15.9438 27.986 17.7633 26.9448 20.1402C26.2822 21.6547 26.1034 23.6845 24.5784 24.3155C23.0324 24.9571 21.4128 23.6424 19.751 23.4216C17.8425 23.2888 16.091 24.4796 15.5126 26.3033C15.0881 27.7695 15.3553 29.3492 16.2383 30.5943C16.4327 30.8816 16.6546 31.1493 16.9009 31.3936C18.2829 32.6708 20.1227 33.3346 22.0017 33.2341C24.2208 33.1605 26.5767 32.2245 28.575 33.2131C30.279 34.2432 31.2339 36.1655 31.0255 38.1457Z" fill="#014E8F"/>
<path d="M57.8966 43.8999C56.8449 43.2689 51.4927 40.0338 50.8396 39.6089C53.7931 35.0703 55.651 29.9071 56.2664 24.5272V24.5061C56.6964 20.846 56.5509 17.1412 55.8352 13.5261C56.0729 13.7638 57.2897 15.903 57.3497 16.0082C62.0105 24.6755 62.214 35.0566 57.8966 43.8999Z" fill="#18476F"/>
<path fill-rule="evenodd" clip-rule="evenodd" d="M44.4944 61.0879C44.6926 61.3212 44.9833 61.4557 45.2895 61.4557C45.5956 61.4557 45.8863 61.3212 46.0846 61.0879C49.4059 57.2102 62.0003 41.815 62.0003 31.3304C62.0003 22.7168 54.512 15.7239 45.2895 15.7239C36.0669 15.7239 28.5786 22.7168 28.5786 31.3304C28.5786 41.815 41.1762 57.2102 44.4944 61.0879Z" fill="#FFB466"/>
<path d="M37.8099 23.2531C37.3484 23.2533 36.9408 22.9526 36.8046 22.5118C36.6684 22.0709 36.8355 21.5927 37.2167 21.3326C39.5977 19.7183 42.4121 18.8631 45.2888 18.88C45.8696 18.88 46.3405 19.3509 46.3405 19.9317C46.3405 20.5126 45.8696 20.9835 45.2888 20.9835C42.8352 20.9678 40.4343 21.6952 38.402 23.0701C38.2278 23.19 38.0213 23.2538 37.8099 23.2531Z" fill="#FFFBFB"/>
<path d="M32.7863 32.382C32.2055 32.382 31.7346 31.9111 31.7346 31.3303C31.7339 29.8055 32.0364 28.2957 32.6243 26.8889C32.7623 26.5327 33.0825 26.2793 33.4608 26.2269C33.8391 26.1745 34.2161 26.3313 34.4457 26.6366C34.6752 26.9419 34.7212 27.3477 34.5658 27.6966C34.0849 28.8477 33.8375 30.0828 33.838 31.3303C33.838 31.9111 33.3671 32.382 32.7863 32.382Z" fill="#FFFBFB"/>
<path d="M45.1716 39.9145C49.2375 39.9145 52.5336 36.6184 52.5336 32.5525C52.5336 28.4865 49.2375 25.1904 45.1716 25.1904C41.1057 25.1904 37.8096 28.4865 37.8096 32.5525C37.8096 36.6184 41.1057 39.9145 45.1716 39.9145Z" fill="#F5EFCA"/>
<path fill-rule="evenodd" clip-rule="evenodd" d="M62.0005 31.3314C62.0005 41.8171 49.4113 57.2143 46.0879 61.0846C45.891 61.3196 45.6003 61.4553 45.2938 61.4553C44.9873 61.4553 44.6966 61.3196 44.4998 61.0846C41.8235 57.9526 39.3202 54.6769 37.001 51.2721C37.4003 49.3384 38.275 47.5347 39.5462 46.024C42.3017 42.7636 46.8451 42.0169 50.2106 39.619C54.3439 36.6847 54.691 31.4471 52.4403 27.135C50.0529 22.5495 45.6777 18.9947 41.2499 16.1865C42.5737 15.8763 43.929 15.721 45.2886 15.7238C54.5122 15.7238 62.0005 22.7178 62.0005 31.3314Z" fill="url(#paint0_linear)"/>
<defs>
<linearGradient id="paint0_linear" x1="58.7335" y1="15.7238" x2="35.8115" y2="16.7463" gradientUnits="userSpaceOnUse">
<stop stop-color="#FF9424"/>
<stop offset="1" stop-color="#FF8302"/>
</linearGradient>
</defs>
</svg>
