<svg width="69" height="69" viewBox="0 0 69 69" fill="none" xmlns="http://www.w3.org/2000/svg">
<path d="M38.6723 22.2632C37.0918 20.2459 34.8142 18.8924 32.2867 18.4685C29.7593 18.0446 27.1647 18.581 25.0125 19.9722C24.1131 20.5537 23.3124 21.2751 22.6406 22.1091C21.9688 21.2754 21.1681 20.5544 20.2687 19.9733C18.1181 18.5845 15.5262 18.0494 13.0014 18.473C10.4767 18.8967 8.20132 20.2485 6.62183 22.2632C4.84989 24.5498 4.04883 27.4417 4.39179 30.3141C4.73475 33.1864 6.19417 35.8085 8.45464 37.6136L20.4908 47.3814V53.9062H16.1783C15.6065 53.9062 15.058 54.1334 14.6536 54.5377C14.2493 54.9421 14.0221 55.4906 14.0221 56.0624C14.0221 56.6343 14.2493 57.1828 14.6536 57.5871C15.058 57.9915 15.6065 58.2187 16.1783 58.2187H20.4908V63.6093C20.4908 64.1812 20.718 64.7296 21.1224 65.134C21.5268 65.5384 22.0752 65.7656 22.6471 65.7656C23.219 65.7656 23.7674 65.5384 24.1718 65.134C24.5762 64.7296 24.8033 64.1812 24.8033 63.6093V58.2187H29.1158C29.6877 58.2187 30.2362 57.9915 30.6405 57.5871C31.0449 57.1828 31.2721 56.6343 31.2721 56.0624C31.2721 55.4906 31.0449 54.9421 30.6405 54.5377C30.2362 54.1334 29.6877 53.9062 29.1158 53.9062H24.8033V47.3825L36.8384 37.6136C39.0993 35.8088 40.5591 33.1868 40.9023 30.3144C41.2455 27.4419 40.4444 24.5498 38.6723 22.2632ZM34.1205 34.2649L22.6471 43.5778L11.1715 34.2649C9.78983 33.1649 8.89644 31.5655 8.68441 29.8122C8.47238 28.0589 8.95875 26.2926 10.0384 24.8949C10.5891 24.1862 11.2953 23.6135 12.1025 23.2209C12.9097 22.8284 13.7962 22.6265 14.6938 22.6309C15.8417 22.6298 16.9653 22.962 17.9281 23.5872C18.7085 24.0841 19.3517 24.7689 19.7989 25.5788C20.2461 26.3888 20.4828 27.2979 20.4876 28.2231C20.4876 28.795 20.7148 29.3434 21.1191 29.7478C21.5235 30.1522 22.072 30.3794 22.6438 30.3794C23.2157 30.3794 23.7642 30.1522 24.1685 29.7478C24.5729 29.3434 24.8001 28.795 24.8001 28.2231C24.8049 27.298 25.0418 26.3888 25.4889 25.5789C25.9361 24.769 26.5793 24.0842 27.3596 23.5872C28.6006 22.7805 30.0985 22.4672 31.5588 22.7088C33.0191 22.9504 34.3363 23.7294 35.2514 24.8928C36.3323 26.2902 36.8196 28.0569 36.6079 29.8108C36.3963 31.5647 35.5027 33.1647 34.1205 34.2649Z" fill="url(#paint0_linear)"/>
<path d="M18.9136 24.4023C19.6142 25.1168 20.1069 26.0087 20.3388 26.9822C20.903 27.7486 21.5615 28.4409 22.2989 29.0425L23.639 30.1303C23.9889 29.9501 24.2826 29.6772 24.4879 29.3415C24.6933 29.0057 24.8024 28.62 24.8034 28.2264C24.8065 27.4359 24.9828 26.6558 25.3198 25.9407L25.0157 25.6939C23.8676 24.7679 23.0514 23.4939 22.6902 22.0638C22.6773 22.08 22.66 22.0929 22.6471 22.1091C21.5009 20.6827 19.9849 19.5986 18.2645 18.975C18.0193 20.8099 18.2426 22.6769 18.9136 24.4023Z" fill="#F8664F"/>
<path d="M29.1159 53.9062H28.8161C29.0102 54.2325 29.1137 54.6047 29.1159 54.9844C29.1159 55.5562 28.8887 56.1047 28.4843 56.5091C28.0799 56.9134 27.5315 57.1406 26.9596 57.1406H22.6471V62.5312C22.6462 63.0528 22.4558 63.5562 22.1113 63.9478C21.7667 64.3393 21.2916 64.5922 20.7744 64.6595C21.006 65.0762 21.3695 65.4042 21.8079 65.5917C22.2462 65.7793 22.7344 65.8158 23.1958 65.6956C23.6572 65.5753 24.0655 65.3051 24.3565 64.9275C24.6475 64.5498 24.8047 64.0861 24.8034 63.6094V58.2187H29.1159C29.6877 58.2187 30.2362 57.9916 30.6406 57.5872C31.0449 57.1828 31.2721 56.6344 31.2721 56.0625C31.2721 55.4906 31.0449 54.9422 30.6406 54.5378C30.2362 54.1334 29.6877 53.9062 29.1159 53.9062Z" fill="#E17D14"/>
<path d="M38.6723 22.2633C37.4904 20.7326 35.892 19.5755 34.0687 18.9308C35.005 19.5399 35.8323 20.3019 36.5161 21.1851C38.2883 23.4716 39.0895 26.3636 38.7465 29.2361C38.4036 32.1085 36.944 34.7306 34.6832 36.5355L24.2427 45.0096C23.7445 45.4139 23.3429 45.9244 23.067 46.5037C22.7912 47.083 22.6481 47.7166 22.6481 48.3582V51.75C22.6481 52.3219 22.8753 52.8703 23.2797 53.2747C23.6841 53.6791 24.2325 53.9062 24.8044 53.9062V47.3825L36.8395 37.6136C39.1002 35.8087 40.5598 33.1866 40.9028 30.3142C41.2458 27.4417 40.4445 24.5497 38.6723 22.2633Z" fill="#E17D14"/>
<path d="M64.2864 4.39118C64.0919 4.11877 63.8365 3.89541 63.5407 3.73879C63.2448 3.58216 62.9166 3.49656 62.5819 3.48879L51.8039 3.23435C51.5194 3.22367 51.2356 3.27013 50.9694 3.37098C50.7031 3.47184 50.4598 3.62503 50.2538 3.82152C50.0477 4.01801 49.8832 4.25381 49.7698 4.51498C49.6564 4.77614 49.5966 5.05739 49.5937 5.34208C49.5873 5.62535 49.6367 5.90711 49.7393 6.17126C49.8418 6.43541 49.9954 6.67676 50.1912 6.88152C50.3871 7.08628 50.6213 7.25043 50.8807 7.3646C51.14 7.47876 51.4193 7.54069 51.7026 7.54685L56.0151 7.64711L49.2444 12.4814C47.5684 10.9386 45.4278 9.99572 43.1582 9.8006C40.8886 9.60548 38.6184 10.1692 36.7037 11.4033C35.8043 11.9848 35.0036 12.7061 34.3318 13.5401C33.66 12.7064 32.8592 11.9854 31.9599 11.4044C29.8094 10.0141 27.2168 9.47803 24.6912 9.90131C22.1657 10.3246 19.8895 11.6767 18.3098 13.6922C16.5379 15.9785 15.7369 18.8703 16.0798 21.7425C16.4228 24.6147 17.8822 27.2365 20.1426 29.0414L30.3492 37.3257L33.7701 34.5485L22.8562 25.6939C21.4746 24.5941 20.5813 22.9948 20.3692 21.2417C20.1572 19.4885 20.6435 17.7224 21.7231 16.3249C22.2739 15.6162 22.9801 15.0435 23.7872 14.6509C24.5944 14.2584 25.4809 14.0565 26.3785 14.0609C27.5265 14.0602 28.6501 14.3927 29.6128 15.0183C30.3933 15.5151 31.0366 16.1999 31.4837 17.0098C31.9309 17.8198 32.1677 18.729 32.1723 19.6542C32.1723 20.2261 32.3995 20.7745 32.8039 21.1789C33.2082 21.5833 33.7567 21.8104 34.3286 21.8104C34.9004 21.8104 35.4489 21.5833 35.8533 21.1789C36.2576 20.7745 36.4848 20.2261 36.4848 19.6542C36.4896 18.729 36.7264 17.8199 37.1735 17.0099C37.6207 16.2 38.2639 15.5152 39.0443 15.0183C40.2854 14.2116 41.7832 13.8983 43.2435 14.1399C44.7038 14.3815 46.021 15.1605 46.9362 16.3239C48.016 17.7215 48.5023 19.488 48.2901 21.2414C48.0779 22.9948 47.1841 24.5942 45.802 25.6939L40.9504 29.6366C40.8598 31.1798 40.4471 32.6871 39.7387 34.0611C39.0303 35.4352 38.042 36.6457 36.8374 37.6147L34.0342 39.8906C34.1332 39.9145 34.2337 39.9314 34.335 39.9413C34.8301 39.9415 35.3101 39.7713 35.6946 39.4593L48.5242 29.0436C50.4196 27.5276 51.7609 25.4278 52.3396 23.0708C52.9183 20.7137 52.7019 18.2315 51.7241 16.0101L58.5163 11.1586L57.2118 15.2695C57.1261 15.5394 57.0945 15.8235 57.1186 16.1057C57.1428 16.3879 57.2223 16.6625 57.3526 16.9139C57.4829 17.1654 57.6614 17.3887 57.878 17.5711C58.0946 17.7535 58.345 17.8915 58.615 17.9772C58.8849 18.0628 59.169 18.0945 59.4512 18.0703C59.7333 18.0462 60.008 17.9667 60.2594 17.8364C60.5108 17.7061 60.7342 17.5275 60.9166 17.3109C61.099 17.0943 61.237 16.8439 61.3227 16.574L64.5861 6.29622C64.6875 5.97721 64.7132 5.63898 64.6611 5.30832C64.6091 4.97767 64.4808 4.66366 64.2864 4.39118Z" fill="#2474B8"/>
<path d="M64.2864 4.39118C64.0918 4.11878 63.8365 3.89542 63.5406 3.73879C63.2448 3.58216 62.9165 3.49657 62.5819 3.48879L62.2218 3.48016C62.3769 3.73885 62.4756 4.0274 62.5115 4.3269C62.5474 4.6264 62.5195 4.9301 62.4298 5.2181L59.1696 15.4948C59.0433 15.8839 58.8078 16.2285 58.4913 16.4876C58.1748 16.7468 57.7906 16.9096 57.3842 16.9567C57.5877 17.3256 57.8947 17.6267 58.2673 17.8231C58.64 18.0194 59.062 18.1022 59.4813 18.0614C59.9005 18.0206 60.2986 17.8579 60.6264 17.5933C60.9542 17.3288 61.1974 16.9741 61.3258 16.5729L64.5861 6.29623C64.6874 5.97721 64.7131 5.63898 64.6611 5.30833C64.6091 4.97767 64.4808 4.66367 64.2864 4.39118Z" fill="#014E8F"/>
<path d="M58.5195 11.1575C58.3482 10.9178 58.131 10.7145 57.8805 10.5595C57.63 10.4045 57.3512 10.3009 57.0602 10.2546C56.7693 10.2084 56.472 10.2204 56.1858 10.2901C55.8996 10.3598 55.63 10.4857 55.3929 10.6605L50.4993 14.2679L49.5689 14.932C50.5468 17.1533 50.7633 19.6354 50.1848 21.9925C49.6064 24.3495 48.2653 26.4494 46.3701 27.9655L42.9912 30.7071C43.0845 29.7795 43.1122 28.8464 43.0743 27.9148L40.9514 29.6398C40.8609 31.1831 40.4481 32.6903 39.7397 34.0644C39.0313 35.4385 38.043 36.649 36.8384 37.6179L34.0342 39.8906C34.1331 39.9145 34.2337 39.9314 34.335 39.9413C34.83 39.9415 35.3101 39.7713 35.6945 39.4594L41.498 34.748L48.5263 29.0436C50.4213 27.5273 51.7622 25.4274 52.3405 23.0704C52.9188 20.7134 52.7021 18.2313 51.7241 16.0101L55.2894 13.4636L58.5195 11.1575Z" fill="#014E8F"/>
<defs>
<linearGradient id="paint0_linear" x1="36.1885" y1="18.327" x2="2.63607" y2="20.4432" gradientUnits="userSpaceOnUse">
<stop stop-color="#FF9424"/>
<stop offset="1" stop-color="#FF8302"/>
</linearGradient>
</defs>
</svg>
