<svg width="63" height="63" viewBox="0 0 63 63" fill="none" xmlns="http://www.w3.org/2000/svg">
<path d="M11.4434 5.53711H7.75195V11.0742H11.4434V5.53711Z" fill="#D97813"/>
<path d="M5.90625 9.22852V18.457L13.2891 22.1484V9.22852H5.90625Z" fill="#D97813"/>
<path d="M42.082 18.457V36.9141L0 33.2227L5.90625 18.457H42.082Z" fill="url(#paint0_linear)"/>
<path d="M42.082 33.2227H0V36.9141L19.8105 40.6055L42.082 36.9141V33.2227Z" fill="#2374B9"/>
<path d="M0 36.9141V63H39.6211L43.3125 36.9141H0Z" fill="#014E8F"/>
<path d="M15.4424 46.1426V55.6172H9.90527L6.21387 48.1113L9.90527 40.6055C12.9581 40.6055 15.4424 43.0898 15.4424 46.1426Z" fill="#DAF0E5"/>
<path d="M9.90527 40.6055V55.6172H4.36816V46.1426C4.36816 43.0898 6.85125 40.6055 9.90527 40.6055Z" fill="white"/>
<path d="M35.2529 46.1426V55.6172H29.7158L26.0244 48.1113L29.7158 40.6055C32.7686 40.6055 35.2529 43.0898 35.2529 46.1426Z" fill="#DAF0E5"/>
<path d="M29.7158 40.6055V55.6172H24.1787V46.1426C24.1787 43.0898 26.6618 40.6055 29.7158 40.6055Z" fill="white"/>
<path d="M63 18.457L55.6172 0H47.0039L39.6211 18.457L51.3105 22.1484L63 18.457Z" fill="url(#paint1_linear)"/>
<path d="M63 18.457H39.6211V22.1484L51.3105 25.8398L63 22.1484V18.457Z" fill="#1363A7"/>
<path d="M63 22.1484H39.6211V41.8359L51.3105 43.6816L63 41.8359V22.1484Z" fill="#024884"/>
<path d="M56.8477 25.8398V38.1445H51.3106L48.5874 31.9922L51.3106 25.8398H56.8477Z" fill="#DAF0E5"/>
<path d="M51.3105 25.8398H45.7734V38.1445H51.3105V25.8398Z" fill="white"/>
<path d="M51.3105 43.6816L39.6211 45.5273V63H43.3125L51.3105 51.2071L59.3086 63H63V45.5273L51.3105 43.6816Z" fill="#014E8F"/>
<path d="M44.543 43.0664L47.0039 63H55.6172L58.0781 43.0664H44.543Z" fill="#D97813"/>
<path d="M39.6211 41.8359V45.5273H43.3125V63H47.0039V45.5273H55.6172V63H59.3086V45.5273H63V41.8359H39.6211Z" fill="#DAF0E5"/>
<defs>
<linearGradient id="paint0_linear" x1="36.5827" y1="18.457" x2="-0.785543" y2="25.4095" gradientUnits="userSpaceOnUse">
<stop stop-color="#FF9424"/>
<stop offset="1" stop-color="#FF8302"/>
</linearGradient>
<linearGradient id="paint1_linear" x1="59.9448" y1="2.07907e-06" x2="38.6242" y2="1.83646" gradientUnits="userSpaceOnUse">
<stop stop-color="#FF9424"/>
<stop offset="1" stop-color="#FF8302"/>
</linearGradient>
</defs>
</svg>
