<svg width="57" height="57" viewBox="0 0 57 57" fill="none" xmlns="http://www.w3.org/2000/svg">
<g clip-path="url(#clip0)">
<path d="M57 47.3974C57 51.6791 53.5975 55.1501 49.4001 55.1501H7.59993C3.40252 55.1503 0 51.6791 0 47.3974V9.60299C0 5.32109 3.40252 1.8501 7.59993 1.8501H49.4C53.5974 1.8501 56.9999 5.32131 56.9999 9.60299L57 47.3974Z" fill="url(#paint0_linear)"/>
<path d="M49.4001 1.8501H7.59993C3.40252 1.8501 0 5.3212 0 9.6031V17.065H57V9.6031C57 5.3212 53.5975 1.8501 49.4001 1.8501Z" fill="#014E8F"/>
<path opacity="0.1" d="M4.86003 47.3974V9.60299C4.86003 5.32109 8.26255 1.8501 12.46 1.8501H7.59993C3.40252 1.84999 0 5.32109 0 9.60299V47.3974C0 51.6791 3.40252 55.1501 7.59993 55.1501H12.46C8.26255 55.1503 4.86003 51.6791 4.86003 47.3974Z" fill="black"/>
<path d="M9.25834 11.6677C10.3621 11.6677 11.2568 10.7552 11.2568 9.6295C11.2568 8.50384 10.3621 7.59131 9.25834 7.59131C8.15463 7.59131 7.25989 8.50384 7.25989 9.6295C7.25989 10.7552 8.15463 11.6677 9.25834 11.6677Z" fill="url(#paint1_linear)"/>
<path d="M16.1171 11.6677C17.2208 11.6677 18.1155 10.7552 18.1155 9.6295C18.1155 8.50384 17.2208 7.59131 16.1171 7.59131C15.0134 7.59131 14.1187 8.50384 14.1187 9.6295C14.1187 10.7552 15.0134 11.6677 16.1171 11.6677Z" fill="url(#paint2_linear)"/>
<path d="M22.9767 11.6677C24.0804 11.6677 24.9752 10.7552 24.9752 9.6295C24.9752 8.50384 24.0804 7.59131 22.9767 7.59131C21.873 7.59131 20.9783 8.50384 20.9783 9.6295C20.9783 10.7552 21.873 11.6677 22.9767 11.6677Z" fill="white"/>
<path opacity="0.2" d="M49.4 1.8501H45.74C49.9374 1.8501 53.3399 5.32131 53.3399 9.60299V47.3974C53.3399 51.6791 49.9374 55.1501 45.74 55.1501H49.4C53.5974 55.1501 57 51.6789 57 47.3974V9.60299C57 5.3212 53.5974 1.8501 49.4 1.8501Z" fill="white"/>
<path d="M49.7401 9.82192C49.7401 10.9452 48.8293 11.8559 47.7061 11.8559H31.374C30.2506 11.8559 29.34 10.9451 29.34 9.82192C29.34 8.69851 30.2507 7.78784 31.374 7.78784H47.706C48.8293 7.78773 49.7401 8.69851 49.7401 9.82192Z" fill="white"/>
<path d="M49.74 31.5617C49.74 32.8299 48.712 33.8578 47.4439 33.8578H9.55603C8.28789 33.8578 7.25989 32.8298 7.25989 31.5617V23.5249C7.25989 22.2569 8.28789 21.2288 9.55603 21.2288H47.4437C48.7118 21.2288 49.7398 22.2569 49.7398 23.5249V31.5617H49.74Z" fill="white"/>
<path d="M26.7777 47.6353C26.7777 48.9034 25.7497 49.9316 24.4816 49.9316H9.55603C8.28789 49.9316 7.25989 48.9034 7.25989 47.6353V39.5986C7.25989 38.3305 8.28789 37.3025 9.55603 37.3025H24.4816C25.7497 37.3025 26.7777 38.3305 26.7777 39.5986V47.6353Z" fill="white"/>
<path d="M49.7401 47.6353C49.7401 48.9034 48.7121 49.9316 47.444 49.9316H32.5184C31.2503 49.9316 30.2223 48.9034 30.2223 47.6353V39.5986C30.2223 38.3305 31.2503 37.3025 32.5184 37.3025H47.444C48.7122 37.3025 49.7401 38.3305 49.7401 39.5986V47.6353Z" fill="white"/>
<path d="M10.8599 47.6351V39.5984C10.8599 38.3303 11.888 37.3022 13.156 37.3022H9.55603C8.28789 37.3022 7.25989 38.3303 7.25989 39.5984V47.6351C7.25989 48.9032 8.28789 49.9313 9.55603 49.9313H13.1559C11.8879 49.9313 10.8599 48.9033 10.8599 47.6351Z" fill="#E7E7E7"/>
<path d="M33.8222 47.6351V39.5984C33.8222 38.3303 34.8502 37.3022 36.1183 37.3022H32.5184C31.2503 37.3022 30.2223 38.3303 30.2223 39.5984V47.6351C30.2223 48.9032 31.2503 49.9313 32.5184 49.9313H36.1183C34.8502 49.9313 33.8222 48.9033 33.8222 47.6351Z" fill="#E7E7E7"/>
<path d="M9.55603 33.8578H13.1559C11.8879 33.8578 10.8598 32.8298 10.8598 31.5617V23.5249C10.8598 22.2569 11.8879 21.2288 13.1559 21.2288H9.55603C8.28789 21.2288 7.25989 22.2569 7.25989 23.5249V31.5617C7.25989 32.8299 8.28789 33.8578 9.55603 33.8578Z" fill="#E7E7E7"/>
</g>
<defs>
<linearGradient id="paint0_linear" x1="49.5511" y1="1.8501" x2="-2.42031" y2="6.38549" gradientUnits="userSpaceOnUse">
<stop stop-color="#FF9424"/>
<stop offset="1" stop-color="#FF8302"/>
</linearGradient>
<linearGradient id="paint1_linear" x1="10.7345" y1="7.59131" x2="7.08578" y2="7.88324" gradientUnits="userSpaceOnUse">
<stop stop-color="#FF9424"/>
<stop offset="1" stop-color="#FF8302"/>
</linearGradient>
<linearGradient id="paint2_linear" x1="17.5932" y1="7.59131" x2="13.9445" y2="7.88324" gradientUnits="userSpaceOnUse">
<stop stop-color="#FF9424"/>
<stop offset="1" stop-color="#FF8302"/>
</linearGradient>
<clipPath id="clip0">
<rect width="57" height="57" fill="white"/>
</clipPath>
</defs>
</svg>
