<svg width="63" height="63" viewBox="0 0 63 63" fill="none" xmlns="http://www.w3.org/2000/svg">
<g clip-path="url(#clip0)">
<path d="M49.9655 45.6206C49.9655 55.2227 38.7776 63 24.9828 63C19.9086 63.049 14.8925 61.9186 10.3298 59.6979L2.03121 61.4793C1.63553 61.567 1.22391 61.4272 0.963547 61.1166C0.703188 60.806 0.637409 60.3763 0.792931 60.002L3.22603 54.1691C1.18791 51.7823 0.0469316 48.7589 0 45.6206C0 37.4306 8.14655 30.5658 19.1064 28.7301C21.0476 28.3998 23.0136 28.2363 24.9828 28.2413C32.5428 28.2413 39.3207 30.5767 43.8936 34.2698C47.6736 37.3112 49.9655 41.2758 49.9655 45.6206Z" fill="url(#paint0_linear)"/>
<path d="M62.2071 31.7607C62.3626 32.135 62.2968 32.5647 62.0365 32.8753C61.7761 33.1859 61.3645 33.3257 60.9688 33.2379L52.6702 31.4566C49.9023 32.829 46.9436 33.7774 43.8936 34.2698C39.3207 30.5767 32.5428 28.2414 24.9828 28.2414C23.0136 28.2363 21.0476 28.3999 19.1064 28.7302C15.3264 25.6888 13.0345 21.7241 13.0345 17.3793C13.0345 7.77724 24.2224 0 38.0172 0C51.8121 0 63 7.77724 63 17.3793C62.9531 20.5175 61.8121 23.541 59.774 25.9278L62.2071 31.7607Z" fill="#014E8F"/>
<path d="M60.0564 9.18931C55.277 6.66132 49.941 5.36933 44.5345 5.43103C30.7397 5.43103 19.5517 13.2083 19.5517 22.8103C19.5601 24.7764 20.0248 26.7137 20.9095 28.4695C20.3012 28.5455 19.6929 28.6324 19.1064 28.7302C15.3264 25.6888 13.0345 21.7241 13.0345 17.3793C13.0345 7.77724 24.2224 0 38.0172 0C47.5541 0 55.8528 3.71483 60.0564 9.18931Z" fill="#1F68A6"/>
<path d="M38.0172 20.6381C39.8169 20.6381 41.2759 19.1792 41.2759 17.3795C41.2759 15.5798 39.8169 14.1208 38.0172 14.1208C36.2176 14.1208 34.7586 15.5798 34.7586 17.3795C34.7586 19.1792 36.2176 20.6381 38.0172 20.6381Z" fill="white"/>
<path d="M26.069 20.6381C27.8687 20.6381 29.3276 19.1792 29.3276 17.3795C29.3276 15.5798 27.8687 14.1208 26.069 14.1208C24.2693 14.1208 22.8103 15.5798 22.8103 17.3795C22.8103 19.1792 24.2693 20.6381 26.069 20.6381Z" fill="white"/>
<path d="M49.9655 20.6381C51.7652 20.6381 53.2241 19.1792 53.2241 17.3795C53.2241 15.5798 51.7652 14.1208 49.9655 14.1208C48.1658 14.1208 46.7069 15.5798 46.7069 17.3795C46.7069 19.1792 48.1658 20.6381 49.9655 20.6381Z" fill="white"/>
<path d="M24.9828 56.483C25.5827 56.483 26.069 55.9966 26.069 55.3968C26.069 54.7969 25.5827 54.3105 24.9828 54.3105C24.3829 54.3105 23.8966 54.7969 23.8966 55.3968C23.8966 55.9966 24.3829 56.483 24.9828 56.483Z" fill="white"/>
<path d="M24.9828 52.138C24.3829 52.138 23.8966 51.6517 23.8966 51.0518C23.8966 49.3041 23.8966 46.9112 25.1435 44.9897C25.4183 44.5682 25.7257 44.1587 26.0331 43.7492C26.7992 42.9072 27.3412 41.8859 27.6092 40.7795C27.6567 39.2116 26.624 37.8152 25.1109 37.4014C24.0726 37.0611 22.933 37.2585 22.0696 37.9282C21.1191 38.6687 20.5856 39.8234 20.6379 41.0272C20.6485 41.3151 20.5442 41.5955 20.348 41.8065C20.1519 42.0176 19.8799 42.142 19.5919 42.1525C18.9945 42.1679 18.4943 41.7034 18.4655 41.1065C18.3877 39.1996 19.2376 37.373 20.7466 36.2044C22.1707 35.1085 24.0415 34.7798 25.754 35.3246C28.2892 36.0478 29.9678 38.4523 29.7729 41.0815C29.467 42.5575 28.7807 43.928 27.7819 45.057C27.5049 45.4263 27.2269 45.7935 26.9792 46.1747C26.1385 47.451 26.069 49.1379 26.069 51.0518C26.069 51.6517 25.5827 52.138 24.9828 52.138Z" fill="white"/>
<path d="M47.0328 37.4524C42.2556 34.9058 36.9131 33.6057 31.5 33.6724C29.5308 33.6673 27.5649 33.8308 25.6236 34.1612C14.6638 35.9968 6.51724 42.8617 6.51724 51.0517C6.56417 54.1899 7.70516 57.2133 9.74328 59.6001L9.64552 59.8499L2.03121 61.4793C1.63553 61.567 1.22391 61.4272 0.963547 61.1166C0.703188 60.806 0.637409 60.3763 0.792931 60.002L3.22603 54.1691C1.18791 51.7823 0.0469316 48.7589 0 45.6206C0 37.4306 8.14655 30.5658 19.1064 28.7301C21.0476 28.3998 23.0136 28.2363 24.9828 28.2413C32.5428 28.2413 39.3207 30.5767 43.8936 34.2698C45.065 35.1997 46.1191 36.2683 47.0328 37.4524Z" fill="#FF9B32"/>
<path d="M4.34483 46.7069C3.74493 46.7069 3.25862 46.2206 3.25862 45.6207C3.25862 41.0326 6.78988 36.6997 12.7086 34.0276C13.2551 33.7802 13.8988 34.0226 14.1462 34.5691C14.3937 35.1156 14.1512 35.7593 13.6047 36.0067C8.48436 38.3171 5.43104 41.9113 5.43104 45.6207C5.43104 46.2206 4.94472 46.7069 4.34483 46.7069Z" fill="#FFB465"/>
</g>
<defs>
<linearGradient id="paint0_linear" x1="43.4359" y1="28.2412" x2="-1.84554" y2="33.5526" gradientUnits="userSpaceOnUse">
<stop stop-color="#FF9424"/>
<stop offset="1" stop-color="#FF8302"/>
</linearGradient>
<clipPath id="clip0">
<rect width="63" height="63" fill="white"/>
</clipPath>
</defs>
</svg>
