<svg width="67" height="67" viewBox="0 0 67 67" fill="none" xmlns="http://www.w3.org/2000/svg">
<path d="M32.6245 61.2422C18.7706 61.2422 7.49951 49.9711 7.49951 36.1172C7.49951 22.2632 18.7706 10.9922 32.6245 10.9922C46.4785 10.9922 57.7495 22.2632 57.7495 36.1172C57.7495 49.9711 46.4785 61.2422 32.6245 61.2422ZM32.6245 13.0859C19.925 13.0859 9.59326 23.4177 9.59326 36.1172C9.59326 48.8167 19.925 59.1484 32.6245 59.1484C45.324 59.1484 55.6558 48.8167 55.6558 36.1172C55.6558 23.4177 45.3239 13.0859 32.6245 13.0859Z" fill="#93C5EF"/>
<path d="M33.6713 25.6484C40.0312 25.6484 45.1869 20.4927 45.1869 14.1328C45.1869 7.77291 40.0312 2.61719 33.6713 2.61719C27.3114 2.61719 22.1556 7.77291 22.1556 14.1328C22.1556 20.4927 27.3114 25.6484 33.6713 25.6484Z" fill="#014E8F"/>
<path d="M42.0462 21.4609C42.0462 18.5701 39.7027 16.2266 36.8119 16.2266H30.5306C27.6398 16.2266 25.2963 18.5701 25.2963 21.4609V22.0358C27.3958 24.26 30.3712 25.6484 33.6713 25.6484C36.9713 25.6484 39.9467 24.26 42.0462 22.0358V21.4609Z" fill="#3080C4"/>
<path d="M33.6713 21.4609C31.9367 21.4609 30.5306 20.0549 30.5306 18.3203V16.2266H36.8119V18.3203C36.8119 20.0549 35.4058 21.4609 33.6713 21.4609Z" fill="#D7E6F0"/>
<path d="M33.6713 15.1797C36.5621 15.1797 38.9056 12.8362 38.9056 9.94531C38.9056 7.05445 36.5621 4.71094 33.6713 4.71094C30.7804 4.71094 28.4369 7.05445 28.4369 9.94531C28.4369 12.8362 30.7804 15.1797 33.6713 15.1797Z" fill="#FFE1B4"/>
<path d="M15.8744 64.3828C22.2343 64.3828 27.39 59.2271 27.39 52.8672C27.39 46.5073 22.2343 41.3516 15.8744 41.3516C9.51449 41.3516 4.35876 46.5073 4.35876 52.8672C4.35876 59.2271 9.51449 64.3828 15.8744 64.3828Z" fill="#014E8F"/>
<path d="M24.2494 60.1953C24.2494 57.3045 21.9058 54.9609 19.015 54.9609H12.7338C9.84295 54.9609 7.49939 57.3045 7.49939 60.1953V60.7702C9.59903 62.9944 12.5744 64.3828 15.8744 64.3828C19.1744 64.3828 22.1499 62.9944 24.2494 60.7702V60.1953Z" fill="#3080C4"/>
<path d="M15.8744 60.1953C14.1399 60.1953 12.7338 58.7892 12.7338 57.0547V54.9609H19.015V57.0547C19.015 58.7892 17.6089 60.1953 15.8744 60.1953Z" fill="#D7E6F0"/>
<path d="M15.8744 53.9141C18.7653 53.9141 21.1088 51.5706 21.1088 48.6797C21.1088 45.7888 18.7653 43.4453 15.8744 43.4453C12.9835 43.4453 10.64 45.7888 10.64 48.6797C10.64 51.5706 12.9835 53.9141 15.8744 53.9141Z" fill="#FFE1B4"/>
<path d="M51.4682 64.3828C57.8281 64.3828 62.9838 59.2271 62.9838 52.8672C62.9838 46.5073 57.8281 41.3516 51.4682 41.3516C45.1083 41.3516 39.9525 46.5073 39.9525 52.8672C39.9525 59.2271 45.1083 64.3828 51.4682 64.3828Z" fill="#014E8F"/>
<path d="M59.8432 60.1953C59.8432 57.3045 57.4996 54.9609 54.6088 54.9609H48.3275C45.4367 54.9609 43.0932 57.3045 43.0932 60.1953V60.7702C45.1927 62.9944 48.1682 64.3828 51.4682 64.3828C54.7682 64.3828 57.7437 62.9944 59.8432 60.7702V60.1953Z" fill="#3080C4"/>
<path d="M51.4682 60.1953C49.7336 60.1953 48.3275 58.7892 48.3275 57.0547V54.9609H54.6088V57.0547C54.6088 58.7892 53.2027 60.1953 51.4682 60.1953Z" fill="#D7E6F0"/>
<path d="M51.4682 53.9141C54.359 53.9141 56.7025 51.5706 56.7025 48.6797C56.7025 45.7888 54.359 43.4453 51.4682 43.4453C48.5773 43.4453 46.2338 45.7888 46.2338 48.6797C46.2338 51.5706 48.5773 53.9141 51.4682 53.9141Z" fill="#FFE1B4"/>
<path d="M32.6244 48.6797H34.7181C41.6562 48.6797 47.2806 43.0552 47.2806 36.1172C47.2806 29.1792 41.6562 23.5547 34.7181 23.5547H32.6244C25.6864 23.5547 20.0619 29.1792 20.0619 36.1172C20.0619 43.0552 25.6864 48.6797 32.6244 48.6797Z" fill="url(#paint0_linear)"/>
<path d="M32.6244 48.6797C39.5625 48.6797 45.1869 43.0553 45.1869 36.1172C45.1869 29.1791 39.5625 23.5547 32.6244 23.5547C25.6863 23.5547 20.0619 29.1791 20.0619 36.1172C20.0619 43.0553 25.6863 48.6797 32.6244 48.6797Z" fill="#FFBB74"/>
<path d="M32.6244 44.4922C37.2498 44.4922 40.9994 40.7426 40.9994 36.1172C40.9994 31.4918 37.2498 27.7422 32.6244 27.7422C27.999 27.7422 24.2494 31.4918 24.2494 36.1172C24.2494 40.7426 27.999 44.4922 32.6244 44.4922Z" fill="#D7E6F0"/>
<path d="M32.6244 40.3047C34.9371 40.3047 36.8119 38.4299 36.8119 36.1172C36.8119 33.8045 34.9371 31.9297 32.6244 31.9297C30.3117 31.9297 28.4369 33.8045 28.4369 36.1172C28.4369 38.4299 30.3117 40.3047 32.6244 40.3047Z" fill="url(#paint1_linear)"/>
<path d="M32.6244 34.0234H14.8275L13.3553 31.8152C12.9671 31.2326 12.3133 30.8828 11.6132 30.8828H6.03965C4.42629 30.8828 3.46395 32.681 4.35889 34.0234V36.1172H12.7276H34.7183C34.7181 34.9609 33.7808 34.0234 32.6244 34.0234Z" fill="#1F6DAF"/>
<path d="M12.7275 36.1172H4.35877V38.2109C3.46382 39.5534 4.42616 41.3516 6.03953 41.3516H11.6132C12.3133 41.3516 12.967 41.0016 13.3553 40.4192L14.8275 38.2109H32.6244C33.7808 38.2109 34.7181 37.2735 34.7181 36.1172H12.7275Z" fill="#014E8F"/>
<defs>
<linearGradient id="paint0_linear" x1="43.7236" y1="23.5547" x2="18.9111" y2="25.7482" gradientUnits="userSpaceOnUse">
<stop stop-color="#FF9424"/>
<stop offset="1" stop-color="#FF8302"/>
</linearGradient>
<linearGradient id="paint1_linear" x1="35.7174" y1="31.9297" x2="28.074" y2="32.5534" gradientUnits="userSpaceOnUse">
<stop stop-color="#FF9424"/>
<stop offset="1" stop-color="#FF8302"/>
</linearGradient>
</defs>
</svg>
