<svg width="65" height="65" viewBox="0 0 65 65" fill="none" xmlns="http://www.w3.org/2000/svg">
<g clip-path="url(#clip0)">
<path d="M36.4956 12.1806C35.5226 12.1806 34.7341 11.3916 34.7341 10.4191V4.37889C34.7341 3.90728 34.3503 3.52345 33.8787 3.52345H16.9667C16.495 3.52345 16.1112 3.90728 16.1112 4.37889V10.4191C16.1112 11.3916 15.3222 12.1806 14.3497 12.1806C13.3768 12.1806 12.5878 11.3916 12.5878 10.4191V4.37889C12.5878 1.9643 14.5521 0 16.9667 0H33.8787C36.2933 0 38.2576 1.9643 38.2576 4.37889V10.4191C38.2576 11.3916 37.4686 12.1806 36.4956 12.1806Z" fill="url(#paint0_linear)"/>
<path d="M50.337 10.6229V39.4298C50.337 40.0968 50.2398 40.74 50.0608 41.3465C49.2346 44.1326 46.6554 46.1658 43.6011 46.1658H7.24388C3.52356 46.1658 0.508423 43.1492 0.508423 39.4298V10.6229C0.508423 9.3856 1.51066 8.38336 2.74796 8.38336H48.098C49.3348 8.38336 50.337 9.3856 50.337 10.6229Z" fill="#FFB66A"/>
<path d="M50.337 10.6229V17.1357C50.337 18.9254 49.8416 20.5996 48.9807 22.0288C47.3194 24.7821 44.3003 26.6235 40.8493 26.6235H9.9957C4.75541 26.6235 0.507935 22.3765 0.507935 17.1357V10.6229C0.507935 9.3856 1.51067 8.38336 2.74796 8.38336H48.0975C49.3348 8.38336 50.337 9.3856 50.337 10.6229Z" fill="#FFD5AA"/>
<path d="M50.0618 41.347C49.2346 44.1316 46.6559 46.1653 43.6011 46.1653H7.24339C3.52258 46.1653 0.507935 43.1507 0.507935 39.4293V10.6234C0.507935 9.38509 1.51166 8.38434 2.74697 8.38434H5.04701V34.8883C5.04701 38.6071 8.06165 41.6237 11.7825 41.6237H48.1397C48.8081 41.6237 49.4538 41.528 50.0618 41.347Z" fill="#FF880D"/>
<path d="M41.0668 31.2974H38.1454C37.5345 31.2974 37.04 30.8025 37.04 30.192V22.985C37.04 22.3745 37.5345 21.8796 38.1454 21.8796H41.0673C41.6778 21.8796 42.1727 22.3745 42.1727 22.985V30.192C42.1722 30.8025 41.6773 31.2974 41.0668 31.2974Z" fill="url(#paint1_linear)"/>
<path d="M48.9802 22.0293C47.3199 24.7826 44.3003 26.6239 40.8503 26.6239H9.99669C4.7564 26.6239 0.507935 22.376 0.507935 17.1352V10.6234C0.507935 9.38509 1.51166 8.38434 2.74697 8.38434H5.04701V13.2448C5.04701 18.485 9.29498 22.7335 14.5358 22.7335H45.3888C46.6604 22.7335 47.8739 22.4831 48.9802 22.0293Z" fill="#FFA242"/>
<path d="M42.1722 22.9855V26.5317C41.7408 26.5922 41.2984 26.6235 40.8491 26.6235H37.0391V22.9855C37.0391 22.375 37.535 21.8791 38.1454 21.8791H41.0659C41.6783 21.8791 42.1722 22.375 42.1722 22.9855Z" fill="#FFBD78"/>
<path d="M12.7103 31.2974H9.78837C9.1779 31.2974 8.68298 30.8025 8.68298 30.192V22.985C8.68298 22.3745 9.1779 21.8796 9.78837 21.8796H12.7103C13.3207 21.8796 13.8157 22.3745 13.8157 22.985V30.192C13.8157 30.8025 13.3207 31.2974 12.7103 31.2974Z" fill="url(#paint2_linear)"/>
<path d="M13.8152 22.9855V26.5317C13.3837 26.5922 12.9414 26.6235 12.4921 26.6235H8.68201V22.9855C8.68201 22.375 9.17792 21.8791 9.78838 21.8791H12.7093C13.3213 21.8791 13.8152 22.375 13.8152 22.9855Z" fill="#FFBD78"/>
<path d="M30.8729 42.2321V54.3467C30.8729 56.8164 37.3267 58.8178 45.2881 58.8178C53.2494 58.8178 59.7032 56.8164 59.7032 54.3467V42.4404L30.8729 42.2321Z" fill="#2776B9"/>
<path d="M59.6967 54.4702C59.488 56.8818 53.1165 58.8178 45.2881 58.8178C37.3272 58.8178 30.8729 56.8159 30.8729 54.3472V42.2321L34.5655 42.2594V51.4804C34.5655 53.9505 41.0183 55.9525 48.9806 55.9525C53.2345 55.9525 57.0585 55.3807 59.6967 54.4702Z" fill="#2776B9"/>
<path d="M44.7118 32.0903L26.8977 39.9455C25.885 40.3918 25.885 41.7219 26.8977 42.1682L44.7118 50.0234C45.0763 50.1841 45.4998 50.1841 45.8638 50.0234L63.6779 42.1682C64.6905 41.7214 64.6905 40.3918 63.6779 39.9455L45.8638 32.0903C45.4998 31.9296 45.0763 31.9296 44.7118 32.0903Z" fill="#014E8F"/>
<path d="M63.6784 42.1687L45.8638 50.0234C45.4993 50.1841 45.0768 50.1841 44.7123 50.0234L26.8972 42.1687C25.8845 41.7214 25.8845 40.3923 26.8972 39.945L29.8677 38.6353L47.4829 46.4033C47.8474 46.5624 48.2699 46.5624 48.6344 46.4033L63.479 39.8567L63.6784 39.945C64.691 40.3923 64.691 41.7214 63.6784 42.1687Z" fill="#05467D"/>
<path d="M45.3109 40.0798C45.0867 39.5919 44.509 39.3786 44.021 39.6033L33.6838 44.3903C33.3391 44.549 33.1179 44.8941 33.1179 45.2735V59.0886L29.8385 63.4422C29.5156 63.8717 29.6014 64.4811 30.0304 64.804C30.4594 65.1273 31.0688 65.0415 31.3922 64.6125L33.1179 62.3209V64.0274C33.1179 64.5644 33.5533 64.9999 34.0904 64.9999C34.6275 64.9999 35.0629 64.5644 35.0629 64.0274V62.3209L36.7892 64.6125C37.112 65.0415 37.722 65.1268 38.1509 64.804C38.5799 64.4811 38.6657 63.8717 38.3424 63.4422L35.0629 59.0886V45.8964L44.8343 41.3697C45.3223 41.1451 45.5355 40.5678 45.3109 40.0798Z" fill="url(#paint3_linear)"/>
<path d="M48.0593 40.2753C48.0593 39.3385 46.8185 38.5788 45.2881 38.5788C43.7577 38.5788 42.517 39.3385 42.517 40.2753C42.517 41.2121 43.7577 41.9718 45.2881 41.9718C46.8185 41.9718 48.0593 41.2121 48.0593 40.2753Z" fill="url(#paint4_linear)"/>
</g>
<defs>
<linearGradient id="paint0_linear" x1="34.903" y1="1.14339e-06" x2="11.997" y2="3.9392" gradientUnits="userSpaceOnUse">
<stop stop-color="#FF9424"/>
<stop offset="1" stop-color="#FF8302"/>
</linearGradient>
<linearGradient id="paint1_linear" x1="41.502" y1="21.8796" x2="36.7958" y2="22.0889" gradientUnits="userSpaceOnUse">
<stop stop-color="#FF9424"/>
<stop offset="1" stop-color="#FF8302"/>
</linearGradient>
<linearGradient id="paint2_linear" x1="13.1449" y1="21.8796" x2="8.43871" y2="22.0889" gradientUnits="userSpaceOnUse">
<stop stop-color="#FF9424"/>
<stop offset="1" stop-color="#FF8302"/>
</linearGradient>
<linearGradient id="paint3_linear" x1="43.3411" y1="39.5139" x2="28.9012" y2="40.2424" gradientUnits="userSpaceOnUse">
<stop stop-color="#FF9424"/>
<stop offset="1" stop-color="#FF8302"/>
</linearGradient>
<linearGradient id="paint4_linear" x1="47.335" y1="38.5788" x2="42.332" y2="39.2457" gradientUnits="userSpaceOnUse">
<stop stop-color="#FF9424"/>
<stop offset="1" stop-color="#FF8302"/>
</linearGradient>
<clipPath id="clip0">
<rect width="65" height="65" fill="white"/>
</clipPath>
</defs>
</svg>
