<svg width="63" height="63" viewBox="0 0 63 63" fill="none" xmlns="http://www.w3.org/2000/svg">
<g clip-path="url(#clip0)">
<path d="M48.9313 35.0516L62.2608 52.74C63.4826 54.3618 63.1557 56.6881 61.534 57.9099C59.9128 59.1318 57.5864 58.8049 56.3646 57.1832L43.0352 39.4947L43.7619 34.3253L48.9313 35.0516Z" fill="#1D6AAB"/>
<path d="M43.0352 39.4947L43.7619 34.3253L61.5345 57.9099C59.9128 59.1318 57.5864 58.8049 56.3646 57.1832L43.0352 39.4947Z" fill="#014E8F"/>
<path d="M36.369 30.6502L42.2647 26.207L48.9294 35.051L43.0332 39.4942L36.369 30.6502Z" fill="#3886C7"/>
<path d="M36.3685 30.6503L39.3168 28.4287L45.9811 37.2727L43.0332 39.4943L36.3685 30.6503Z" fill="#1B69AC"/>
<path d="M43.81 6.78686L50.2526 15.3367C50.4348 20.7921 46.9058 27.3338 41.5403 31.377C36.1748 35.4203 28.9136 37.0093 23.7197 35.3304L17.277 26.781C17.0949 21.3256 20.6238 14.7835 25.9893 10.7402C31.3548 6.69746 38.616 5.10843 43.81 6.78686Z" fill="#FFB262"/>
<path d="M25.9893 10.7407L41.5403 31.377C36.1748 35.4203 28.9136 37.0093 23.7197 35.3304L17.277 26.781C17.0949 21.3256 20.6238 14.784 25.9893 10.7407Z" fill="url(#paint0_linear)"/>
<path d="M54.8068 21.3804C53.1784 22.607 50.864 22.2821 49.6369 20.6537L38.5295 5.91302C37.3024 4.28505 37.6278 1.97072 39.2558 0.743611C40.8842 -0.483493 43.1986 -0.158092 44.4257 1.47036L55.5331 16.2105C56.7602 17.839 56.4348 20.1533 54.8068 21.3804Z" fill="#1B69AC"/>
<path d="M28.967 39.8374C27.3385 41.0641 25.0242 40.7391 23.7971 39.1107L12.6897 24.3701C11.4626 22.7421 11.788 20.4277 13.416 19.2006C15.0444 17.9735 17.3587 18.2989 18.5858 19.9274L29.6932 34.6675C30.9203 36.296 30.5949 38.6103 28.967 39.8374Z" fill="#014E8F"/>
<path d="M33.2227 53.5499V57.4629C33.2227 58.4968 32.4108 59.3086 31.377 59.3086H5.53711C4.50323 59.3086 3.69141 58.4968 3.69141 57.4629V53.5499C3.69141 50.5968 6.05381 48.2344 9.00694 48.2344H27.9071C30.8603 48.2344 33.2227 50.5968 33.2227 53.5499Z" fill="#3886C7"/>
<path d="M33.2227 53.5499V57.4629C33.2227 58.4968 32.4108 59.3086 31.377 59.3086H18.457V48.2344H27.9071C30.8603 48.2344 33.2227 50.5968 33.2227 53.5499Z" fill="#0F5D9F"/>
<path d="M33.2227 55.6172H3.69141C1.66113 55.6172 0 57.2783 0 59.3086V61.1543C0 62.1882 0.811821 63 1.8457 63H35.0684C36.1022 63 36.9141 62.1882 36.9141 61.1543V59.3086C36.9141 57.2783 35.2529 55.6172 33.2227 55.6172Z" fill="#1D6AAB"/>
<path d="M36.9141 59.3086V61.1543C36.9141 62.1882 36.1022 63 35.0684 63H18.457V55.6172H33.2227C35.2529 55.6172 36.9141 57.2783 36.9141 59.3086Z" fill="#014E8F"/>
</g>
<defs>
<linearGradient id="paint0_linear" x1="38.3687" y1="10.7407" x2="16.2076" y2="12.4789" gradientUnits="userSpaceOnUse">
<stop stop-color="#FF9424"/>
<stop offset="1" stop-color="#FF8302"/>
</linearGradient>
<clipPath id="clip0">
<rect width="63" height="63" fill="white"/>
</clipPath>
</defs>
</svg>
