<svg width="219" height="219" viewBox="0 0 219 219" fill="none" xmlns="http://www.w3.org/2000/svg">
<mask id="mask0" mask-type="alpha" maskUnits="userSpaceOnUse" x="50" y="40" width="119" height="119">
<rect x="50" y="40" width="119" height="119" rx="15" fill="white"/>
</mask>
<g mask="url(#mask0)">
<g filter="url(#filter0_d)">
<path d="M129.5 117C153.108 92.8163 169 40 169 40V159H50C50 159 104.972 142.126 129.5 117Z" fill="#F9F9F9"/>
</g>
</g>
<g clip-path="url(#clip0)">
<path d="M126.931 103.052L140.261 120.74C141.483 122.362 141.156 124.688 139.534 125.91C137.913 127.132 135.586 126.805 134.365 125.183L121.035 107.495L121.762 102.325L126.931 103.052Z" fill="#1D6AAB"/>
<path d="M121.035 107.495L121.762 102.325L139.534 125.91C137.913 127.132 135.586 126.805 134.365 125.183L121.035 107.495Z" fill="#014E8F"/>
<path d="M114.369 98.6502L120.265 94.207L126.929 103.051L121.033 107.494L114.369 98.6502Z" fill="#3886C7"/>
<path d="M114.369 98.6503L117.317 96.4287L123.981 105.273L121.033 107.494L114.369 98.6503Z" fill="#1B69AC"/>
<path d="M121.81 74.7869L128.253 83.3367C128.435 88.7921 124.906 95.3338 119.54 99.377C114.175 103.42 106.914 105.009 101.72 103.33L95.277 94.781C95.0949 89.3256 98.6238 82.7835 103.989 78.7402C109.355 74.6975 116.616 73.1084 121.81 74.7869Z" fill="#FFB262"/>
<path d="M103.989 78.7407L119.54 99.377C114.175 103.42 106.914 105.009 101.72 103.33L95.277 94.781C95.0949 89.3256 98.6238 82.784 103.989 78.7407Z" fill="url(#paint0_linear)"/>
<path d="M132.807 89.3804C131.178 90.607 128.864 90.2821 127.637 88.6537L116.53 73.913C115.302 72.2851 115.628 69.9707 117.256 68.7436C118.884 67.5165 121.199 67.8419 122.426 69.4704L133.533 84.2105C134.76 85.839 134.435 88.1533 132.807 89.3804Z" fill="#1B69AC"/>
<path d="M106.967 107.837C105.339 109.064 103.024 108.739 101.797 107.111L90.6897 92.3701C89.4626 90.7421 89.788 88.4277 91.416 87.2006C93.0444 85.9735 95.3587 86.2989 96.5858 87.9274L107.693 102.668C108.92 104.296 108.595 106.61 106.967 107.837Z" fill="#014E8F"/>
<path d="M111.223 121.55V125.463C111.223 126.497 110.411 127.309 109.377 127.309H83.5371C82.5032 127.309 81.6914 126.497 81.6914 125.463V121.55C81.6914 118.597 84.0538 116.234 87.0069 116.234H105.907C108.86 116.234 111.223 118.597 111.223 121.55Z" fill="#3886C7"/>
<path d="M111.223 121.55V125.463C111.223 126.497 110.411 127.309 109.377 127.309H96.457V116.234H105.907C108.86 116.234 111.223 118.597 111.223 121.55Z" fill="#0F5D9F"/>
<path d="M111.223 123.617H81.6914C79.6611 123.617 78 125.278 78 127.309V129.154C78 130.188 78.8118 131 79.8457 131H113.068C114.102 131 114.914 130.188 114.914 129.154V127.309C114.914 125.278 113.253 123.617 111.223 123.617Z" fill="#1D6AAB"/>
<path d="M114.914 127.309V129.154C114.914 130.188 114.102 131 113.068 131H96.457V123.617H111.223C113.253 123.617 114.914 125.278 114.914 127.309Z" fill="#014E8F"/>
</g>
<defs>
<filter id="filter0_d" x="0" y="0" width="219" height="219" filterUnits="userSpaceOnUse" color-interpolation-filters="sRGB">
<feFlood flood-opacity="0" result="BackgroundImageFix"/>
<feColorMatrix in="SourceAlpha" type="matrix" values="0 0 0 0 0 0 0 0 0 0 0 0 0 0 0 0 0 0 127 0"/>
<feOffset dy="10"/>
<feGaussianBlur stdDeviation="25"/>
<feColorMatrix type="matrix" values="0 0 0 0 0.821906 0 0 0 0 0.825 0 0 0 0 0.794062 0 0 0 0.25 0"/>
<feBlend mode="normal" in2="BackgroundImageFix" result="effect1_dropShadow"/>
<feBlend mode="normal" in="SourceGraphic" in2="effect1_dropShadow" result="shape"/>
</filter>
<linearGradient id="paint0_linear" x1="116.369" y1="78.7407" x2="94.2076" y2="80.4789" gradientUnits="userSpaceOnUse">
<stop stop-color="#FF9424"/>
<stop offset="1" stop-color="#FF8302"/>
</linearGradient>
<clipPath id="clip0">
<rect x="78" y="68" width="63" height="63" fill="white"/>
</clipPath>
</defs>
</svg>
