<svg width="251" height="32" viewBox="0 0 251 32" fill="none" xmlns="http://www.w3.org/2000/svg">
<path d="M59.196 24.264C57.6267 24.264 56.204 23.9267 54.928 23.252C53.6667 22.5627 52.6693 21.6167 51.936 20.414C51.2173 19.1967 50.858 17.8253 50.858 16.3C50.858 14.7747 51.2173 13.4107 51.936 12.208C52.6693 10.9907 53.6667 10.0447 54.928 9.37C56.204 8.68067 57.634 8.336 59.218 8.336C60.5527 8.336 61.7553 8.57067 62.826 9.04C63.9113 9.50933 64.8207 10.184 65.554 11.064L63.266 13.176C62.2247 11.9733 60.934 11.372 59.394 11.372C58.4407 11.372 57.59 11.5847 56.842 12.01C56.094 12.4207 55.5073 13 55.082 13.748C54.6713 14.496 54.466 15.3467 54.466 16.3C54.466 17.2533 54.6713 18.104 55.082 18.852C55.5073 19.6 56.094 20.1867 56.842 20.612C57.59 21.0227 58.4407 21.228 59.394 21.228C60.934 21.228 62.2247 20.6193 63.266 19.402L65.554 21.514C64.8207 22.4087 63.9113 23.0907 62.826 23.56C61.7407 24.0293 60.5307 24.264 59.196 24.264ZM67.7188 7.676H71.1508V24H67.7188V7.676ZM85.93 18.126C85.93 18.17 85.908 18.478 85.864 19.05H76.91C77.0713 19.7833 77.4526 20.3627 78.054 20.788C78.6553 21.2133 79.4033 21.426 80.298 21.426C80.914 21.426 81.4566 21.338 81.926 21.162C82.41 20.9713 82.8573 20.678 83.268 20.282L85.094 22.262C83.9793 23.538 82.3513 24.176 80.21 24.176C78.8753 24.176 77.6946 23.9193 76.668 23.406C75.6413 22.878 74.8493 22.152 74.292 21.228C73.7346 20.304 73.456 19.2553 73.456 18.082C73.456 16.9233 73.7273 15.882 74.27 14.958C74.8273 14.0193 75.5826 13.2933 76.536 12.78C77.504 12.252 78.582 11.988 79.77 11.988C80.9286 11.988 81.9773 12.2373 82.916 12.736C83.8546 13.2347 84.588 13.9533 85.116 14.892C85.6586 15.816 85.93 16.894 85.93 18.126ZM79.792 14.584C79.0146 14.584 78.362 14.804 77.834 15.244C77.306 15.684 76.9833 16.2853 76.866 17.048H82.696C82.5786 16.3 82.256 15.706 81.728 15.266C81.2 14.8113 80.5546 14.584 79.792 14.584ZM92.6666 11.988C94.4999 11.988 95.9079 12.428 96.8906 13.308C97.8733 14.1733 98.3646 15.486 98.3646 17.246V24H95.1526V22.526C94.5073 23.626 93.3046 24.176 91.5446 24.176C90.6353 24.176 89.8433 24.022 89.1686 23.714C88.5086 23.406 88.0026 22.9807 87.6506 22.438C87.2986 21.8953 87.1226 21.2793 87.1226 20.59C87.1226 19.49 87.5333 18.6247 88.3546 17.994C89.1906 17.3633 90.4739 17.048 92.2046 17.048H94.9326C94.9326 16.3 94.7053 15.728 94.2506 15.332C93.7959 14.9213 93.1139 14.716 92.2046 14.716C91.5739 14.716 90.9506 14.8187 90.3346 15.024C89.7333 15.2147 89.2199 15.4787 88.7946 15.816L87.5626 13.418C88.2079 12.9633 88.9779 12.6113 89.8726 12.362C90.7819 12.1127 91.7133 11.988 92.6666 11.988ZM92.4026 21.866C92.9893 21.866 93.5099 21.734 93.9646 21.47C94.4193 21.1913 94.7419 20.788 94.9326 20.26V19.05H92.5786C91.1706 19.05 90.4666 19.512 90.4666 20.436C90.4666 20.876 90.6353 21.228 90.9726 21.492C91.3246 21.7413 91.8013 21.866 92.4026 21.866ZM104.749 13.726C105.159 13.154 105.709 12.7213 106.399 12.428C107.103 12.1347 107.909 11.988 108.819 11.988V15.156C108.437 15.1267 108.181 15.112 108.049 15.112C107.066 15.112 106.296 15.3907 105.739 15.948C105.181 16.4907 104.903 17.312 104.903 18.412V24H101.471V12.164H104.749V13.726ZM114.884 24.176C113.902 24.176 112.941 24.0587 112.002 23.824C111.064 23.5747 110.316 23.2667 109.758 22.9L110.902 20.436C111.43 20.7733 112.068 21.052 112.816 21.272C113.564 21.4773 114.298 21.58 115.016 21.58C116.468 21.58 117.194 21.2207 117.194 20.502C117.194 20.1647 116.996 19.9227 116.6 19.776C116.204 19.6293 115.596 19.5047 114.774 19.402C113.806 19.2553 113.007 19.0867 112.376 18.896C111.746 18.7053 111.196 18.368 110.726 17.884C110.272 17.4 110.044 16.7107 110.044 15.816C110.044 15.068 110.257 14.408 110.682 13.836C111.122 13.2493 111.753 12.7947 112.574 12.472C113.41 12.1493 114.393 11.988 115.522 11.988C116.358 11.988 117.187 12.0833 118.008 12.274C118.844 12.45 119.534 12.6993 120.076 13.022L118.932 15.464C117.891 14.8773 116.754 14.584 115.522 14.584C114.789 14.584 114.239 14.6867 113.872 14.892C113.506 15.0973 113.322 15.3613 113.322 15.684C113.322 16.0507 113.52 16.3073 113.916 16.454C114.312 16.6007 114.943 16.74 115.808 16.872C116.776 17.0333 117.568 17.2093 118.184 17.4C118.8 17.576 119.336 17.906 119.79 18.39C120.245 18.874 120.472 19.5487 120.472 20.414C120.472 21.1473 120.252 21.8 119.812 22.372C119.372 22.944 118.727 23.3913 117.876 23.714C117.04 24.022 116.043 24.176 114.884 24.176ZM122.59 12.164H126.022V24H122.59V12.164ZM124.306 10.514C123.675 10.514 123.162 10.3307 122.766 9.964C122.37 9.59733 122.172 9.14267 122.172 8.6C122.172 8.05733 122.37 7.60267 122.766 7.236C123.162 6.86933 123.675 6.686 124.306 6.686C124.937 6.686 125.45 6.862 125.846 7.214C126.242 7.566 126.44 8.006 126.44 8.534C126.44 9.106 126.242 9.58267 125.846 9.964C125.45 10.3307 124.937 10.514 124.306 10.514ZM141.417 12.164V22.02C141.417 24.1907 140.852 25.804 139.723 26.86C138.594 27.916 136.944 28.444 134.773 28.444C133.629 28.444 132.544 28.3047 131.517 28.026C130.49 27.7473 129.64 27.344 128.965 26.816L130.329 24.352C130.828 24.7627 131.458 25.0853 132.221 25.32C132.984 25.5693 133.746 25.694 134.509 25.694C135.697 25.694 136.57 25.4227 137.127 24.88C137.699 24.352 137.985 23.5453 137.985 22.46V21.954C137.09 22.9367 135.844 23.428 134.245 23.428C133.16 23.428 132.162 23.1933 131.253 22.724C130.358 22.24 129.647 21.5653 129.119 20.7C128.591 19.8347 128.327 18.8373 128.327 17.708C128.327 16.5787 128.591 15.5813 129.119 14.716C129.647 13.8507 130.358 13.1833 131.253 12.714C132.162 12.23 133.16 11.988 134.245 11.988C135.961 11.988 137.266 12.5527 138.161 13.682V12.164H141.417ZM134.927 20.612C135.836 20.612 136.577 20.348 137.149 19.82C137.736 19.2773 138.029 18.5733 138.029 17.708C138.029 16.8427 137.736 16.146 137.149 15.618C136.577 15.0753 135.836 14.804 134.927 14.804C134.018 14.804 133.27 15.0753 132.683 15.618C132.096 16.146 131.803 16.8427 131.803 17.708C131.803 18.5733 132.096 19.2773 132.683 19.82C133.27 20.348 134.018 20.612 134.927 20.612ZM151.805 11.988C153.272 11.988 154.453 12.428 155.347 13.308C156.257 14.188 156.711 15.4933 156.711 17.224V24H153.279V17.752C153.279 16.8133 153.074 16.1167 152.663 15.662C152.253 15.1927 151.659 14.958 150.881 14.958C150.016 14.958 149.327 15.2293 148.813 15.772C148.3 16.3 148.043 17.092 148.043 18.148V24H144.611V7.676H148.043V13.396C148.498 12.9413 149.048 12.5967 149.693 12.362C150.339 12.1127 151.043 11.988 151.805 11.988ZM167.456 23.428C167.119 23.6773 166.701 23.868 166.202 24C165.718 24.1173 165.205 24.176 164.662 24.176C163.254 24.176 162.162 23.8167 161.384 23.098C160.622 22.3793 160.24 21.3233 160.24 19.93V15.068H158.414V12.428H160.24V9.546H163.672V12.428H166.62V15.068H163.672V19.886C163.672 20.3847 163.797 20.7733 164.046 21.052C164.31 21.316 164.677 21.448 165.146 21.448C165.689 21.448 166.151 21.3013 166.532 21.008L167.456 23.428ZM175.855 8.6H182.851C184.523 8.6 185.997 8.92267 187.273 9.568C188.564 10.1987 189.561 11.0933 190.265 12.252C190.984 13.4107 191.343 14.76 191.343 16.3C191.343 17.84 190.984 19.1893 190.265 20.348C189.561 21.5067 188.564 22.4087 187.273 23.054C185.997 23.6847 184.523 24 182.851 24H175.855V8.6ZM182.675 21.074C184.215 21.074 185.44 20.6487 186.349 19.798C187.273 18.9327 187.735 17.7667 187.735 16.3C187.735 14.8333 187.273 13.6747 186.349 12.824C185.44 11.9587 184.215 11.526 182.675 11.526H179.419V21.074H182.675ZM193.789 12.164H197.221V24H193.789V12.164ZM195.505 10.514C194.874 10.514 194.361 10.3307 193.965 9.964C193.569 9.59733 193.371 9.14267 193.371 8.6C193.371 8.05733 193.569 7.60267 193.965 7.236C194.361 6.86933 194.874 6.686 195.505 6.686C196.136 6.686 196.649 6.862 197.045 7.214C197.441 7.566 197.639 8.006 197.639 8.534C197.639 9.106 197.441 9.58267 197.045 9.964C196.649 10.3307 196.136 10.514 195.505 10.514ZM212.616 12.164V22.02C212.616 24.1907 212.052 25.804 210.922 26.86C209.793 27.916 208.143 28.444 205.972 28.444C204.828 28.444 203.743 28.3047 202.716 28.026C201.69 27.7473 200.839 27.344 200.164 26.816L201.528 24.352C202.027 24.7627 202.658 25.0853 203.42 25.32C204.183 25.5693 204.946 25.694 205.708 25.694C206.896 25.694 207.769 25.4227 208.326 24.88C208.898 24.352 209.184 23.5453 209.184 22.46V21.954C208.29 22.9367 207.043 23.428 205.444 23.428C204.359 23.428 203.362 23.1933 202.452 22.724C201.558 22.24 200.846 21.5653 200.318 20.7C199.79 19.8347 199.526 18.8373 199.526 17.708C199.526 16.5787 199.79 15.5813 200.318 14.716C200.846 13.8507 201.558 13.1833 202.452 12.714C203.362 12.23 204.359 11.988 205.444 11.988C207.16 11.988 208.466 12.5527 209.36 13.682V12.164H212.616ZM206.126 20.612C207.036 20.612 207.776 20.348 208.348 19.82C208.935 19.2773 209.228 18.5733 209.228 17.708C209.228 16.8427 208.935 16.146 208.348 15.618C207.776 15.0753 207.036 14.804 206.126 14.804C205.217 14.804 204.469 15.0753 203.882 15.618C203.296 16.146 203.002 16.8427 203.002 17.708C203.002 18.5733 203.296 19.2773 203.882 19.82C204.469 20.348 205.217 20.612 206.126 20.612ZM215.811 12.164H219.243V24H215.811V12.164ZM217.527 10.514C216.896 10.514 216.383 10.3307 215.987 9.964C215.591 9.59733 215.393 9.14267 215.393 8.6C215.393 8.05733 215.591 7.60267 215.987 7.236C216.383 6.86933 216.896 6.686 217.527 6.686C218.157 6.686 218.671 6.862 219.067 7.214C219.463 7.566 219.661 8.006 219.661 8.534C219.661 9.106 219.463 9.58267 219.067 9.964C218.671 10.3307 218.157 10.514 217.527 10.514ZM230.062 23.428C229.724 23.6773 229.306 23.868 228.808 24C228.324 24.1173 227.81 24.176 227.268 24.176C225.86 24.176 224.767 23.8167 223.99 23.098C223.227 22.3793 222.846 21.3233 222.846 19.93V15.068H221.02V12.428H222.846V9.546H226.278V12.428H229.226V15.068H226.278V19.886C226.278 20.3847 226.402 20.7733 226.652 21.052C226.916 21.316 227.282 21.448 227.752 21.448C228.294 21.448 228.756 21.3013 229.138 21.008L230.062 23.428ZM236.762 11.988C238.596 11.988 240.004 12.428 240.986 13.308C241.969 14.1733 242.46 15.486 242.46 17.246V24H239.248V22.526C238.603 23.626 237.4 24.176 235.64 24.176C234.731 24.176 233.939 24.022 233.264 23.714C232.604 23.406 232.098 22.9807 231.746 22.438C231.394 21.8953 231.218 21.2793 231.218 20.59C231.218 19.49 231.629 18.6247 232.45 17.994C233.286 17.3633 234.57 17.048 236.3 17.048H239.028C239.028 16.3 238.801 15.728 238.346 15.332C237.892 14.9213 237.21 14.716 236.3 14.716C235.67 14.716 235.046 14.8187 234.43 15.024C233.829 15.2147 233.316 15.4787 232.89 15.816L231.658 13.418C232.304 12.9633 233.074 12.6113 233.968 12.362C234.878 12.1127 235.809 11.988 236.762 11.988ZM236.498 21.866C237.085 21.866 237.606 21.734 238.06 21.47C238.515 21.1913 238.838 20.788 239.028 20.26V19.05H236.674C235.266 19.05 234.562 19.512 234.562 20.436C234.562 20.876 234.731 21.228 235.068 21.492C235.42 21.7413 235.897 21.866 236.498 21.866ZM245.566 7.676H248.998V24H245.566V7.676Z" fill="white"/>
<rect x="16" y="0.201019" width="22.4853" height="22.4853" rx="5" transform="rotate(45 16 0.201019)" fill="white"/>
<rect x="13" y="13" width="6" height="6" fill="#FF9E39"/>
</svg>
