<svg width="251" height="32" viewBox="0 0 251 32" fill="none" xmlns="http://www.w3.org/2000/svg">
<path d="M59.196 24.0631C57.6267 24.0631 56.204 23.7257 54.928 23.0511C53.6667 22.3617 52.6693 21.4157 51.936 20.2131C51.2173 18.9957 50.858 17.6244 50.858 16.0991C50.858 14.5737 51.2173 13.2097 51.936 12.0071C52.6693 10.7897 53.6667 9.84374 54.928 9.16907C56.204 8.47974 57.634 8.13507 59.218 8.13507C60.5527 8.13507 61.7553 8.36974 62.826 8.83907C63.9113 9.30841 64.8207 9.98307 65.554 10.8631L63.266 12.9751C62.2247 11.7724 60.934 11.1711 59.394 11.1711C58.4407 11.1711 57.59 11.3837 56.842 11.8091C56.094 12.2197 55.5073 12.7991 55.082 13.5471C54.6713 14.2951 54.466 15.1457 54.466 16.0991C54.466 17.0524 54.6713 17.9031 55.082 18.6511C55.5073 19.3991 56.094 19.9857 56.842 20.4111C57.59 20.8217 58.4407 21.0271 59.394 21.0271C60.934 21.0271 62.2247 20.4184 63.266 19.2011L65.554 21.3131C64.8207 22.2077 63.9113 22.8897 62.826 23.3591C61.7407 23.8284 60.5307 24.0631 59.196 24.0631ZM67.7188 7.47507H71.1508V23.7991H67.7188V7.47507ZM85.93 17.9251C85.93 17.9691 85.908 18.2771 85.864 18.8491H76.91C77.0713 19.5824 77.4526 20.1617 78.054 20.5871C78.6553 21.0124 79.4033 21.2251 80.298 21.2251C80.914 21.2251 81.4566 21.1371 81.926 20.9611C82.41 20.7704 82.8573 20.4771 83.268 20.0811L85.094 22.0611C83.9793 23.3371 82.3513 23.9751 80.21 23.9751C78.8753 23.9751 77.6946 23.7184 76.668 23.2051C75.6413 22.6771 74.8493 21.9511 74.292 21.0271C73.7346 20.1031 73.456 19.0544 73.456 17.8811C73.456 16.7224 73.7273 15.6811 74.27 14.7571C74.8273 13.8184 75.5826 13.0924 76.536 12.5791C77.504 12.0511 78.582 11.7871 79.77 11.7871C80.9286 11.7871 81.9773 12.0364 82.916 12.5351C83.8546 13.0337 84.588 13.7524 85.116 14.6911C85.6586 15.6151 85.93 16.6931 85.93 17.9251ZM79.792 14.3831C79.0146 14.3831 78.362 14.6031 77.834 15.0431C77.306 15.4831 76.9833 16.0844 76.866 16.8471H82.696C82.5786 16.0991 82.256 15.5051 81.728 15.0651C81.2 14.6104 80.5546 14.3831 79.792 14.3831ZM92.6666 11.7871C94.4999 11.7871 95.9079 12.2271 96.8906 13.1071C97.8733 13.9724 98.3646 15.2851 98.3646 17.0451V23.7991H95.1526V22.3251C94.5073 23.4251 93.3046 23.9751 91.5446 23.9751C90.6353 23.9751 89.8433 23.8211 89.1686 23.5131C88.5086 23.2051 88.0026 22.7797 87.6506 22.2371C87.2986 21.6944 87.1226 21.0784 87.1226 20.3891C87.1226 19.2891 87.5333 18.4237 88.3546 17.7931C89.1906 17.1624 90.4739 16.8471 92.2046 16.8471H94.9326C94.9326 16.0991 94.7053 15.5271 94.2506 15.1311C93.7959 14.7204 93.1139 14.5151 92.2046 14.5151C91.5739 14.5151 90.9506 14.6177 90.3346 14.8231C89.7333 15.0137 89.2199 15.2777 88.7946 15.6151L87.5626 13.2171C88.2079 12.7624 88.9779 12.4104 89.8726 12.1611C90.7819 11.9117 91.7133 11.7871 92.6666 11.7871ZM92.4026 21.6651C92.9893 21.6651 93.5099 21.5331 93.9646 21.2691C94.4193 20.9904 94.7419 20.5871 94.9326 20.0591V18.8491H92.5786C91.1706 18.8491 90.4666 19.3111 90.4666 20.2351C90.4666 20.6751 90.6353 21.0271 90.9726 21.2911C91.3246 21.5404 91.8013 21.6651 92.4026 21.6651ZM104.749 13.5251C105.159 12.9531 105.709 12.5204 106.399 12.2271C107.103 11.9337 107.909 11.7871 108.819 11.7871V14.9551C108.437 14.9257 108.181 14.9111 108.049 14.9111C107.066 14.9111 106.296 15.1897 105.739 15.7471C105.181 16.2897 104.903 17.1111 104.903 18.2111V23.7991H101.471V11.9631H104.749V13.5251ZM114.884 23.9751C113.902 23.9751 112.941 23.8577 112.002 23.6231C111.064 23.3737 110.316 23.0657 109.758 22.6991L110.902 20.2351C111.43 20.5724 112.068 20.8511 112.816 21.0711C113.564 21.2764 114.298 21.3791 115.016 21.3791C116.468 21.3791 117.194 21.0197 117.194 20.3011C117.194 19.9637 116.996 19.7217 116.6 19.5751C116.204 19.4284 115.596 19.3037 114.774 19.2011C113.806 19.0544 113.007 18.8857 112.376 18.6951C111.746 18.5044 111.196 18.1671 110.726 17.6831C110.272 17.1991 110.044 16.5097 110.044 15.6151C110.044 14.8671 110.257 14.2071 110.682 13.6351C111.122 13.0484 111.753 12.5937 112.574 12.2711C113.41 11.9484 114.393 11.7871 115.522 11.7871C116.358 11.7871 117.187 11.8824 118.008 12.0731C118.844 12.2491 119.534 12.4984 120.076 12.8211L118.932 15.2631C117.891 14.6764 116.754 14.3831 115.522 14.3831C114.789 14.3831 114.239 14.4857 113.872 14.6911C113.506 14.8964 113.322 15.1604 113.322 15.4831C113.322 15.8497 113.52 16.1064 113.916 16.2531C114.312 16.3997 114.943 16.5391 115.808 16.6711C116.776 16.8324 117.568 17.0084 118.184 17.1991C118.8 17.3751 119.336 17.7051 119.79 18.1891C120.245 18.6731 120.472 19.3477 120.472 20.2131C120.472 20.9464 120.252 21.5991 119.812 22.1711C119.372 22.7431 118.727 23.1904 117.876 23.5131C117.04 23.8211 116.043 23.9751 114.884 23.9751ZM122.59 11.9631H126.022V23.7991H122.59V11.9631ZM124.306 10.3131C123.675 10.3131 123.162 10.1297 122.766 9.76307C122.37 9.3964 122.172 8.94174 122.172 8.39907C122.172 7.8564 122.37 7.40174 122.766 7.03507C123.162 6.6684 123.675 6.48507 124.306 6.48507C124.937 6.48507 125.45 6.66107 125.846 7.01307C126.242 7.36507 126.44 7.80507 126.44 8.33307C126.44 8.90507 126.242 9.38174 125.846 9.76307C125.45 10.1297 124.937 10.3131 124.306 10.3131ZM141.417 11.9631V21.8191C141.417 23.9897 140.852 25.6031 139.723 26.6591C138.594 27.7151 136.944 28.2431 134.773 28.2431C133.629 28.2431 132.544 28.1037 131.517 27.8251C130.49 27.5464 129.64 27.1431 128.965 26.6151L130.329 24.1511C130.828 24.5617 131.458 24.8844 132.221 25.1191C132.984 25.3684 133.746 25.4931 134.509 25.4931C135.697 25.4931 136.57 25.2217 137.127 24.6791C137.699 24.1511 137.985 23.3444 137.985 22.2591V21.7531C137.09 22.7357 135.844 23.2271 134.245 23.2271C133.16 23.2271 132.162 22.9924 131.253 22.5231C130.358 22.0391 129.647 21.3644 129.119 20.4991C128.591 19.6337 128.327 18.6364 128.327 17.5071C128.327 16.3777 128.591 15.3804 129.119 14.5151C129.647 13.6497 130.358 12.9824 131.253 12.5131C132.162 12.0291 133.16 11.7871 134.245 11.7871C135.961 11.7871 137.266 12.3517 138.161 13.4811V11.9631H141.417ZM134.927 20.4111C135.836 20.4111 136.577 20.1471 137.149 19.6191C137.736 19.0764 138.029 18.3724 138.029 17.5071C138.029 16.6417 137.736 15.9451 137.149 15.4171C136.577 14.8744 135.836 14.6031 134.927 14.6031C134.018 14.6031 133.27 14.8744 132.683 15.4171C132.096 15.9451 131.803 16.6417 131.803 17.5071C131.803 18.3724 132.096 19.0764 132.683 19.6191C133.27 20.1471 134.018 20.4111 134.927 20.4111ZM151.805 11.7871C153.272 11.7871 154.453 12.2271 155.347 13.1071C156.257 13.9871 156.711 15.2924 156.711 17.0231V23.7991H153.279V17.5511C153.279 16.6124 153.074 15.9157 152.663 15.4611C152.253 14.9917 151.659 14.7571 150.881 14.7571C150.016 14.7571 149.327 15.0284 148.813 15.5711C148.3 16.0991 148.043 16.8911 148.043 17.9471V23.7991H144.611V7.47507H148.043V13.1951C148.498 12.7404 149.048 12.3957 149.693 12.1611C150.339 11.9117 151.043 11.7871 151.805 11.7871ZM167.456 23.2271C167.119 23.4764 166.701 23.6671 166.202 23.7991C165.718 23.9164 165.205 23.9751 164.662 23.9751C163.254 23.9751 162.162 23.6157 161.384 22.8971C160.622 22.1784 160.24 21.1224 160.24 19.7291V14.8671H158.414V12.2271H160.24V9.34507H163.672V12.2271H166.62V14.8671H163.672V19.6851C163.672 20.1837 163.797 20.5724 164.046 20.8511C164.31 21.1151 164.677 21.2471 165.146 21.2471C165.689 21.2471 166.151 21.1004 166.532 20.8071L167.456 23.2271ZM175.855 8.39907H182.851C184.523 8.39907 185.997 8.72174 187.273 9.36707C188.564 9.99774 189.561 10.8924 190.265 12.0511C190.984 13.2097 191.343 14.5591 191.343 16.0991C191.343 17.6391 190.984 18.9884 190.265 20.1471C189.561 21.3057 188.564 22.2077 187.273 22.8531C185.997 23.4837 184.523 23.7991 182.851 23.7991H175.855V8.39907ZM182.675 20.8731C184.215 20.8731 185.44 20.4477 186.349 19.5971C187.273 18.7317 187.735 17.5657 187.735 16.0991C187.735 14.6324 187.273 13.4737 186.349 12.6231C185.44 11.7577 184.215 11.3251 182.675 11.3251H179.419V20.8731H182.675ZM193.789 11.9631H197.221V23.7991H193.789V11.9631ZM195.505 10.3131C194.874 10.3131 194.361 10.1297 193.965 9.76307C193.569 9.3964 193.371 8.94174 193.371 8.39907C193.371 7.8564 193.569 7.40174 193.965 7.03507C194.361 6.6684 194.874 6.48507 195.505 6.48507C196.136 6.48507 196.649 6.66107 197.045 7.01307C197.441 7.36507 197.639 7.80507 197.639 8.33307C197.639 8.90507 197.441 9.38174 197.045 9.76307C196.649 10.1297 196.136 10.3131 195.505 10.3131ZM212.616 11.9631V21.8191C212.616 23.9897 212.052 25.6031 210.922 26.6591C209.793 27.7151 208.143 28.2431 205.972 28.2431C204.828 28.2431 203.743 28.1037 202.716 27.8251C201.69 27.5464 200.839 27.1431 200.164 26.6151L201.528 24.1511C202.027 24.5617 202.658 24.8844 203.42 25.1191C204.183 25.3684 204.946 25.4931 205.708 25.4931C206.896 25.4931 207.769 25.2217 208.326 24.6791C208.898 24.1511 209.184 23.3444 209.184 22.2591V21.7531C208.29 22.7357 207.043 23.2271 205.444 23.2271C204.359 23.2271 203.362 22.9924 202.452 22.5231C201.558 22.0391 200.846 21.3644 200.318 20.4991C199.79 19.6337 199.526 18.6364 199.526 17.5071C199.526 16.3777 199.79 15.3804 200.318 14.5151C200.846 13.6497 201.558 12.9824 202.452 12.5131C203.362 12.0291 204.359 11.7871 205.444 11.7871C207.16 11.7871 208.466 12.3517 209.36 13.4811V11.9631H212.616ZM206.126 20.4111C207.036 20.4111 207.776 20.1471 208.348 19.6191C208.935 19.0764 209.228 18.3724 209.228 17.5071C209.228 16.6417 208.935 15.9451 208.348 15.4171C207.776 14.8744 207.036 14.6031 206.126 14.6031C205.217 14.6031 204.469 14.8744 203.882 15.4171C203.296 15.9451 203.002 16.6417 203.002 17.5071C203.002 18.3724 203.296 19.0764 203.882 19.6191C204.469 20.1471 205.217 20.4111 206.126 20.4111ZM215.811 11.9631H219.243V23.7991H215.811V11.9631ZM217.527 10.3131C216.896 10.3131 216.383 10.1297 215.987 9.76307C215.591 9.3964 215.393 8.94174 215.393 8.39907C215.393 7.8564 215.591 7.40174 215.987 7.03507C216.383 6.6684 216.896 6.48507 217.527 6.48507C218.157 6.48507 218.671 6.66107 219.067 7.01307C219.463 7.36507 219.661 7.80507 219.661 8.33307C219.661 8.90507 219.463 9.38174 219.067 9.76307C218.671 10.1297 218.157 10.3131 217.527 10.3131ZM230.062 23.2271C229.724 23.4764 229.306 23.6671 228.808 23.7991C228.324 23.9164 227.81 23.9751 227.268 23.9751C225.86 23.9751 224.767 23.6157 223.99 22.8971C223.227 22.1784 222.846 21.1224 222.846 19.7291V14.8671H221.02V12.2271H222.846V9.34507H226.278V12.2271H229.226V14.8671H226.278V19.6851C226.278 20.1837 226.402 20.5724 226.652 20.8511C226.916 21.1151 227.282 21.2471 227.752 21.2471C228.294 21.2471 228.756 21.1004 229.138 20.8071L230.062 23.2271ZM236.762 11.7871C238.596 11.7871 240.004 12.2271 240.986 13.1071C241.969 13.9724 242.46 15.2851 242.46 17.0451V23.7991H239.248V22.3251C238.603 23.4251 237.4 23.9751 235.64 23.9751C234.731 23.9751 233.939 23.8211 233.264 23.5131C232.604 23.2051 232.098 22.7797 231.746 22.2371C231.394 21.6944 231.218 21.0784 231.218 20.3891C231.218 19.2891 231.629 18.4237 232.45 17.7931C233.286 17.1624 234.57 16.8471 236.3 16.8471H239.028C239.028 16.0991 238.801 15.5271 238.346 15.1311C237.892 14.7204 237.21 14.5151 236.3 14.5151C235.67 14.5151 235.046 14.6177 234.43 14.8231C233.829 15.0137 233.316 15.2777 232.89 15.6151L231.658 13.2171C232.304 12.7624 233.074 12.4104 233.968 12.1611C234.878 11.9117 235.809 11.7871 236.762 11.7871ZM236.498 21.6651C237.085 21.6651 237.606 21.5331 238.06 21.2691C238.515 20.9904 238.838 20.5871 239.028 20.0591V18.8491H236.674C235.266 18.8491 234.562 19.3111 234.562 20.2351C234.562 20.6751 234.731 21.0271 235.068 21.2911C235.42 21.5404 235.897 21.6651 236.498 21.6651ZM245.566 7.47507H248.998V23.7991H245.566V7.47507Z" fill="#0C334C"/>
<rect x="16" width="22.4853" height="22.4853" rx="5" transform="rotate(45 16 0)" fill="#0C334C"/>
<rect x="13" y="12.7991" width="6" height="6" fill="#FF9E39"/>
</svg>
