<svg width="252" height="57" viewBox="0 0 252 57" fill="none" xmlns="http://www.w3.org/2000/svg">
<rect width="252" height="56.1836" rx="10" fill="white"/>
<path d="M169.508 41.3113H72.025C71.3879 41.3113 70.8737 40.797 70.8737 40.16V32.1003C70.8737 31.4633 71.3879 30.949 72.025 30.949H169.508C170.145 30.949 170.659 31.4633 170.659 32.1003V40.16C170.659 40.7932 170.145 41.3113 169.508 41.3113Z" fill="url(#paint0_linear)"/>
<path d="M73.4336 33.106H78.538V34.0194H74.5005V35.8692H78.1197V36.7827H74.5005V38.7784H78.5994V39.6918H73.4374V33.106H73.4336Z" fill="white"/>
<path d="M79.2289 33.106H80.3803L81.9615 37.5311L82.0689 37.8381L82.3184 38.5673H82.3645L82.5755 37.9647C82.6024 37.8765 82.6254 37.792 82.6523 37.7191C82.6792 37.6462 82.6983 37.581 82.7175 37.5234L84.2911 33.1098H85.3849L82.967 39.6918H81.6544L79.2289 33.106Z" fill="white"/>
<path d="M86.233 33.106H91.3375V34.0194H87.3V35.8692H90.9191V36.7827H87.3V38.7784H91.3989V39.6918H86.2369V33.106H86.233Z" fill="white"/>
<path d="M92.6309 33.106H96.0773C96.7604 33.106 97.2824 33.2787 97.6393 33.6241C97.9963 33.9695 98.1766 34.4377 98.1766 35.0364C98.1766 35.4893 98.073 35.8769 97.8696 36.1955C97.6662 36.514 97.3707 36.7481 96.9869 36.8978L98.4453 39.6918H97.2862L95.9353 37.0513H93.6978V39.6918H92.6347V33.106H92.6309ZM96.0082 36.1494C96.346 36.1494 96.6146 36.0535 96.8103 35.8577C97.0061 35.662 97.102 35.3933 97.102 35.0479C97.102 34.7217 97.0099 34.4684 96.8219 34.288C96.6376 34.1077 96.3651 34.0194 96.0082 34.0194H93.6978V36.1494H96.0082Z" fill="white"/>
<path d="M101.285 36.9822L98.7139 33.106H99.9612L101.823 36.0228H101.869L103.722 33.106H104.912L102.352 36.9822V39.688H101.289V36.9822H101.285Z" fill="white"/>
<path d="M106.305 38.9435C105.73 38.3716 105.442 37.5196 105.442 36.3951C105.442 35.2706 105.73 34.4224 106.305 33.8468C106.881 33.2711 107.695 32.9871 108.742 32.9871C109.798 32.9871 110.615 33.2749 111.191 33.8468C111.767 34.4186 112.054 35.2668 112.054 36.3951C112.054 37.5196 111.767 38.3716 111.191 38.9435C110.615 39.5153 109.802 39.8032 108.742 39.8032C107.691 39.8032 106.881 39.5192 106.305 38.9435ZM110.957 36.4642V36.3491C110.949 34.7103 110.212 33.8928 108.742 33.8928C107.276 33.8928 106.543 34.7103 106.536 36.3491V36.4642C106.536 38.0876 107.272 38.9013 108.742 38.9013C110.22 38.9013 110.957 38.0876 110.957 36.4642Z" fill="white"/>
<path d="M113.194 33.106H114.173L117.358 37.3852C117.428 37.4812 117.52 37.6193 117.639 37.7959L117.685 37.7767L117.673 37.297V33.106H118.679V39.688H117.719L114.526 35.3588C114.476 35.2936 114.422 35.2168 114.361 35.1285C114.303 35.0403 114.261 34.975 114.238 34.9366L114.192 34.9443L114.2 35.4317V39.6841H113.194V33.106Z" fill="white"/>
<path d="M120.122 33.106H125.226V34.0194H121.189V35.8692H124.808V36.7827H121.189V38.7784H125.288V39.6918H120.126V33.106H120.122Z" fill="white"/>
<path d="M129.717 38.9589C129.172 38.3947 128.903 37.5427 128.903 36.3952C128.903 35.2553 129.175 34.4033 129.717 33.8391C130.262 33.275 131.056 32.991 132.108 32.991C132.963 32.991 133.658 33.2059 134.184 33.6357C134.71 34.0656 134.975 34.6873 134.975 35.5086H133.888C133.888 34.9905 133.727 34.5914 133.409 34.315C133.09 34.0387 132.656 33.8967 132.111 33.8967C131.39 33.8967 130.856 34.0924 130.515 34.4878C130.173 34.8792 129.997 35.501 129.993 36.3453V36.4489C129.993 37.3009 130.166 37.9227 130.511 38.3141C130.856 38.7094 131.39 38.9052 132.111 38.9052C132.676 38.9052 133.117 38.7709 133.439 38.4984C133.762 38.2259 133.923 37.8306 133.923 37.3125H134.971C134.971 38.1376 134.71 38.7593 134.184 39.1777C133.658 39.596 132.967 39.8071 132.104 39.8071C131.056 39.8033 130.258 39.5231 129.717 38.9589Z" fill="white"/>
<path d="M136.69 38.9435C136.114 38.3716 135.826 37.5196 135.826 36.3951C135.826 35.2706 136.114 34.4224 136.69 33.8468C137.266 33.2711 138.079 32.9871 139.127 32.9871C140.182 32.9871 141 33.2749 141.576 33.8468C142.151 34.4186 142.439 35.2668 142.439 36.3951C142.439 37.5196 142.151 38.3716 141.576 38.9435C141 39.5153 140.186 39.8032 139.127 39.8032C138.079 39.8032 137.266 39.5192 136.69 38.9435ZM141.345 36.4642V36.3491C141.338 34.7103 140.601 33.8928 139.131 33.8928C137.665 33.8928 136.932 34.7103 136.924 36.3491V36.4642C136.924 38.0876 137.661 38.9013 139.131 38.9013C140.605 38.9013 141.345 38.0876 141.345 36.4642Z" fill="white"/>
<path d="M144.293 39.1698C143.817 38.7477 143.579 38.1067 143.579 37.2509V33.106H144.642V37.2701C144.642 37.7997 144.788 38.2065 145.08 38.4829C145.371 38.763 145.782 38.9012 146.312 38.9012C146.849 38.9012 147.263 38.763 147.559 38.4829C147.855 38.2065 148 37.7997 148 37.2701V33.106H149.063V37.2509C149.063 38.1067 148.826 38.7477 148.35 39.1698C147.874 39.592 147.194 39.8031 146.312 39.8031C145.444 39.8031 144.773 39.592 144.293 39.1698Z" fill="white"/>
<path d="M150.506 33.106H151.485L154.671 37.3852C154.74 37.4812 154.832 37.6193 154.951 37.7959L154.997 37.7767L154.985 37.297V33.106H155.991V39.688H155.031L151.838 35.3588C151.788 35.2936 151.735 35.2168 151.673 35.1285C151.616 35.0403 151.573 34.975 151.55 34.9366L151.504 34.9443L151.512 35.4317V39.6841H150.506V33.106Z" fill="white"/>
<path d="M159.115 34.0271H156.927V33.106H162.369V34.0271H160.182V39.688H159.119V34.0271H159.115Z" fill="white"/>
<path d="M163.797 39.3081C163.287 38.978 163.03 38.4791 163.03 37.8075L163.041 37.6041H164.096C164.096 37.6156 164.093 37.6424 164.085 37.677C164.077 37.7115 164.077 37.7537 164.077 37.796C164.077 38.1529 164.227 38.4292 164.53 38.6173C164.83 38.8053 165.236 38.9013 165.747 38.9013C166.311 38.9013 166.737 38.8168 167.025 38.6518C167.313 38.4868 167.455 38.245 167.455 37.9303C167.455 37.7077 167.378 37.5235 167.221 37.3776C167.063 37.2318 166.867 37.1205 166.626 37.0322C166.384 36.9439 166.061 36.848 165.651 36.7405C165.133 36.6062 164.711 36.4719 164.38 36.3414C164.05 36.2109 163.77 36.019 163.54 35.7657C163.31 35.5124 163.195 35.1823 163.195 34.7717C163.195 34.1883 163.433 33.747 163.916 33.4438C164.396 33.1406 165.021 32.9871 165.789 32.9871C166.545 32.9871 167.155 33.1444 167.627 33.4591C168.096 33.7738 168.334 34.2421 168.334 34.8676V34.9828H167.297V34.8561C167.297 34.5491 167.159 34.3111 166.887 34.1423C166.61 33.9734 166.253 33.889 165.812 33.889C165.34 33.889 164.964 33.9581 164.684 34.1001C164.404 34.2421 164.265 34.4455 164.265 34.7141C164.265 34.9137 164.342 35.0787 164.496 35.2092C164.649 35.3397 164.841 35.4472 165.071 35.5316C165.302 35.616 165.616 35.7081 166.012 35.8118C166.549 35.9538 166.983 36.0881 167.313 36.2147C167.643 36.3414 167.927 36.5333 168.161 36.7866C168.395 37.0399 168.518 37.3699 168.518 37.7806C168.518 38.4829 168.272 38.9972 167.777 39.3196C167.286 39.642 166.614 39.8032 165.762 39.8032C164.96 39.8032 164.308 39.6382 163.797 39.3081Z" fill="white"/>
<path d="M63.1978 22.8892H39.2761C38.639 22.8892 38.1248 22.3749 38.1248 21.7378V16.7485C38.1248 16.1114 38.639 15.5972 39.2761 15.5972H63.1978C63.8349 15.5972 64.3492 16.1114 64.3492 16.7485V21.7378C64.3492 22.3711 63.8349 22.8892 63.1978 22.8892Z" fill="url(#paint1_linear)"/>
<path d="M63.1978 32.1001H39.2761C38.639 32.1001 38.1248 31.5858 38.1248 30.9488V25.9595C38.1248 25.3224 38.639 24.8081 39.2761 24.8081H63.1978C63.8349 24.8081 64.3492 25.3224 64.3492 25.9595V30.9488C64.3492 31.582 63.8349 32.1001 63.1978 32.1001Z" fill="url(#paint2_linear)"/>
<path d="M63.1978 41.3111H39.2761C38.639 41.3111 38.1248 40.7968 38.1248 40.1597V35.1704C38.1248 34.5333 38.639 34.019 39.2761 34.019H63.1978C63.8349 34.019 64.3492 34.5333 64.3492 35.1704V40.1597C64.3492 40.793 63.8349 41.3111 63.1978 41.3111Z" fill="url(#paint3_linear)"/>
<path d="M35.1811 22.8892H30.1918C29.5547 22.8892 29.0404 22.3749 29.0404 21.7378V16.7485C29.0404 16.1114 29.5547 15.5972 30.1918 15.5972H35.1811C35.8182 15.5972 36.3324 16.1114 36.3324 16.7485V21.7378C36.3324 22.3711 35.8182 22.8892 35.1811 22.8892Z" fill="url(#paint4_linear)"/>
<path d="M35.1811 32.1001H30.1918C29.5547 32.1001 29.0404 31.5858 29.0404 30.9488V25.9595C29.0404 25.3224 29.5547 24.8081 30.1918 24.8081H35.1811C35.8182 24.8081 36.3324 25.3224 36.3324 25.9595V30.9488C36.3324 31.582 35.8182 32.1001 35.1811 32.1001Z" fill="url(#paint5_linear)"/>
<path d="M35.1811 41.3111H30.1918C29.5547 41.3111 29.0404 40.7968 29.0404 40.1597V35.1704C29.0404 34.5333 29.5547 34.019 30.1918 34.019H35.1811C35.8182 34.019 36.3324 34.5333 36.3324 35.1704V40.1597C36.3324 40.793 35.8182 41.3111 35.1811 41.3111Z" fill="url(#paint6_linear)"/>
<path d="M25.9701 22.8894H20.9808C20.3437 22.8894 19.8295 22.3752 19.8295 21.7381V16.7488C19.8295 16.1117 20.3437 15.5974 20.9808 15.5974H25.9701C26.6072 15.5974 27.1215 16.1117 27.1215 16.7488V21.7381C27.1215 22.3713 26.6072 22.8894 25.9701 22.8894Z" fill="url(#paint7_linear)"/>
<path d="M25.9701 32.1001H20.9808C20.3437 32.1001 19.8295 31.5858 19.8295 30.9488V25.9595C19.8295 25.3224 20.3437 24.8081 20.9808 24.8081H25.9701C26.6072 24.8081 27.1215 25.3224 27.1215 25.9595V30.9488C27.1215 31.582 26.6072 32.1001 25.9701 32.1001Z" fill="url(#paint8_linear)"/>
<path d="M25.9701 41.3111H20.9808C20.3437 41.3111 19.8295 40.7968 19.8295 40.1597V35.1704C19.8295 34.5333 20.3437 34.019 20.9808 34.019H25.9701C26.6072 34.019 27.1215 34.5333 27.1215 35.1704V40.1597C27.1215 40.793 26.6072 41.3111 25.9701 41.3111Z" fill="url(#paint9_linear)"/>
<path d="M20.7352 19.5272L22.658 21.6573L26.3539 17.5776L25.8243 16.998L22.658 20.4905L21.2572 18.94L20.7352 19.5272Z" fill="white"/>
<path d="M29.9462 28.7384L31.869 30.8684L35.5649 26.7888L35.0352 26.2092L31.869 29.7017L30.4681 28.1512L29.9462 28.7384Z" fill="white"/>
<path d="M71.3457 29.1185V15.1255H75.8399V29.1185H71.3457Z" fill="url(#paint10_linear)"/>
<path d="M91.0764 29.1185V24.0755C91.0764 23.4537 91.0995 22.8128 91.1493 22.1527C91.1954 21.4964 91.2491 20.9438 91.3029 20.4947C91.3566 20.0457 91.3911 19.7617 91.4026 19.6389H91.322L88.7391 29.1185H85.2198L82.6177 19.6581H82.5371C82.5524 19.7809 82.587 20.061 82.6484 20.5024C82.7098 20.9438 82.7674 21.4926 82.8211 22.1489C82.8748 22.8051 82.9017 23.4461 82.9017 24.0717V29.1185H78.7721V15.1255H85.12L87.2347 23.2004H87.3153L89.4108 15.1255H95.5322V29.1185H91.0764Z" fill="url(#paint11_linear)"/>
<path d="M108.428 15.7242C109.107 16.1233 109.633 16.6722 110.013 17.3707C110.393 18.0692 110.581 18.8521 110.581 19.7195V19.9843C110.581 20.8516 110.389 21.6384 110.013 22.3446C109.633 23.0508 109.103 23.6034 108.428 24.0026C107.748 24.4017 106.977 24.6013 106.109 24.6013H102.751V29.1185H98.2571V15.1255H106.109C106.977 15.1255 107.748 15.3251 108.428 15.7242ZM102.751 21.3275H104.601C105.077 21.3275 105.43 21.2047 105.668 20.9591C105.906 20.7135 106.025 20.3834 106.025 19.9613V19.8001C106.025 19.3664 105.906 19.0325 105.668 18.7945C105.43 18.5566 105.073 18.4376 104.601 18.4376H102.751V21.3275Z" fill="url(#paint12_linear)"/>
<path d="M120.594 29.1185L120.003 27.1458H115.102L114.511 29.1185H109.913L115.017 15.1255H120.244L125.349 29.1185H120.594ZM116.034 24.0141H119.066L117.6 19.0286H117.52L116.034 24.0141Z" fill="url(#paint13_linear)"/>
<path d="M138.267 16.4339C139.472 17.4702 140.079 18.9516 140.079 20.8782H135.788C135.788 20.0646 135.573 19.4198 135.147 18.9439C134.721 18.468 134.115 18.2301 133.328 18.2301C132.418 18.2301 131.751 18.5141 131.325 19.0859C130.899 19.6539 130.684 20.4484 130.684 21.4654V22.7665C130.684 23.772 130.899 24.5588 131.325 25.1383C131.751 25.714 132.407 26.0018 133.286 26.0018C134.153 26.0018 134.813 25.7792 135.258 25.3302C135.704 24.8812 135.93 24.2517 135.93 23.4381H140.079C140.079 25.3494 139.492 26.8155 138.321 27.8325C137.147 28.8496 135.489 29.36 133.347 29.36C130.96 29.36 129.152 28.7498 127.928 27.5293C126.7 26.3089 126.086 24.505 126.086 22.1179C126.086 19.7307 126.7 17.9269 127.928 16.7064C129.156 15.486 130.964 14.8757 133.347 14.8757C135.42 14.8796 137.062 15.3977 138.267 16.4339Z" fill="url(#paint14_linear)"/>
<path d="M150.552 18.7024V29.1185H146.058V18.7024H141.46V15.1255H155.131V18.7063H150.552V18.7024Z" fill="url(#paint15_linear)"/>
<path d="M160.988 29.1185L156.025 15.1255H160.827L163.632 24.4823H163.713L166.541 15.1255H171.139L166.196 29.1185H160.988Z" fill="url(#paint16_linear)"/>
<path d="M184.871 16.7296C186.187 17.9616 186.844 19.7616 186.844 22.118C186.844 24.4745 186.187 26.2745 184.871 27.5065C183.555 28.7423 181.689 29.3563 179.275 29.3563C176.861 29.3563 175 28.7423 173.691 27.5141C172.383 26.286 171.73 24.486 171.73 22.1142C171.73 19.7424 172.383 17.9424 173.691 16.7143C175 15.4861 176.861 14.8721 179.275 14.8721C181.689 14.8797 183.555 15.4976 184.871 16.7296ZM177.08 19.1091C176.577 19.6925 176.328 20.4793 176.328 21.4694V22.7705C176.328 23.7607 176.577 24.5474 177.08 25.1308C177.583 25.7142 178.312 26.0058 179.275 26.0058C180.239 26.0058 180.976 25.7142 181.482 25.1308C181.993 24.5474 182.246 23.7607 182.246 22.7705V21.4694C182.246 20.4793 181.993 19.6925 181.482 19.1091C180.976 18.5258 180.239 18.2341 179.275 18.2341C178.312 18.2379 177.579 18.5258 177.08 19.1091Z" fill="url(#paint17_linear)"/>
<path d="M196.788 18.7024V29.1185H192.294V18.7024H187.696V15.1255H201.366V18.7063H196.788V18.7024Z" fill="url(#paint18_linear)"/>
<path d="M203.42 15.1255H215.524V18.4837H207.918V20.418H214.427V23.6303H207.918V25.7642H215.666V29.1223H203.42V15.1255Z" fill="url(#paint19_linear)"/>
<path d="M230.696 21.7344C230.235 22.4252 229.564 22.9356 228.681 23.258L231.793 29.1147H226.75L224.267 24.0102H222.598V29.1147H218.104V15.1255H226.666C227.668 15.1255 228.527 15.3174 229.237 15.705C229.947 16.0926 230.485 16.6146 230.845 17.2709C231.206 17.9272 231.383 18.6448 231.383 19.4163C231.387 20.2683 231.156 21.0435 230.696 21.7344ZM226.447 18.6832C226.202 18.4376 225.906 18.3186 225.553 18.3186H222.602V20.9015H225.553C225.906 20.9015 226.205 20.7749 226.447 20.5254C226.693 20.276 226.812 19.9651 226.812 19.6005C226.812 19.232 226.689 18.9289 226.447 18.6832Z" fill="url(#paint20_linear)"/>
<defs>
<linearGradient id="paint0_linear" x1="79.9019" y1="41.3113" x2="81.6744" y2="22.5443" gradientUnits="userSpaceOnUse">
<stop stop-color="#D72A3F"/>
<stop offset="1" stop-color="#EE374D"/>
</linearGradient>
<linearGradient id="paint1_linear" x1="40.4974" y1="22.8892" x2="43.6646" y2="10.366" gradientUnits="userSpaceOnUse">
<stop stop-color="#D72A3F"/>
<stop offset="1" stop-color="#EE374D"/>
</linearGradient>
<linearGradient id="paint2_linear" x1="40.4974" y1="32.1001" x2="43.6646" y2="19.5769" gradientUnits="userSpaceOnUse">
<stop stop-color="#D72A3F"/>
<stop offset="1" stop-color="#EE374D"/>
</linearGradient>
<linearGradient id="paint3_linear" x1="40.4974" y1="41.3111" x2="43.6646" y2="28.7878" gradientUnits="userSpaceOnUse">
<stop stop-color="#D72A3F"/>
<stop offset="1" stop-color="#EE374D"/>
</linearGradient>
<linearGradient id="paint4_linear" x1="29.0404" y1="22.8892" x2="36.3324" y2="15.5972" gradientUnits="userSpaceOnUse">
<stop stop-color="#0469A7"/>
<stop offset="1" stop-color="#0E81C7"/>
</linearGradient>
<linearGradient id="paint5_linear" x1="29.0404" y1="32.1001" x2="36.3324" y2="24.8081" gradientUnits="userSpaceOnUse">
<stop stop-color="#0469A7"/>
<stop offset="1" stop-color="#0E81C7"/>
</linearGradient>
<linearGradient id="paint6_linear" x1="29.0404" y1="41.3111" x2="36.3324" y2="34.019" gradientUnits="userSpaceOnUse">
<stop stop-color="#0469A7"/>
<stop offset="1" stop-color="#0E81C7"/>
</linearGradient>
<linearGradient id="paint7_linear" x1="19.8295" y1="22.8894" x2="27.1215" y2="15.5974" gradientUnits="userSpaceOnUse">
<stop stop-color="#0469A7"/>
<stop offset="1" stop-color="#0E81C7"/>
</linearGradient>
<linearGradient id="paint8_linear" x1="19.8295" y1="32.1001" x2="27.1215" y2="24.8081" gradientUnits="userSpaceOnUse">
<stop stop-color="#0469A7"/>
<stop offset="1" stop-color="#0E81C7"/>
</linearGradient>
<linearGradient id="paint9_linear" x1="19.8295" y1="41.3111" x2="27.1215" y2="34.019" gradientUnits="userSpaceOnUse">
<stop stop-color="#0469A7"/>
<stop offset="1" stop-color="#0E81C7"/>
</linearGradient>
<linearGradient id="paint10_linear" x1="71.3457" y1="29.1185" x2="79.4936" y2="26.5016" gradientUnits="userSpaceOnUse">
<stop stop-color="#0469A7"/>
<stop offset="1" stop-color="#0E81C7"/>
</linearGradient>
<linearGradient id="paint11_linear" x1="78.7721" y1="29.1185" x2="92.5403" y2="12.6276" gradientUnits="userSpaceOnUse">
<stop stop-color="#0469A7"/>
<stop offset="1" stop-color="#0E81C7"/>
</linearGradient>
<linearGradient id="paint12_linear" x1="98.2571" y1="29.1185" x2="112.138" y2="16.8938" gradientUnits="userSpaceOnUse">
<stop stop-color="#0469A7"/>
<stop offset="1" stop-color="#0E81C7"/>
</linearGradient>
<linearGradient id="paint13_linear" x1="109.913" y1="29.1185" x2="123.839" y2="13.7565" gradientUnits="userSpaceOnUse">
<stop stop-color="#0469A7"/>
<stop offset="1" stop-color="#0E81C7"/>
</linearGradient>
<linearGradient id="paint14_linear" x1="126.086" y1="29.36" x2="140.561" y2="15.3753" gradientUnits="userSpaceOnUse">
<stop stop-color="#0469A7"/>
<stop offset="1" stop-color="#0E81C7"/>
</linearGradient>
<linearGradient id="paint15_linear" x1="141.46" y1="29.1185" x2="155.45" y2="15.4516" gradientUnits="userSpaceOnUse">
<stop stop-color="#0469A7"/>
<stop offset="1" stop-color="#0E81C7"/>
</linearGradient>
<linearGradient id="paint16_linear" x1="156.025" y1="29.1185" x2="169.977" y2="14.0496" gradientUnits="userSpaceOnUse">
<stop stop-color="#0469A7"/>
<stop offset="1" stop-color="#0E81C7"/>
</linearGradient>
<linearGradient id="paint17_linear" x1="171.73" y1="29.3563" x2="186.201" y2="14.2563" gradientUnits="userSpaceOnUse">
<stop stop-color="#0469A7"/>
<stop offset="1" stop-color="#0E81C7"/>
</linearGradient>
<linearGradient id="paint18_linear" x1="187.696" y1="29.1185" x2="201.685" y2="15.4516" gradientUnits="userSpaceOnUse">
<stop stop-color="#0469A7"/>
<stop offset="1" stop-color="#0E81C7"/>
</linearGradient>
<linearGradient id="paint19_linear" x1="203.42" y1="29.1223" x2="217.293" y2="16.984" gradientUnits="userSpaceOnUse">
<stop stop-color="#0469A7"/>
<stop offset="1" stop-color="#0E81C7"/>
</linearGradient>
<linearGradient id="paint20_linear" x1="218.104" y1="29.1147" x2="232.089" y2="15.428" gradientUnits="userSpaceOnUse">
<stop stop-color="#0469A7"/>
<stop offset="1" stop-color="#0E81C7"/>
</linearGradient>
</defs>
</svg>
