<svg width="65" height="65" viewBox="0 0 65 65" fill="none" xmlns="http://www.w3.org/2000/svg">
<g clip-path="url(#clip0)">
<path d="M32.842 35.9237L22.4545 33.0907H13L2.61256 35.9237C1.07009 36.3444 0 37.7454 0 39.3441V62.6361C0 63.2887 0.52914 63.8179 1.1818 63.8179H35.4545V39.3441C35.4545 37.7454 34.3844 36.3444 32.842 35.9237Z" fill="#014E8F"/>
<path d="M23.6361 28.3638H11.818V37.8179H23.6361V28.3638Z" fill="#FAD098"/>
<path d="M11.8182 31.6597C13.5931 32.5702 15.5992 33.091 17.7272 33.091C19.8552 33.091 21.8614 32.5702 23.6362 31.6597V28.3638H11.8182V31.6597Z" fill="#D7AF7D"/>
<path d="M28.3636 15.3636V8.27277H7.09095V15.3637C5.78562 15.3637 4.72734 16.4219 4.72734 17.7273C4.72734 19.0327 5.78562 20.0909 7.09095 20.0909C7.09095 25.9653 11.853 30.7273 17.7273 30.7273C23.6017 30.7273 28.3637 25.9653 28.3637 20.0909C29.669 20.0909 30.7273 19.0327 30.7273 17.7273C30.7272 16.4217 29.669 15.3636 28.3636 15.3636Z" fill="#FFE1B4"/>
<path d="M13 20.0909V8.27277H7.09095V15.3637C5.78562 15.3637 4.72734 16.4219 4.72734 17.7273C4.72734 19.0327 5.78562 20.0909 7.09095 20.0909C7.09095 25.9653 11.853 30.7273 17.7273 30.7273C18.7537 30.7273 19.7428 30.5741 20.6819 30.3028C16.2465 29.0212 13 24.9388 13 20.0909Z" fill="#FAD098"/>
<path d="M17.7272 25.9999C16.4761 25.9999 15.2804 25.4096 14.4461 24.3806C14.0341 23.8734 14.1126 23.1295 14.6192 22.7182C15.1282 22.3079 15.8715 22.3863 16.2812 22.8918C17.0613 23.8521 18.3932 23.8521 19.1734 22.8918C19.5843 22.3863 20.3276 22.3079 20.8354 22.7182C21.342 23.1296 21.4205 23.8734 21.0085 24.3806C20.1739 25.4096 18.9783 25.9999 17.7272 25.9999Z" fill="#D7AF7D"/>
<path d="M13 20.0909C12.3468 20.0909 11.8182 19.5618 11.8182 18.9091V17.7273C11.8182 17.0747 12.3468 16.5455 13 16.5455C13.6531 16.5455 14.1818 17.0747 14.1818 17.7273V18.9091C14.1818 19.5617 13.6531 20.0909 13 20.0909Z" fill="#64463C"/>
<path d="M22.4545 20.0909C21.8014 20.0909 21.2727 19.5618 21.2727 18.9091V17.7273C21.2727 17.0747 21.8014 16.5455 22.4545 16.5455C23.1077 16.5455 23.6363 17.0747 23.6363 17.7273V18.9091C23.6363 19.5617 23.1077 20.0909 22.4545 20.0909Z" fill="#64463C"/>
<path d="M25.6827 14.2387C26.0278 15.1527 27.0048 15.5668 27.9671 15.3981C28.0958 15.3755 28.2282 15.3637 28.3637 15.3637C28.7965 15.3637 29.1966 15.4885 29.5455 15.6915V8.27272C29.5455 6.50452 28.5634 4.98134 27.1258 4.17061C26.8571 2.47871 25.4039 1.18176 23.6365 1.18176H14.1819C9.613 1.18176 5.90915 4.88561 5.90915 9.45452V15.6915C6.25802 15.4885 6.6583 15.3637 7.09095 15.3637C7.24292 15.3637 7.39107 15.3784 7.53427 15.4067C8.68535 15.6333 9.83783 14.9972 10.1259 13.86L10.4784 10.817C10.5593 10.1187 11.2256 9.63886 11.9097 9.80009C14.082 10.3118 18.7419 11.0826 23.5943 9.81735C24.2578 9.64432 24.9243 10.0917 25.037 10.768L25.5062 13.583C25.5442 13.8107 25.6039 14.0299 25.6827 14.2387Z" fill="#D59F63"/>
<path d="M0 39.3442V62.6363C0 63.2889 0.52914 63.8181 1.1818 63.8181H7.09083V46.9365C7.09083 45.6224 6.65284 44.3459 5.84605 43.3087L0.921551 36.9769C0.348613 37.6123 0 38.4431 0 39.3442Z" fill="#1E71B8"/>
<path d="M35.4545 39.3442V63.8181H28.3636V46.9365C28.3636 45.6224 28.8015 44.3459 29.6083 43.3087L34.533 36.9769C35.1059 37.6123 35.4545 38.4431 35.4545 39.3442Z" fill="#1E71B8"/>
<path d="M14.1818 1.18176C9.61287 1.18176 5.90902 4.88549 5.90902 9.45452V15.6915C6.25789 15.4885 6.65817 15.3637 7.09082 15.3637C7.24279 15.3637 7.39094 15.3784 7.53414 15.4067C8.68523 15.6333 9.8377 14.9972 10.1259 13.8599L10.4784 10.8169C10.5593 10.1186 11.2256 9.63873 11.9097 9.79996C12.2205 9.87321 12.5941 9.95091 13 10.0278V8.27272C13 4.35647 16.1747 1.18176 20.0909 1.18176C20.0909 1.18176 14.1818 1.18176 14.1818 1.18176Z" fill="#CD915A"/>
<path d="M14.1933 49.6363C13.5402 49.6363 13.0057 49.1072 13.0057 48.4545C13.0057 47.8018 13.5285 47.2727 14.1818 47.2727H14.1933C14.8465 47.2727 15.3751 47.8018 15.3751 48.4545C15.3751 49.1072 14.8465 49.6363 14.1933 49.6363Z" fill="url(#paint0_linear)"/>
<path d="M14.1933 59.0908C13.5402 59.0908 13.0057 58.5617 13.0057 57.909C13.0057 57.2564 13.5285 56.7272 14.1818 56.7272H14.1933C14.8465 56.7272 15.3751 57.2564 15.3751 57.909C15.3751 58.5616 14.8465 59.0908 14.1933 59.0908Z" fill="url(#paint1_linear)"/>
<path d="M14.1933 54.3635C13.5402 54.3635 13.0057 53.8344 13.0057 53.1817C13.0057 52.5291 13.5285 51.9999 14.1818 51.9999H14.1933C14.8465 51.9999 15.3751 52.5291 15.3751 53.1817C15.3751 53.8344 14.8465 54.3635 14.1933 54.3635Z" fill="url(#paint2_linear)"/>
<path d="M18.9094 37.8181H16.5458V63.8181H18.9094V37.8181Z" fill="#4994D3"/>
<path d="M54.1062 7.21576C54.2571 6.79821 54.3635 6.36569 54.3635 5.90916C54.3635 3.29838 51.7179 1.18195 48.4545 1.18195C45.191 1.18195 42.5455 3.29838 42.5455 5.90916C42.5455 6.36569 42.652 6.79821 42.8028 7.21576C38.4582 9.31988 35.4545 13.7579 35.4545 18.9091C35.4545 24.7834 40.2165 29.5455 46.0909 29.5455H50.8182C56.6925 29.5455 61.4546 24.7835 61.4546 18.9091C61.4545 13.7579 58.4508 9.31988 54.1062 7.21576Z" fill="#785546"/>
<path d="M43.7271 14.1817C43.7271 10.1643 46.5916 6.81847 50.3889 6.06856C49.756 5.97398 49.1136 5.90911 48.4545 5.90911C47.7399 5.90911 47.0438 5.98198 46.3605 6.09294C46.1909 5.66092 46.0909 5.2049 46.0909 4.72731C46.0909 3.32422 46.8699 2.07754 48.0834 1.21185C44.9962 1.36788 42.5453 3.40001 42.5453 5.90924C42.5453 6.36589 42.6524 6.79803 42.8037 7.21533C38.4586 9.31932 35.4545 13.7577 35.4545 18.9092C35.4545 24.7834 40.2165 29.5456 46.0909 29.5456H48.4545V22.4546L43.7273 17.7274V14.1817H43.7271Z" fill="#64463C"/>
<path d="M62.7712 44.0175L54.6676 40.776C53.7703 40.4171 53.1818 39.548 53.1818 38.5815V34.2727H43.7273V38.5815C43.7273 39.548 43.1389 40.4171 42.2416 40.776L34.1379 44.0175C32.7918 44.5559 31.9092 45.8596 31.9092 47.3094V51.9999C31.9092 52.6526 32.4384 53.1817 33.091 53.1817V62.6363C33.091 63.2889 33.6202 63.8181 34.2728 63.8181H62.6364C63.2891 63.8181 63.8182 63.2889 63.8182 62.6363V53.1817C64.4709 53.1817 65 52.6526 65 51.9999V47.3094C64.9999 45.8596 64.1173 44.5559 62.7712 44.0175Z" fill="#E6AF78"/>
<path d="M33.0909 51.9999V55.5454H34.2727C34.9254 55.5454 35.4545 56.0745 35.4545 56.7272V63.8181H38.9999V51.9999H33.0909Z" fill="#D29B6E"/>
<path d="M63.8181 51.9999V55.5454H62.6363C61.9836 55.5454 61.4545 56.0745 61.4545 56.7272V63.8181H57.9091V51.9999H63.8181Z" fill="#D29B6E"/>
<path d="M62.7712 44.0175L56.055 41.3311C54.9352 43.0948 52.407 46.4782 48.4545 48.4545C44.5019 46.4782 41.9738 43.0948 40.8539 41.3311L34.1377 44.0175C32.7917 44.5559 31.9091 45.8596 31.9091 47.3094V51.9999C31.9091 52.6526 32.4382 53.1817 33.0909 53.1817H37.8181V63.8181H59.0908V53.1817H63.8181C64.4707 53.1817 64.9999 52.6526 64.9999 51.9999V47.3094C64.9999 45.8596 64.1173 44.5559 62.7712 44.0175Z" fill="url(#paint3_linear)"/>
<path d="M43.7271 38.0972C45.1945 38.6728 46.7854 39.0001 48.4544 39.0001C50.1233 39.0001 51.7143 38.6728 53.1816 38.0972V34.2729H43.727V38.0972H43.7271Z" fill="#D29B6E"/>
<path d="M59.0908 25.9999C59.0908 18.1755 50.633 20.9232 44.7167 17.244C44.1781 16.909 43.4608 17.0538 43.1103 17.5826C42.1974 18.9599 40.3291 21.2258 37.8938 21.2718C36.5615 21.2971 35.4545 22.2851 35.4545 23.6175V23.6362C35.4545 24.9417 36.5128 25.9998 37.8181 25.9998C37.8181 26.8123 37.9093 27.6035 38.0817 28.3637C39.1566 33.1003 43.3925 36.6362 48.4544 36.6362C53.5162 36.6362 57.7521 33.1003 58.827 28.3637C58.9997 27.6036 59.0908 26.8124 59.0908 25.9999Z" fill="#F0C087"/>
<path d="M43.7271 26V17.1375C43.4845 17.2155 43.2607 17.3556 43.1102 17.5826C42.1972 18.9599 40.329 21.2258 37.8937 21.272C36.5614 21.2973 35.4544 22.2852 35.4544 23.6176V23.6364C35.4544 24.9417 36.5127 26 37.818 26C37.818 26.8123 37.9092 27.6035 38.0817 28.3638C39.1565 33.1004 43.3925 36.6363 48.4544 36.6363C49.4815 36.6363 50.4718 36.4841 51.4115 36.2124C46.975 34.9319 43.7271 30.8488 43.7271 26Z" fill="#E6AF78"/>
<path d="M48.4545 31.909C47.2034 31.909 46.0077 31.3186 45.1734 30.2897C44.7614 29.7825 44.8399 29.0386 45.3465 28.6272C45.8555 28.2164 46.5988 28.2949 47.0085 28.8009C47.7886 29.7612 49.1205 29.7612 49.9007 28.8009C50.3104 28.2949 51.0548 28.2163 51.5627 28.6272C52.0693 29.0387 52.1478 29.7825 51.7358 30.2897C50.9011 31.3186 49.7055 31.909 48.4545 31.909Z" fill="#D29B6E"/>
<path d="M53.1817 25.9999C52.5286 25.9999 51.9999 25.4707 51.9999 24.8181V23.6363C51.9999 22.9836 52.5286 22.4545 53.1817 22.4545C53.8349 22.4545 54.3635 22.9836 54.3635 23.6363V24.8181C54.3635 25.4707 53.835 25.9999 53.1817 25.9999Z" fill="#64463C"/>
<path d="M43.7272 25.9999C43.074 25.9999 42.5453 25.4707 42.5453 24.8181V23.6363C42.5453 22.9836 43.074 22.4545 43.7272 22.4545C44.3803 22.4545 44.909 22.9836 44.909 23.6363V24.8181C44.909 25.4707 44.3805 25.9999 43.7272 25.9999Z" fill="#64463C"/>
<path d="M37.8181 51.7972C37.8181 51.1703 37.569 50.5692 37.1258 50.1259L32.4467 45.4468C32.1068 45.9957 31.9091 46.6348 31.9091 47.3094V52C31.9091 52.6526 32.4382 53.1818 33.0909 53.1818H37.8181V51.7972Z" fill="#FFAB55"/>
<path d="M59.0908 51.7972C59.0908 51.1703 59.3399 50.5692 59.7831 50.1259L64.4622 45.4468C64.8022 45.9957 64.9999 46.6348 64.9999 47.3094V52C64.9999 52.6526 64.4707 53.1818 63.8181 53.1818H59.0908V51.7972Z" fill="#FFAB55"/>
<path d="M11.6467 32.751L17.7272 37.8181L13.9163 40.6763C13.4057 41.0593 12.6831 40.9675 12.2843 40.4691L8.81243 36.1292C8.49098 35.7273 8.46648 35.1636 8.752 34.7354L9.90676 33.0032C10.2965 32.4187 11.107 32.3012 11.6467 32.751Z" fill="#2A7ABE"/>
<path d="M23.8077 32.751L17.7272 37.8181L21.5381 40.6763C22.0487 41.0593 22.7713 40.9675 23.17 40.4691L26.6419 36.1292C26.9634 35.7273 26.9879 35.1636 26.7024 34.7354L25.5476 33.0032C25.158 32.4187 24.3474 32.3012 23.8077 32.751Z" fill="#2A7ABE"/>
</g>
<defs>
<linearGradient id="paint0_linear" x1="15.0655" y1="47.2727" x2="12.9031" y2="47.4496" gradientUnits="userSpaceOnUse">
<stop stop-color="#FF9424"/>
<stop offset="1" stop-color="#FF8302"/>
</linearGradient>
<linearGradient id="paint1_linear" x1="15.0655" y1="56.7272" x2="12.9031" y2="56.9041" gradientUnits="userSpaceOnUse">
<stop stop-color="#FF9424"/>
<stop offset="1" stop-color="#FF8302"/>
</linearGradient>
<linearGradient id="paint2_linear" x1="15.0655" y1="51.9999" x2="12.9031" y2="52.1768" gradientUnits="userSpaceOnUse">
<stop stop-color="#FF9424"/>
<stop offset="1" stop-color="#FF8302"/>
</linearGradient>
<linearGradient id="paint3_linear" x1="60.6755" y1="41.3311" x2="30.7064" y2="44.9298" gradientUnits="userSpaceOnUse">
<stop stop-color="#FF9424"/>
<stop offset="1" stop-color="#FF8302"/>
</linearGradient>
<clipPath id="clip0">
<rect width="65" height="65" fill="white"/>
</clipPath>
</defs>
</svg>
