<svg width="69" height="69" viewBox="0 0 69 69" fill="none" xmlns="http://www.w3.org/2000/svg">
<g clip-path="url(#clip0)">
<path d="M33.0014 37.4971V49.518V66.0028C33.0014 67.6944 31.6001 69.0588 29.8949 68.9981C28.2707 68.9405 27.0069 67.5561 27.0069 65.9311V52.5153C27.0069 50.86 25.665 49.5181 24.0097 49.5181C22.3543 49.5181 21.0125 50.86 21.0125 52.5153V66.0028C21.0125 67.6944 19.6112 69.0588 17.906 68.9981C16.2818 68.9405 15.0179 67.5561 15.0179 65.9311V49.518V37.4971H33.0014Z" fill="#014E8F"/>
<path d="M37.4972 25.5402V40.5263H10.5221V25.5402C10.5221 20.5742 14.5478 16.5485 19.5138 16.5485H28.5055C33.4715 16.5485 37.4972 20.5742 37.4972 25.5402Z" fill="#488BC4"/>
<path d="M24.0097 40.5263H10.5221V25.5402C10.5221 20.5742 14.5478 16.5485 19.5138 16.5485H24.0096V40.5263H24.0097Z" fill="#276FAB"/>
<path d="M30.0041 6.05812C30.0041 9.36864 27.3202 12.0526 24.0096 12.0526C20.6989 12.0526 18.0151 9.36878 18.0151 6.05812C18.0151 2.74746 20.6989 0.0635986 24.0096 0.0635986C27.3202 0.0635986 30.0041 2.7476 30.0041 6.05812ZM15.018 28.5373H10.5222V45.0222C10.5222 46.6774 11.8641 48.0194 13.5194 48.0194C15.1747 48.0194 16.5166 46.6774 16.5166 45.0222V30.0361C16.5166 29.2083 15.8456 28.5373 15.018 28.5373ZM44.9903 37.5291H37.4972V28.5373H33.0014C32.1737 28.5373 31.5028 29.2083 31.5028 30.0359V40.5263C31.5028 42.1814 32.8447 43.5234 34.5 43.5234H44.9903C46.6457 43.5234 47.9875 42.1814 47.9875 40.5263C47.9875 38.8709 46.6457 37.5291 44.9903 37.5291Z" fill="#FFE1B4"/>
<path d="M24.0098 0.0637207V12.0526C20.6993 12.0526 18.0153 9.36877 18.0153 6.05811C18.0153 2.74745 20.6991 0.0637207 24.0098 0.0637207Z" fill="#FAD098"/>
<path d="M55.4806 25.5402C57.1359 25.5402 58.4778 26.882 58.4778 28.5374C58.4778 30.1926 57.1359 31.5346 55.4806 31.5346H46.4889C44.8336 31.5346 43.4917 30.1926 43.4917 28.5374C43.4917 26.882 44.8336 25.5402 46.4889 25.5402C44.8336 25.5402 43.4917 24.1982 43.4917 22.543C43.4917 20.8876 44.8336 19.5458 46.4889 19.5458C44.8336 19.5458 43.4917 18.2038 43.4917 16.5486C43.4917 14.8933 44.8336 13.5514 46.4889 13.5514H55.4806C57.1359 13.5514 58.4778 14.8933 58.4778 16.5486C58.4778 18.2038 57.1359 19.5458 55.4806 19.5458C57.1359 19.5458 58.4778 20.8876 58.4778 22.543C58.4779 24.1982 57.1361 25.5402 55.4806 25.5402ZM43.6054 5.07961C43.8929 6.70973 45.4474 7.79824 47.0775 7.51078L55.9327 5.94939C57.5629 5.66193 58.6514 4.10727 58.3639 2.47728C58.0765 0.847149 56.5219 -0.241356 54.8918 0.0461001L46.0368 1.6075C44.4066 1.89468 43.3181 3.44934 43.6054 5.07961Z" fill="url(#paint0_linear)"/>
<path d="M58.4779 28.5374H43.4917C43.4917 26.882 44.8336 25.5402 46.4889 25.5402H55.4806C57.1361 25.5402 58.4779 26.882 58.4779 28.5374ZM55.4806 19.5458H46.4889C44.8336 19.5458 43.4917 20.8876 43.4917 22.543H58.4778C58.4779 20.8876 57.1361 19.5458 55.4806 19.5458ZM55.4806 13.5513H46.4889C44.8336 13.5513 43.4917 14.8931 43.4917 16.5485H58.4778C58.4779 14.8931 57.1361 13.5513 55.4806 13.5513ZM43.6054 5.07961L58.3639 2.47728C58.0765 0.847149 56.5219 -0.241356 54.8918 0.0461001L46.0368 1.6075C44.4066 1.89468 43.3181 3.44934 43.6054 5.07961Z" fill="#FFB971"/>
</g>
<defs>
<linearGradient id="paint0_linear" x1="56.5194" y1="6.39953e-05" x2="42.772" y2="0.533185" gradientUnits="userSpaceOnUse">
<stop stop-color="#FF9424"/>
<stop offset="1" stop-color="#FF8302"/>
</linearGradient>
<clipPath id="clip0">
<rect width="69" height="69" fill="white"/>
</clipPath>
</defs>
</svg>
