<svg width="20" height="20" viewBox="0 0 20 20" fill="none" xmlns="http://www.w3.org/2000/svg">
<g opacity="0.7">
<g clip-path="url(#clip0)">
<path opacity="0.8" d="M17.4123 3.55493H13.0373L12.9531 3.55499C11.9488 3.55499 12.2581 3.55499 11.454 3.55499H7.704C6.89986 3.55499 7.5 3.55493 6.5 3.55493L6.37072 3.55493H1.99572C0.731525 3.55493 -0.296001 4.58231 -0.296001 5.8465V16.2632C-0.296001 17.5274 0.731525 18.5549 1.99572 18.5549H17.4123C18.6765 18.5549 19.704 17.5274 19.704 16.2632V5.8465C19.704 4.58231 18.6765 3.55493 17.4123 3.55493ZM5.954 7.7215C7.10238 7.7215 8.03728 8.65656 8.03728 9.80493C8.03728 10.9532 7.10238 11.8882 5.954 11.8882C4.80562 11.8882 3.87072 10.9532 3.87072 9.80493C3.87072 8.65656 4.80562 7.7215 5.954 7.7215ZM9.704 15.4299C9.704 15.7749 9.424 16.0549 9.079 16.0549H2.829C2.484 16.0549 2.204 15.7749 2.204 15.4299V15.0132C2.204 13.749 3.23153 12.7215 4.49572 12.7215H7.41228C8.67647 12.7215 9.704 13.749 9.704 15.0132V15.4299ZM16.579 16.0549H11.9957C11.6507 16.0549 11.3707 15.7749 11.3707 15.4299C11.3707 15.0849 11.6507 14.8049 11.9957 14.8049H16.579C16.924 14.8049 17.204 15.0849 17.204 15.4299C17.204 15.7749 16.924 16.0549 16.579 16.0549ZM16.579 12.7215H11.9957C11.6507 12.7215 11.3707 12.4415 11.3707 12.0965C11.3707 11.7515 11.6507 11.4715 11.9957 11.4715H16.579C16.924 11.4715 17.204 11.7515 17.204 12.0965C17.204 12.4415 16.924 12.7215 16.579 12.7215ZM16.579 9.38822H11.9957C11.6507 9.38822 11.3707 9.10822 11.3707 8.76322C11.3707 8.41821 11.6507 8.13822 11.9957 8.13822H16.579C16.924 8.13822 17.204 8.41821 17.204 8.76322C17.204 9.10822 16.924 9.38822 16.579 9.38822Z" fill="#0C334C"/>
</g>
</g>
<defs>
<clipPath id="clip0">
<rect width="20" height="20" fill="white"/>
</clipPath>
</defs>
</svg>
