<svg width="73" height="12" viewBox="0 0 73 12" fill="none" xmlns="http://www.w3.org/2000/svg">
<path d="M5.93241 11.168C4.91508 11.168 3.99575 10.9487 3.17441 10.51C2.36241 10.0713 1.72308 9.46933 1.25641 8.704C0.799081 7.92933 0.570414 7.06133 0.570414 6.1C0.570414 5.13867 0.799081 4.27533 1.25641 3.51C1.72308 2.73533 2.36241 2.12867 3.17441 1.69C3.99575 1.25133 4.91508 1.032 5.93241 1.032C6.94975 1.032 7.86441 1.25133 8.67641 1.69C9.48841 2.12867 10.1277 2.73533 10.5944 3.51C11.0611 4.27533 11.2944 5.13867 11.2944 6.1C11.2944 7.06133 11.0611 7.92933 10.5944 8.704C10.1277 9.46933 9.48841 10.0713 8.67641 10.51C7.86441 10.9487 6.94975 11.168 5.93241 11.168ZM5.93241 9.236C6.51108 9.236 7.03375 9.10533 7.50041 8.844C7.96708 8.57333 8.33108 8.2 8.59241 7.724C8.86308 7.248 8.99841 6.70667 8.99841 6.1C8.99841 5.49333 8.86308 4.952 8.59241 4.476C8.33108 4 7.96708 3.63133 7.50041 3.37C7.03375 3.09933 6.51108 2.964 5.93241 2.964C5.35375 2.964 4.83108 3.09933 4.36441 3.37C3.89775 3.63133 3.52908 4 3.25841 4.476C2.99708 4.952 2.86641 5.49333 2.86641 6.1C2.86641 6.70667 2.99708 7.248 3.25841 7.724C3.52908 8.2 3.89775 8.57333 4.36441 8.844C4.83108 9.10533 5.35375 9.236 5.93241 9.236ZM15.2389 3.636H17.1709V5.316H15.2949V11H13.1109V5.316H11.9489V3.636H13.1109V3.3C13.1109 2.44133 13.3629 1.76 13.8669 1.256C14.3802 0.751999 15.0989 0.499999 16.0229 0.499999C16.3496 0.499999 16.6576 0.537333 16.9469 0.611999C17.2456 0.677333 17.4929 0.775333 17.6889 0.906L17.1149 2.488C16.8629 2.31067 16.5689 2.222 16.2329 2.222C15.5702 2.222 15.2389 2.586 15.2389 3.314V3.636ZM20.653 3.636H22.585V5.316H20.709V11H18.525V5.316H17.363V3.636H18.525V3.3C18.525 2.44133 18.777 1.76 19.281 1.256C19.7943 0.751999 20.513 0.499999 21.437 0.499999C21.7636 0.499999 22.0716 0.537333 22.361 0.611999C22.6596 0.677333 22.907 0.775333 23.103 0.906L22.529 2.488C22.277 2.31067 21.983 2.222 21.647 2.222C20.9843 2.222 20.653 2.586 20.653 3.314V3.636ZM30.9553 7.262C30.9553 7.29 30.9413 7.486 30.9133 7.85H25.2153C25.318 8.31667 25.5607 8.68533 25.9433 8.956C26.326 9.22667 26.802 9.362 27.3713 9.362C27.7633 9.362 28.1087 9.306 28.4073 9.194C28.7153 9.07267 29 8.886 29.2613 8.634L30.4233 9.894C29.714 10.706 28.678 11.112 27.3153 11.112C26.466 11.112 25.7147 10.9487 25.0613 10.622C24.408 10.286 23.904 9.824 23.5493 9.236C23.1947 8.648 23.0173 7.98067 23.0173 7.234C23.0173 6.49667 23.19 5.834 23.5353 5.246C23.89 4.64867 24.3707 4.18667 24.9773 3.86C25.5933 3.524 26.2793 3.356 27.0353 3.356C27.7727 3.356 28.44 3.51467 29.0373 3.832C29.6347 4.14933 30.1013 4.60667 30.4373 5.204C30.7827 5.792 30.9553 6.478 30.9553 7.262ZM27.0493 5.008C26.5547 5.008 26.1393 5.148 25.8033 5.428C25.4673 5.708 25.262 6.09067 25.1873 6.576H28.8973C28.8227 6.1 28.6173 5.722 28.2813 5.442C27.9453 5.15267 27.5347 5.008 27.0493 5.008ZM34.4954 4.462C34.7567 4.098 35.1067 3.82267 35.5454 3.636C35.9934 3.44933 36.5067 3.356 37.0854 3.356V5.372C36.8427 5.35333 36.6794 5.344 36.5954 5.344C35.97 5.344 35.48 5.52133 35.1254 5.876C34.7707 6.22133 34.5934 6.744 34.5934 7.444V11H32.4094V3.468H34.4954V4.462ZM57.3695 1.2L54.1635 11H51.7275L49.5715 4.364L47.3455 11H44.9235L41.7035 1.2H44.0555L46.2675 8.088L48.5775 1.2H50.6775L52.9175 8.144L55.1995 1.2H57.3695ZM60.9591 3.356C62.1258 3.356 63.0218 3.636 63.6471 4.196C64.2724 4.74667 64.5851 5.582 64.5851 6.702V11H62.5411V10.062C62.1304 10.762 61.3651 11.112 60.2451 11.112C59.6664 11.112 59.1624 11.014 58.7331 10.818C58.3131 10.622 57.9911 10.3513 57.7671 10.006C57.5431 9.66067 57.4311 9.26867 57.4311 8.83C57.4311 8.13 57.6924 7.57933 58.2151 7.178C58.7471 6.77667 59.5638 6.576 60.6651 6.576H62.4011C62.4011 6.1 62.2564 5.736 61.9671 5.484C61.6778 5.22267 61.2438 5.092 60.6651 5.092C60.2638 5.092 59.8671 5.15733 59.4751 5.288C59.0924 5.40933 58.7658 5.57733 58.4951 5.792L57.7111 4.266C58.1218 3.97667 58.6118 3.75267 59.1811 3.594C59.7598 3.43533 60.3524 3.356 60.9591 3.356ZM60.7911 9.642C61.1644 9.642 61.4958 9.558 61.7851 9.39C62.0744 9.21267 62.2798 8.956 62.4011 8.62V7.85H60.9031C60.0071 7.85 59.5591 8.144 59.5591 8.732C59.5591 9.012 59.6664 9.236 59.8811 9.404C60.1051 9.56267 60.4084 9.642 60.7911 9.642ZM66.5617 0.611999H68.7457V11H66.5617V0.611999ZM70.7726 0.611999H72.9566V11H70.7726V0.611999Z" fill="#0D344D"/>
</svg>
