<svg width="65" height="65" viewBox="0 0 65 65" fill="none" xmlns="http://www.w3.org/2000/svg">
<path d="M31.3045 33.9418L25.5356 32.4996H9.28561L3.51673 33.9418C1.44993 34.4585 0 36.3156 0 38.446V60.3568C0 60.9978 0.519619 61.5175 1.16073 61.5175H33.6607C34.3017 61.5175 34.8215 60.9979 34.8215 60.3568V38.4461C34.8215 36.3156 33.3714 34.4585 31.3045 33.9418Z" fill="#014E8F"/>
<path d="M31.3045 33.9417L27.6515 33.0286C26.9415 34.7629 24.2291 40.5359 18.0769 44.8187C17.6775 45.0967 17.1439 45.0967 16.7445 44.8187C10.5922 40.5359 7.87998 34.763 7.16981 33.0286L3.51673 33.9419C1.44993 34.4586 0 36.3156 0 38.446V60.3568C0 60.9977 0.519619 61.5175 1.16073 61.5175H34.8215V38.4462C34.8215 36.3156 33.3714 34.4584 31.3045 33.9417Z" fill="#FF8E18"/>
<path d="M23.2147 26.6956H11.6073V33.6599H23.2147V26.6956Z" fill="#D29B6E"/>
<path d="M27.8572 15.089V11.6069C27.8572 7.11952 24.2195 3.48193 19.7322 3.48193H15.0894C10.6021 3.48193 6.96442 7.11952 6.96442 11.6069V15.0891C5.68232 15.0891 4.64295 16.1284 4.64295 17.4106C4.64295 18.6927 5.68232 19.7321 6.96442 19.7321C6.96442 25.5014 11.6414 30.1785 17.4109 30.1785C23.1804 30.1785 27.8573 25.5016 27.8573 19.7321C29.1395 19.7321 30.1788 18.6927 30.1788 17.4106C30.1786 16.1284 29.1392 15.089 27.8572 15.089Z" fill="#F0C087"/>
<path d="M12.7678 19.7319V11.6069C12.7678 7.31554 16.0972 3.80998 20.3125 3.51126C20.12 3.49755 19.9281 3.48193 19.7322 3.48193H15.0894C10.6021 3.48193 6.96442 7.11952 6.96442 11.6069V15.0891C5.68232 15.0891 4.64295 16.1284 4.64295 17.4106C4.64295 18.6927 5.68232 19.7321 6.96442 19.7321C6.96442 25.5014 11.6414 30.1785 17.4109 30.1785C18.4189 30.1785 19.3904 30.028 20.3126 29.7615C15.9565 28.5027 12.7678 24.4933 12.7678 19.7319Z" fill="#E6AF78"/>
<path d="M17.4107 25.5355C16.1819 25.5355 15.0076 24.9562 14.1881 23.9451C13.7834 23.4475 13.8606 22.7163 14.3581 22.3129C14.8569 21.9082 15.588 21.9842 15.9904 22.4829C16.7566 23.426 18.0646 23.426 18.8309 22.4829C19.2334 21.9841 19.9634 21.9082 20.4632 22.3129C20.9608 22.7165 21.0379 23.4476 20.6332 23.9451C19.8137 24.9562 18.6394 25.5355 17.4107 25.5355Z" fill="#D29B6E"/>
<path d="M12.7678 19.732C12.1262 19.732 11.607 19.2128 11.607 18.5712V17.4105C11.607 16.7689 12.1262 16.2498 12.7678 16.2498C13.4094 16.2498 13.9285 16.7689 13.9285 17.4105V18.5712C13.9285 19.2127 13.4094 19.732 12.7678 19.732Z" fill="#64463C"/>
<path d="M22.0535 19.732C21.4119 19.732 20.8928 19.2128 20.8928 18.5712V17.4105C20.8928 16.7689 21.4119 16.2498 22.0535 16.2498C22.6951 16.2498 23.2142 16.7689 23.2142 17.4105V18.5712C23.2142 19.2127 22.6951 19.732 22.0535 19.732Z" fill="#64463C"/>
<path d="M9.28574 8.41497C9.28574 7.13287 8.24638 6.09351 6.96428 6.09351C5.68218 6.09351 4.64281 7.13274 4.64281 8.41497C4.64281 8.88787 4.78589 9.32662 5.02875 9.69352C3.80492 10.0343 2.90178 11.145 2.90178 12.4775C2.90178 14.08 4.20089 15.3792 5.80355 15.3792C7.4062 15.3792 8.70531 14.08 8.70531 12.4775C8.70531 11.7197 8.40799 11.0357 7.93242 10.519C8.72943 10.1512 9.28574 9.35023 9.28574 8.41497Z" fill="#D5DCED"/>
<path d="M25.5358 8.41497C25.5358 7.13287 26.5751 6.09351 27.8572 6.09351C29.1393 6.09351 30.1787 7.13274 30.1787 8.41497C30.1787 8.88787 30.0356 9.32662 29.7927 9.69352C31.0166 10.0343 31.9197 11.145 31.9197 12.4775C31.9197 14.08 30.6206 15.3792 29.018 15.3792C27.4153 15.3792 26.1162 14.08 26.1162 12.4775C26.1162 11.7197 26.4135 11.0357 26.8891 10.519C26.0921 10.1512 25.5358 9.35023 25.5358 8.41497Z" fill="#D5DCED"/>
<path d="M5.26449 40.0857L0.897812 35.7191C0.334395 36.4927 0 37.4357 0 38.4461V60.357C0 60.998 0.519619 61.5177 1.16073 61.5177H6.96427V44.1894C6.96427 42.6502 6.35286 41.1741 5.26449 40.0857Z" fill="#014E8F"/>
<path d="M29.557 40.0857L33.9236 35.7191C34.4871 36.4927 34.8215 37.4357 34.8215 38.4461V61.5177H27.8572V44.1894C27.8572 42.6502 28.4686 41.1741 29.557 40.0857Z" fill="#014E8F"/>
<path d="M17.4107 41.7855C16.7697 41.7855 16.25 41.2658 16.25 40.6247V33.6605H18.5715V40.6247C18.5715 41.2658 18.0517 41.7855 17.4107 41.7855Z" fill="#4994D3"/>
<path d="M11.4846 30.6973L17.4107 33.6604L14.8276 37.1046C14.3724 37.7116 13.4667 37.7258 12.9926 37.1333L9.28572 32.4997L9.92734 31.2164C10.214 30.6431 10.9112 30.4106 11.4846 30.6973Z" fill="#2A7ABE"/>
<path d="M23.3368 30.6973L17.4106 33.6604L19.9937 37.1046C20.449 37.7116 21.3547 37.7258 21.8287 37.1333L25.5356 32.4997L24.894 31.2164C24.6075 30.6431 23.9102 30.4106 23.3368 30.6973Z" fill="#2A7ABE"/>
<path d="M56.875 31.3391C58.7981 31.3391 60.3572 32.898 60.3572 34.8213C60.3572 34.8921 60.3406 34.9582 60.3364 35.0281C61.6964 35.502 62.6787 36.7818 62.6787 38.3035C62.6787 40.2266 61.1197 41.7857 59.1965 41.7857H53.3929V34.8214C53.3928 32.898 54.9519 31.3391 56.875 31.3391Z" fill="#C7CFE2"/>
<path d="M40.625 31.3391C38.7019 31.3391 37.1428 32.898 37.1428 34.8213C37.1428 34.8921 37.1594 34.9582 37.1636 35.0281C35.8036 35.502 34.8213 36.7818 34.8213 38.3035C34.8213 40.2266 36.3803 41.7857 38.3035 41.7857H44.1071V34.8214C44.1072 32.898 42.5481 31.3391 40.625 31.3391Z" fill="#C7CFE2"/>
<path d="M61.3517 41.487L54.852 38.8871C54.1911 38.6226 53.7008 38.0764 53.4968 37.4194L53.3928 34.8213H44.1071L44.003 37.4194C43.7992 38.0765 43.3088 38.6228 42.6477 38.8871L36.148 41.487C33.9449 42.3683 32.5 44.5024 32.5 46.8755V60.3574C32.5 60.9985 33.0196 61.5181 33.6607 61.5181L63.8393 61.5176C64.4803 61.5176 65 60.998 65 60.3569V46.8755C65 44.5024 63.5551 42.3683 61.3517 41.487Z" fill="#966D50"/>
<path d="M61.3517 41.4864L56.2727 39.4548C54.4629 41.5882 51.7665 42.9457 48.75 42.9457C45.7333 42.9457 43.037 41.5881 41.2273 39.4548L36.1483 41.4864C33.9449 42.3677 32.5 44.5018 32.5 46.8749V60.3568C32.5 60.998 33.0197 61.5176 33.6607 61.5176L63.8393 61.5172C64.4803 61.5172 65 60.9976 65 60.3565V46.8749C65 44.5018 63.5551 42.3677 61.3517 41.4864Z" fill="#FFA03E"/>
<path d="M48.75 33.6604C55.8014 33.6604 61.5177 27.9441 61.5177 20.8927C61.5177 13.8413 55.8014 8.125 48.75 8.125C41.6986 8.125 35.9823 13.8413 35.9823 20.8927C35.9823 27.9441 41.6986 33.6604 48.75 33.6604Z" fill="#D5DCED"/>
<path d="M44.1072 20.8927C44.1072 15.2632 47.7551 10.4945 52.8125 8.79621C51.535 8.36723 50.172 8.12488 48.75 8.12488C41.6985 8.12488 35.9822 13.8412 35.9822 20.8927C35.9822 27.9442 41.6985 33.6605 48.75 33.6605C50.172 33.6605 51.5351 33.4183 52.8125 32.9892C47.7551 31.2908 44.1072 26.5222 44.1072 20.8927Z" fill="#C7CFE2"/>
<path d="M48.75 38.3032C42.9806 38.3032 38.3035 33.6262 38.3035 27.8568V23.993C38.3035 23.5234 38.6005 23.1221 39.03 22.9324C41.0698 22.0316 42.6377 20.4064 43.4619 19.4145C43.8294 18.9722 44.4699 18.8661 44.9465 19.1882C50.7626 23.1176 59.1963 22.2714 59.1963 26.6961V27.8568C59.1965 33.6263 54.5194 38.3032 48.75 38.3032Z" fill="#C39772"/>
<path d="M44.1072 27.857V19.0345C43.8633 19.086 43.6323 19.2099 43.4622 19.4148C42.6378 20.4067 41.07 22.0318 39.0302 22.9327C38.6006 23.1224 38.3037 23.5237 38.3037 23.9933V27.8571C38.3037 33.6265 42.9806 38.3035 48.7501 38.3035C49.7581 38.3035 50.7297 38.153 51.6519 37.8865C47.2958 36.6278 44.1072 32.6183 44.1072 27.857Z" fill="#B48764"/>
<path d="M48.75 33.6605C47.5212 33.6605 46.3469 33.0812 45.5274 32.0701C45.1227 31.5725 45.1999 30.8413 45.6974 30.4379C46.1962 30.0321 46.9262 30.1092 47.3297 30.6079C48.0959 31.551 49.4039 31.551 50.1702 30.6079C50.5727 30.1091 51.3027 30.032 51.8025 30.4379C52.3001 30.8415 52.3772 31.5726 51.9725 32.0701C51.1531 33.0812 49.9788 33.6605 48.75 33.6605Z" fill="#966D50"/>
<path d="M53.3928 25.5355C52.7523 25.5355 52.2321 26.0558 52.2321 26.6963C52.2321 27.3367 52.7523 27.857 53.3928 27.857C54.0333 27.857 54.5535 27.3367 54.5535 26.6963C54.5535 26.0558 54.0333 25.5355 53.3928 25.5355Z" fill="#64463C"/>
<path d="M44.1072 25.5355C43.4667 25.5355 42.9465 26.0558 42.9465 26.6963C42.9465 27.3367 43.4667 27.857 44.1072 27.857C44.7477 27.857 45.2679 27.3367 45.2679 26.6963C45.2679 26.0558 44.7475 25.5355 44.1072 25.5355Z" fill="#64463C"/>
<path d="M37.2837 47.7299L33.38 43.8262C32.8236 44.7247 32.5 45.7706 32.5 46.8748V60.3569C32.5 60.9979 33.0196 61.5176 33.6607 61.5176L38.3035 61.5175V50.192C38.3035 49.2687 37.9366 48.3829 37.2837 47.7299Z" fill="#FF8E18"/>
<path d="M60.2163 47.7299L64.12 43.8262C64.6764 44.7247 65 45.7706 65 46.8748V60.3569C65 60.9979 64.4804 61.5176 63.8393 61.5176L59.1965 61.5175V50.192C59.1965 49.2687 59.5634 48.3829 60.2163 47.7299Z" fill="#FF8E18"/>
<path d="M48.75 46.4283C53.197 46.4283 57.1091 44.152 59.3953 40.7037L56.2729 39.4548C54.4629 41.5882 51.7665 42.9457 48.75 42.9457C45.7333 42.9457 43.037 41.5881 41.2273 39.4548L38.1049 40.7037C40.3909 44.152 44.303 46.4283 48.75 46.4283Z" fill="#FF8E18"/>
</svg>
