<svg width="65" height="65" viewBox="0 0 65 65" fill="none" xmlns="http://www.w3.org/2000/svg">
<g clip-path="url(#clip0)">
<path d="M65 22.7507V54.3091C65 56.3545 63.3416 58.0115 61.2975 58.0115H3.70119C1.65699 58.0115 0 56.3544 0 54.3089V22.7507C0 20.7065 1.65699 19.0482 3.70119 19.0482H61.2974C63.3416 19.0481 65 20.7065 65 22.7507Z" fill="url(#paint0_linear)"/>
<path d="M51.3631 19.048C50.5732 27.1018 47.2381 40.001 34.5533 47.0935L34.5272 47.1078C33.9099 47.4518 33.2089 47.6349 32.5 47.6349C31.795 47.6349 31.0979 47.4544 30.4819 47.1131L30.4479 47.0936C17.7631 40.0011 14.4268 27.1018 13.6382 19.0481H51.3631V19.048Z" fill="#E98013"/>
<path d="M65 22.75V54.3094C65 56.3543 63.342 58.011 61.2972 58.011H58.921C60.9658 58.011 62.6238 56.3543 62.6238 54.3094V22.75C62.6238 20.7066 60.9658 19.0485 58.921 19.0485H61.2972C63.342 19.0485 65 20.7065 65 22.75Z" fill="#E98013"/>
<path d="M65 25.1329H0V33.7277H65V25.1329Z" fill="#014E8F"/>
<path opacity="0.5" d="M50.3574 25.1334C49.7087 27.8839 48.7317 30.829 47.2709 33.7287H17.7306C16.2697 30.8292 15.2914 27.8839 14.6441 25.1334H50.3574Z" fill="#363E51"/>
<path d="M64.9997 25.1329H62.6235V33.7289H64.9997V25.1329Z" fill="#5C6887"/>
<path d="M17.7112 46.5092H7.06254C6.52083 46.5092 6.0817 46.07 6.0817 45.5283C6.0817 44.9866 6.52083 44.5475 7.06254 44.5475H17.7112C18.2529 44.5475 18.6921 44.9866 18.6921 45.5283C18.6921 46.07 18.2529 46.5092 17.7112 46.5092Z" fill="#FFB262"/>
<path d="M17.7112 49.7398H7.06254C6.52083 49.7398 6.0817 49.3006 6.0817 48.7589C6.0817 48.2172 6.52083 47.7781 7.06254 47.7781H17.7112C18.2529 47.7781 18.6921 48.2172 18.6921 48.7589C18.6921 49.3006 18.2529 49.7398 17.7112 49.7398Z" fill="#FFB262"/>
<path d="M10.2206 52.9702H7.06254C6.52083 52.9702 6.0817 52.5311 6.0817 51.9894C6.0817 51.4476 6.52083 51.0085 7.06254 51.0085H10.2206C10.7623 51.0085 11.2015 51.4477 11.2015 51.9894C11.2015 52.5312 10.7623 52.9702 10.2206 52.9702Z" fill="#FFB262"/>
<path d="M26.9373 52.9702H13.272C12.7303 52.9702 12.2912 52.5311 12.2912 51.9894C12.2912 51.4476 12.7303 51.0085 13.272 51.0085H26.9373C27.479 51.0085 27.9181 51.4477 27.9181 51.9894C27.9181 52.5312 27.479 52.9702 26.9373 52.9702Z" fill="#FFB262"/>
<path d="M40.5247 51.9886C41.7994 51.9886 42.8327 50.9552 42.8327 49.6806C42.8327 48.4059 41.7994 47.3726 40.5247 47.3726C39.25 47.3726 38.2167 48.4059 38.2167 49.6806C38.2167 50.9552 39.25 51.9886 40.5247 51.9886Z" fill="#FFB262"/>
<path d="M47.6239 51.9886C48.8986 51.9886 49.9319 50.9552 49.9319 49.6806C49.9319 48.4059 48.8986 47.3726 47.6239 47.3726C46.3492 47.3726 45.3159 48.4059 45.3159 49.6806C45.3159 50.9552 46.3492 51.9886 47.6239 51.9886Z" fill="#FFB262"/>
<path d="M59.7566 51.9219H54.5681C53.9902 51.9219 53.5219 51.4534 53.5219 50.8757V48.4866C53.5219 47.9088 53.9904 47.4404 54.5681 47.4404H59.7566C60.3345 47.4404 60.8028 47.9089 60.8028 48.4866V50.8757C60.8028 51.4534 60.3343 51.9219 59.7566 51.9219Z" fill="#FFB262"/>
<path d="M58.372 38.537H25.7951C25.2534 38.537 24.8142 38.0979 24.8142 37.5562C24.8142 37.0144 25.2534 36.5753 25.7951 36.5753H58.372C58.9137 36.5753 59.3529 37.0144 59.3529 37.5562C59.3529 38.0979 58.9137 38.537 58.372 38.537Z" fill="#E98013"/>
<path d="M49.5386 17.2725C49.706 14.6177 47.8022 12.2951 45.1688 11.9189C39.8992 11.1661 36.0763 9.14666 33.5879 7.34113C32.9387 6.87115 32.0612 6.87115 31.4123 7.34113C28.9239 9.14666 25.1009 11.1661 19.8313 11.9189C17.198 12.2952 15.2942 14.6177 15.4615 17.2725C15.9255 24.6371 18.5974 38.2253 31.4123 45.3856C31.4158 45.3876 31.4194 45.3895 31.4229 45.3915C32.0906 45.7667 32.9098 45.7667 33.5773 45.3915C33.5809 45.3895 33.5844 45.3876 33.588 45.3856C46.4028 38.2251 49.0746 24.6371 49.5386 17.2725Z" fill="#014E8F"/>
<path d="M32.5 42.8499C31.9399 42.8499 31.3846 42.7072 30.8942 42.4373C30.8368 42.4058 30.7795 42.3739 30.7224 42.3419C25.4316 39.3856 21.6665 34.7865 19.5361 28.6749C17.8495 23.8365 17.6583 19.3011 17.6945 17.0284C17.7221 15.2873 19.1129 13.8526 20.8603 13.7623C25.47 13.5237 28.664 11.8581 30.5317 10.5029L30.5607 10.482C31.1303 10.0752 31.8004 9.86035 32.5 9.86035C33.1996 9.86035 33.8697 10.0752 34.4393 10.482L34.4683 10.5029C36.336 11.8581 39.53 13.5237 44.1396 13.7623C45.8872 13.8526 47.2779 15.2873 47.3055 17.0283C47.3417 19.3011 47.1505 23.8366 45.4639 28.6749C43.3335 34.7865 39.5684 39.3856 34.273 42.3445C34.2205 42.3739 34.1632 42.4058 34.1056 42.4374C33.6154 42.7072 33.0601 42.8499 32.5 42.8499Z" fill="#1B69AC"/>
<path d="M45.3441 17.0594C45.3327 16.3383 44.7585 15.7584 44.0383 15.7212C39.0191 15.4615 35.4893 13.6674 33.3162 12.0905C33.3133 12.0883 33.3102 12.0862 33.3073 12.084C32.8248 11.7344 32.1755 11.7344 31.693 12.084C31.6901 12.0862 31.687 12.0883 31.6841 12.0905C29.511 13.6674 25.9811 15.4615 20.962 15.7212C20.2418 15.7585 19.6677 16.3383 19.6562 17.0594C19.5899 21.2246 20.3331 34.2894 31.6841 40.6318C31.7359 40.6609 31.7878 40.6898 31.8401 40.7185C32.251 40.9446 32.7495 40.9446 33.1603 40.7185C33.2125 40.6898 33.2645 40.6609 33.3163 40.6318C44.6672 34.2894 45.4104 21.2246 45.3441 17.0594Z" fill="#3886C7"/>
<path d="M32.5 41.8558C31.9583 41.8558 31.5192 41.4167 31.5192 40.875V11.8353C31.5192 11.2935 31.9583 10.8545 32.5 10.8545C33.0417 10.8545 33.4808 11.2936 33.4808 11.8353V40.8748C33.4808 41.4167 33.0417 41.8558 32.5 41.8558Z" fill="#1B69AC"/>
</g>
<defs>
<linearGradient id="paint0_linear" x1="56.5057" y1="19.0482" x2="-2.12481" y2="27.0297" gradientUnits="userSpaceOnUse">
<stop stop-color="#FF9424"/>
<stop offset="1" stop-color="#FF8302"/>
</linearGradient>
<clipPath id="clip0">
<rect width="65" height="65" fill="white"/>
</clipPath>
</defs>
</svg>
