<svg width="63" height="63" viewBox="0 0 63 63" fill="none" xmlns="http://www.w3.org/2000/svg">
<g clip-path="url(#clip0)">
<path d="M17.498 28.7469C16.3105 29.1904 15.3065 30.1663 15.166 31.5328L13.8643 38.7361H43.3659L42.392 32.6929C42.1705 31.5727 42.0441 29.7098 39.8986 28.8078L34.6979 26.8705L32.2548 25.5797V22.9963C30.018 24.1223 27.2727 24.2088 24.9872 23.1529L24.9887 25.5797L22.4867 26.8929L17.498 28.7469Z" fill="#EFEFEF"/>
<path d="M32.8128 25.8745L32.2548 25.5797V22.9963C30.018 24.1223 27.2727 24.2088 24.9873 23.1529L24.9887 25.5797L24.4381 25.8687V25.8745L28.4968 28.9965L32.8128 25.8745Z" fill="#EAB883"/>
<path d="M24.6892 26.0678L28.4852 28.9877V23.8925C27.2847 23.9001 26.0831 23.6593 24.9873 23.153L24.9887 25.5798L24.6892 25.7369V26.0678Z" fill="#EBBD79"/>
<path d="M40.6656 19.9766C38.9448 17.186 39.5661 14.9484 39.4334 11.3236C39.4334 5.24863 34.8526 0.292298 29.1013 0.0122434C22.8926 -0.290206 17.7409 4.99552 17.7409 11.4848V15.7439C17.7409 17.4989 17.1849 18.9164 16.5311 19.9766C15.9193 20.9687 16.6107 22.2745 17.7409 22.2745C21.9742 22.2745 33.7364 22.2745 39.4333 22.2745V22.2464L39.4558 22.2745C40.5861 22.2745 41.2775 20.9688 40.6656 19.9766Z" fill="#785546"/>
<path d="M23.5066 19.9767C24.1605 18.9165 24.7164 17.4989 24.7164 15.744V11.4849C24.7164 6.4551 27.8117 2.1492 32.0949 0.607296C31.1489 0.269902 30.1448 0.0633058 29.1013 0.0124875C22.8926 -0.289962 17.741 4.99576 17.741 11.485V15.7442C17.741 17.4992 17.185 18.9167 16.5312 19.9768C15.9194 20.969 16.6107 22.2747 17.741 22.2747C19.2022 22.2747 23.2746 22.2747 24.7166 22.2747C23.5861 22.2746 22.8947 20.969 23.5066 19.9767Z" fill="#64463C"/>
<path d="M36.4392 12.0369H36.2148C36.2148 13.6706 36.2148 15.8962 36.2148 17.0449H36.4392C38.0908 17.0449 39.4296 15.9239 39.4296 14.5407C39.4296 13.1578 38.0908 12.0369 36.4392 12.0369Z" fill="#F5D3A1"/>
<path d="M20.9282 12.0583H20.7057C19.0683 12.0583 17.741 13.1697 17.741 14.5408C17.741 15.9121 19.0684 17.0235 20.7057 17.0235H20.9282V12.0583Z" fill="#F5D3A1"/>
<path d="M36.2148 14.7672C36.2148 15.6544 36.2148 16.48 36.2148 17.0448H36.4392C38.6881 17.0448 40.1101 15.0512 39.1022 13.402C38.6071 14.2122 36.2323 14.7631 36.2148 14.7672Z" fill="#EBBD79"/>
<path d="M18.0715 13.4019C17.0555 15.0463 18.4823 17.0234 20.7057 17.0234H20.9282V14.7458C20.8967 14.7385 18.989 14.887 18.0715 13.4019Z" fill="#EBBD79"/>
<path d="M32.0533 31.3223L32.2547 25.5797L28.4967 28.9965C31.7029 31.1751 31.634 31.2983 32.0533 31.3223Z" fill="#DDDDDD"/>
<path d="M43.366 38.7363L42.3921 32.6931C42.1706 31.5728 42.0443 29.7099 39.8987 28.808L34.698 26.8706L32.2549 25.5798L31.7936 38.7363H43.366Z" fill="#FFCA94"/>
<path d="M28.4968 28.9965L24.9887 25.5797L25.1137 31.2938C25.3625 31.2242 25.1887 31.2776 28.4968 28.9965Z" fill="#CCCCCC"/>
<path d="M13.8643 38.7363H25.2764L24.9886 25.5798L22.4866 26.893L17.498 28.7471C16.5499 29.1011 15.701 29.8161 15.3486 30.7519C15.2381 31.0451 15.3763 30.3697 13.8643 38.7363Z" fill="#FFCA94"/>
<path d="M20.0787 27.7878C18.1674 28.6163 16.0809 28.8077 15.3488 30.7517C15.2383 31.045 15.3764 30.3696 13.8644 38.7361H17.4697L18.7714 30.0144C18.8642 29.1106 19.3171 28.3621 20.0787 27.7878Z" fill="#F8AD61"/>
<path d="M35.1022 38.7363L35.6163 36.4438C35.6718 36.1961 35.6051 35.9368 35.4369 35.7467L34.1957 34.3446C34.0365 34.1647 34.0274 33.8972 34.174 33.7068L35.7302 31.6883C35.9074 31.4584 35.9636 31.1576 35.8814 30.8792L34.6977 26.8705L32.2546 25.5797L31.7933 38.7361H35.1022V38.7363Z" fill="#F7AB5E"/>
<path d="M21.2631 31.6881L22.8193 33.7067C22.966 33.8969 22.9569 34.1646 22.7976 34.3445L21.5565 35.7466C21.3883 35.9366 21.3214 36.196 21.3771 36.4437L21.8911 38.7361H25.2763L24.9885 25.5797L22.4864 26.8929L21.1116 30.8791C21.0297 31.1574 21.0859 31.4583 21.2631 31.6881Z" fill="#F7AB5E"/>
<path d="M20.9148 11.9596V17.2415C20.9148 19.9078 22.4171 22.3618 24.8145 23.5287C30.5773 26.334 36.2597 22.2123 36.2597 16.7617C36.2597 16.6328 36.2597 10.3627 36.2597 10.5813C36.2597 10.1219 35.7333 9.86587 35.3691 10.1457C34.7038 10.6568 33.6429 11.2789 32.1113 11.6512C31.5989 11.7757 31.1791 11.4458 31.1791 10.9185V9.95053C31.1791 9.71145 30.9175 9.56502 30.7139 9.69041C29.2569 10.587 25.352 12.628 21.4177 11.5724C21.1638 11.5042 20.9148 11.6967 20.9148 11.9596Z" fill="#FFE1B4"/>
<path d="M28.6104 23.5288C26.213 22.3618 24.7106 19.9079 24.7106 17.2416V11.8188C23.6523 11.9219 22.5363 11.8725 21.4177 11.5723C21.1637 11.5041 20.9148 11.6967 20.9148 11.9595V17.2414C20.9148 19.9077 22.4171 22.3617 24.8145 23.5286C26.7824 24.4866 28.7408 24.6363 30.4669 24.2016C29.8536 24.0533 29.2325 23.8316 28.6104 23.5288Z" fill="#F5D3A1"/>
<path d="M28.4852 32.3286C27.9612 32.3286 27.5363 32.7535 27.5363 33.2776V38.7362H29.4343V33.2776C29.4343 32.7534 29.0093 32.3286 28.4852 32.3286Z" fill="#DDDDDD"/>
<path d="M12.5349 34.4113C12.0109 34.4113 11.586 33.9864 11.586 33.4624V27.3059C11.586 26.3979 12.0254 25.5385 12.7614 25.0071L14.372 23.8442C14.7969 23.5375 15.3901 23.6334 15.6968 24.058C16.0037 24.483 15.9079 25.0763 15.483 25.383L13.8726 26.5458C13.6293 26.7214 13.484 27.0056 13.484 27.3057V33.4623C13.4838 33.9864 13.059 34.4113 12.5349 34.4113Z" fill="#62A4DC"/>
<path d="M14.9273 24.6135C14.3218 23.7749 14.5108 22.6042 15.3495 21.9987L16.412 21.2316C17.2503 20.6263 18.4214 20.8148 19.0269 21.6538C19.6324 22.4925 19.4434 23.6631 18.6047 24.2686L17.5422 25.0357C16.7032 25.6415 15.5327 25.452 14.9273 24.6135Z" fill="#1868AC"/>
<path d="M16.7484 21.0385C16.4478 21.1722 16.3649 21.2795 15.3495 21.9988C14.5109 22.6042 14.3219 23.775 14.9273 24.6136C15.5321 25.4512 16.7025 25.642 17.5422 25.0357C18.5916 24.2706 18.6128 24.2791 18.7865 24.117C16.968 24.6616 15.5265 22.5116 16.7484 21.0385Z" fill="#014E8F"/>
<path d="M14.9602 38.7363V35.8879C14.9602 34.5484 13.8743 33.4625 12.5348 33.4625C11.1953 33.4625 10.1094 34.5484 10.1094 35.8879V38.7363H14.9602Z" fill="#1868AC"/>
<path d="M13.7723 33.8046C12.1679 32.8492 10.1094 34.0011 10.1094 35.8878V38.7362H12.5844V35.8878C12.5844 35.0008 13.0619 34.2275 13.7723 33.8046Z" fill="#014E8F"/>
<path d="M13.1424 45.4685L14.8392 61.2702C14.9475 62.2547 15.7793 63 16.7697 63H40.1101C41.0423 63 41.8226 62.2931 41.9144 61.3654L42.8981 51.0519L43.3377 45.4685C40.8004 45.4685 13.9846 45.4685 13.1424 45.4685Z" fill="#FFA648"/>
<path d="M18.6683 61.2704L16.9715 45.4688H13.1424L14.8392 61.2704C14.9475 62.2549 15.7793 63.0001 16.7697 63.0001H20.5988C19.6084 63.0001 18.7766 62.2548 18.6683 61.2704Z" fill="#F39431"/>
<path d="M35.6176 43.0882C35.0808 42.565 35.0807 41.7037 35.6176 41.1805C36.0663 40.5579 37.3138 40.1213 37.1392 38.3567H9.24611C8.69166 38.3567 8.27281 38.8593 8.37284 39.4047L9.35156 44.7417C9.46907 45.3827 10.0278 45.8483 10.6795 45.8483H37.1475C37.2895 44.1565 36.0728 43.7071 35.6176 43.0882Z" fill="url(#paint0_linear)"/>
<path d="M16.0272 44.7417L15.0485 39.4046C14.9485 38.8592 15.3673 38.3566 15.9218 38.3566H9.24611C8.69166 38.3566 8.27281 38.8591 8.37284 39.4046L9.35156 44.7417C9.46907 45.3827 10.0277 45.8483 10.6795 45.8483H17.3551C16.7035 45.8482 16.1449 45.3827 16.0272 44.7417Z" fill="#E67E12"/>
<path d="M34.679 53.408H21.9078C21.3837 53.408 20.9588 52.9831 20.9588 52.4591C20.9588 51.9349 21.3837 51.5101 21.9078 51.5101H34.6792C35.2032 51.5101 35.6281 51.935 35.6281 52.4591C35.6281 52.9831 35.2032 53.408 34.679 53.408Z" fill="#F9DEC0"/>
<path d="M34.679 57.7695H21.9078C21.3837 57.7695 20.9588 57.3446 20.9588 56.8205C20.9588 56.2963 21.3837 55.8716 21.9078 55.8716H34.6792C35.2032 55.8716 35.6281 56.2965 35.6281 56.8205C35.6281 57.3446 35.2032 57.7695 34.679 57.7695Z" fill="#F9DEC0"/>
<path d="M54.2393 41.1803L53.4033 40.3654C52.1923 39.1852 52.9036 37.7456 52.9196 37.1509C53.0461 36.4133 52.5416 35.7154 51.7983 35.6075C51.2312 35.4402 49.6248 35.6611 48.8804 34.1526L48.3627 33.1037C48.031 32.4314 47.2118 32.1653 46.5482 32.5142C45.9911 32.7121 44.8245 33.8335 43.3356 33.0507L42.3149 32.5142C41.6605 32.1703 40.8363 32.4233 40.5005 33.1037C40.1624 33.5977 39.8763 35.1989 38.2094 35.4411L37.065 35.6075C36.3229 35.7153 35.8168 36.4121 35.9436 37.151C35.9592 37.7368 36.6639 39.192 35.4599 40.3655L34.6239 41.1804C34.0869 41.7036 34.0871 42.5651 34.6239 43.0881L35.4599 43.903C36.6708 45.0833 35.9596 46.5227 35.9436 47.1175C35.8168 47.8566 36.3231 48.5533 37.065 48.661C37.6312 48.828 39.2384 48.6075 39.9828 50.116L40.5005 51.1648C40.737 51.644 41.2145 51.9081 41.6969 51.9081C42.2117 51.9081 42.4489 51.647 43.3355 51.2178C44.8342 50.4297 45.9744 51.5506 46.5481 51.7543C47.2106 52.1025 48.0301 51.8384 48.3626 51.1648L48.8802 50.116C49.6288 48.5988 51.2192 48.8318 51.7982 48.661C52.5401 48.5533 53.0464 47.8566 52.9195 47.1175L52.7258 45.9879C52.4396 44.3188 53.8662 43.5724 54.2393 43.088C54.7761 42.5648 54.7761 41.7035 54.2393 41.1803Z" fill="#1868AC"/>
<path d="M42.6024 45.6688L40.669 43.2669C40.3403 42.8586 40.4048 42.2613 40.8132 41.9325C41.2214 41.6039 41.819 41.6684 42.1475 42.0767L43.37 43.5955L46.776 39.6817C47.1202 39.2862 47.7196 39.2449 48.1149 39.5889C48.5103 39.933 48.5518 40.5323 48.2078 40.9278L44.0574 45.6967C43.6702 46.1417 42.9734 46.1297 42.6024 45.6688Z" fill="#EFEFEF"/>
<path d="M39.0724 46.0723C36.374 41.3985 37.9708 35.4028 42.6787 32.7055L42.315 32.5143C41.6605 32.1704 40.8363 32.4233 40.5005 33.1038C40.1624 33.5977 39.8763 35.1989 38.2094 35.4412L37.065 35.6075C36.3229 35.7153 35.8168 36.4121 35.9436 37.151C35.9593 37.7369 36.6639 39.192 35.4599 40.3655L34.6239 41.1805C34.0869 41.7037 34.0871 42.5651 34.6239 43.0882L35.4599 43.903C36.6708 45.0834 35.9596 46.5228 35.9436 47.1176C35.8168 47.8566 36.3231 48.5533 37.065 48.6611C37.6312 48.8281 39.2384 48.6074 39.9828 50.116L40.5005 51.1649C40.737 51.644 41.2145 51.9082 41.6969 51.9082C42.2117 51.9082 42.449 51.6471 43.3355 51.2179C44.8342 50.4298 45.9744 51.5506 46.5481 51.7544C47.2106 52.1026 48.0301 51.8384 48.3626 51.1649L48.4872 50.9124C44.7903 51.2713 41.0506 49.4988 39.0724 46.0723Z" fill="#014E8F"/>
</g>
<defs>
<linearGradient id="paint0_linear" x1="33.3952" y1="38.3567" x2="9.30589" y2="45.9138" gradientUnits="userSpaceOnUse">
<stop stop-color="#FF9424"/>
<stop offset="1" stop-color="#FF8302"/>
</linearGradient>
<clipPath id="clip0">
<rect width="63" height="63" fill="white"/>
</clipPath>
</defs>
</svg>
