<svg width="65" height="65" viewBox="0 0 65 65" fill="none" xmlns="http://www.w3.org/2000/svg">
<path d="M30.2585 38.1035V45.9483H5.60328C3.74871 45.9538 2.24663 47.4558 2.24121 49.3104V59.3966H6.72397V50.4311H30.2585V59.3966H34.7412V50.4311H58.2757V59.3966H62.7584V49.3104C62.753 47.4558 61.251 45.9538 59.3964 45.9483H34.7412V38.1035H30.2585Z" fill="#014E8F"/>
<path d="M45.9486 13.4483C46.8406 13.4471 47.6965 13.8009 48.3272 14.4317C48.958 15.0625 49.3118 15.9183 49.3106 16.8103V23.5345C49.3118 24.4265 48.958 25.2824 48.3272 25.9131C47.6965 26.5439 46.8406 26.8977 45.9486 26.8966C46.8406 26.8954 47.6965 27.2492 48.3272 27.88C48.958 28.5107 49.3118 29.3666 49.3106 30.2586V36.9828C49.3118 37.8748 48.958 38.7307 48.3272 39.3614C47.6965 39.9922 46.8406 40.346 45.9486 40.3448H19.052C18.16 40.346 17.3041 39.9922 16.6734 39.3614C16.0426 38.7307 15.6888 37.8748 15.6899 36.9828V30.2586C15.6888 29.3666 16.0426 28.5107 16.6734 27.88C17.3041 27.2492 18.16 26.8954 19.052 26.8966C18.16 26.8977 17.3041 26.5439 16.6734 25.9131C16.0426 25.2824 15.6888 24.4265 15.6899 23.5345V16.8103C15.6888 15.9183 16.0426 15.0625 16.6734 14.4317C17.3041 13.8009 18.16 13.4471 19.052 13.4483C18.16 13.4495 17.3041 13.0956 16.6734 12.4649C16.0426 11.8341 15.6888 10.9783 15.6899 10.0862V3.36207C15.6888 2.47003 16.0426 1.61418 16.6734 0.983414C17.3041 0.352645 18.16 -0.00118877 19.052 3.00084e-06H45.9486C46.8406 -0.00118877 47.6965 0.352645 48.3272 0.983414C48.958 1.61418 49.3118 2.47003 49.3106 3.36207V10.0862C49.3118 10.9783 48.958 11.8341 48.3272 12.4649C47.6965 13.0956 46.8406 13.4495 45.9486 13.4483Z" fill="url(#paint0_linear)"/>
<path d="M4.48276 65C6.95852 65 8.96552 62.993 8.96552 60.5172C8.96552 58.0414 6.95852 56.0344 4.48276 56.0344C2.007 56.0344 0 58.0414 0 60.5172C0 62.993 2.007 65 4.48276 65Z" fill="#4488C1"/>
<path d="M60.5169 65C62.9927 65 64.9997 62.993 64.9997 60.5172C64.9997 58.0414 62.9927 56.0344 60.5169 56.0344C58.0412 56.0344 56.0342 58.0414 56.0342 60.5172C56.0342 62.993 58.0412 65 60.5169 65Z" fill="#4488C1"/>
<path d="M32.5003 65C34.9761 65 36.9831 62.993 36.9831 60.5172C36.9831 58.0414 34.9761 56.0344 32.5003 56.0344C30.0246 56.0344 28.0176 58.0414 28.0176 60.5172C28.0176 62.993 30.0246 65 32.5003 65Z" fill="#4488C1"/>
<path d="M45.9481 13.4482H19.0515C17.1947 13.4482 15.6895 14.9535 15.6895 16.8103V23.5344C15.6895 25.3913 17.1947 26.8965 19.0515 26.8965H45.9481C47.8049 26.8965 49.3101 25.3913 49.3101 23.5344V16.8103C49.3101 14.9535 47.8049 13.4482 45.9481 13.4482Z" fill="#FFCC96"/>
<path d="M42.5861 8.96567C43.824 8.96567 44.8275 7.96217 44.8275 6.72429C44.8275 5.48641 43.824 4.48291 42.5861 4.48291C41.3482 4.48291 40.3447 5.48641 40.3447 6.72429C40.3447 7.96217 41.3482 8.96567 42.5861 8.96567Z" fill="white"/>
<path d="M21.2931 8.96567C20.6741 8.96567 20.1724 8.46392 20.1724 7.84498V5.6036C20.1724 4.98466 20.6741 4.48291 21.2931 4.48291C21.912 4.48291 22.4137 4.98466 22.4137 5.6036V7.84498C22.4137 8.46392 21.912 8.96567 21.2931 8.96567Z" fill="white"/>
<path d="M25.7755 8.96567C25.1565 8.96567 24.6548 8.46392 24.6548 7.84498V5.6036C24.6548 4.98466 25.1565 4.48291 25.7755 4.48291C26.3944 4.48291 26.8962 4.98466 26.8962 5.6036V7.84498C26.8962 8.46392 26.3944 8.96567 25.7755 8.96567Z" fill="white"/>
<path d="M30.2589 8.96567C29.6399 8.96567 29.1382 8.46392 29.1382 7.84498V5.6036C29.1382 4.98466 29.6399 4.48291 30.2589 4.48291C30.8778 4.48291 31.3796 4.98466 31.3796 5.6036V7.84498C31.3796 8.46392 30.8778 8.96567 30.2589 8.96567Z" fill="white"/>
<path d="M34.7413 8.96567C34.1224 8.96567 33.6206 8.46392 33.6206 7.84498V5.6036C33.6206 4.98466 34.1224 4.48291 34.7413 4.48291C35.3602 4.48291 35.862 4.98466 35.862 5.6036V7.84498C35.862 8.46392 35.3602 8.96567 34.7413 8.96567Z" fill="white"/>
<path d="M42.5861 22.4142C43.824 22.4142 44.8275 21.4107 44.8275 20.1728C44.8275 18.9349 43.824 17.9314 42.5861 17.9314C41.3482 17.9314 40.3447 18.9349 40.3447 20.1728C40.3447 21.4107 41.3482 22.4142 42.5861 22.4142Z" fill="white"/>
<path d="M21.2931 22.4142C20.6741 22.4142 20.1724 21.9124 20.1724 21.2935V19.0521C20.1724 18.4331 20.6741 17.9314 21.2931 17.9314C21.912 17.9314 22.4137 18.4331 22.4137 19.0521V21.2935C22.4137 21.9124 21.912 22.4142 21.2931 22.4142Z" fill="white"/>
<path d="M25.7755 22.4142C25.1565 22.4142 24.6548 21.9124 24.6548 21.2935V19.0521C24.6548 18.4331 25.1565 17.9314 25.7755 17.9314C26.3944 17.9314 26.8962 18.4331 26.8962 19.0521V21.2935C26.8962 21.9124 26.3944 22.4142 25.7755 22.4142Z" fill="white"/>
<path d="M30.2589 22.4142C29.6399 22.4142 29.1382 21.9124 29.1382 21.2935V19.0521C29.1382 18.4331 29.6399 17.9314 30.2589 17.9314C30.8778 17.9314 31.3796 18.4331 31.3796 19.0521V21.2935C31.3796 21.9124 30.8778 22.4142 30.2589 22.4142Z" fill="white"/>
<path d="M34.7413 22.4142C34.1224 22.4142 33.6206 21.9124 33.6206 21.2935V19.0521C33.6206 18.4331 34.1224 17.9314 34.7413 17.9314C35.3602 17.9314 35.862 18.4331 35.862 19.0521V21.2935C35.862 21.9124 35.3602 22.4142 34.7413 22.4142Z" fill="white"/>
<path d="M42.5861 35.8622C43.824 35.8622 44.8275 34.8587 44.8275 33.6208C44.8275 32.3829 43.824 31.3794 42.5861 31.3794C41.3482 31.3794 40.3447 32.3829 40.3447 33.6208C40.3447 34.8587 41.3482 35.8622 42.5861 35.8622Z" fill="white"/>
<path d="M21.2931 35.8622C20.6741 35.8622 20.1724 35.3604 20.1724 34.7415V32.5001C20.1724 31.8811 20.6741 31.3794 21.2931 31.3794C21.912 31.3794 22.4137 31.8811 22.4137 32.5001V34.7415C22.4137 35.3604 21.912 35.8622 21.2931 35.8622Z" fill="white"/>
<path d="M25.7755 35.8622C25.1565 35.8622 24.6548 35.3604 24.6548 34.7415V32.5001C24.6548 31.8811 25.1565 31.3794 25.7755 31.3794C26.3944 31.3794 26.8962 31.8811 26.8962 32.5001V34.7415C26.8962 35.3604 26.3944 35.8622 25.7755 35.8622Z" fill="white"/>
<path d="M30.2589 35.8622C29.6399 35.8622 29.1382 35.3604 29.1382 34.7415V32.5001C29.1382 31.8811 29.6399 31.3794 30.2589 31.3794C30.8778 31.3794 31.3796 31.8811 31.3796 32.5001V34.7415C31.3796 35.3604 30.8778 35.8622 30.2589 35.8622Z" fill="white"/>
<path d="M34.7413 35.8622C34.1224 35.8622 33.6206 35.3604 33.6206 34.7415V32.5001C33.6206 31.8811 34.1224 31.3794 34.7413 31.3794C35.3602 31.3794 35.862 31.8811 35.862 32.5001V34.7415C35.862 35.3604 35.3602 35.8622 34.7413 35.8622Z" fill="white"/>
<defs>
<linearGradient id="paint0_linear" x1="44.917" y1="3.78716e-06" x2="14.1711" y2="2.09079" gradientUnits="userSpaceOnUse">
<stop stop-color="#FF9424"/>
<stop offset="1" stop-color="#FF8302"/>
</linearGradient>
</defs>
</svg>
