<svg width="59" height="59" viewBox="0 0 59 59" fill="none" xmlns="http://www.w3.org/2000/svg">
<path d="M22.1008 25.105C20.6085 26.8254 19.7051 29.0667 19.7051 31.5166V43.6162H7.0293C6.07516 43.6162 5.30078 42.8418 5.30078 41.8877V33.2451C5.30078 27.526 9.95279 22.874 15.6719 22.874C18.0284 22.874 20.2755 23.6599 22.1008 25.105Z" fill="#FFA649"/>
<path d="M22.1008 25.105C20.6085 26.8254 19.7051 29.0667 19.7051 31.5166V43.6162H15.6719V22.874C17.3094 22.874 18.8938 23.2531 20.3204 23.9699C20.9473 24.2845 21.5442 24.6636 22.1008 25.105Z" fill="url(#paint0_linear)"/>
<path d="M53.6993 33.2451V41.8877C53.6993 42.8418 52.9249 43.6162 51.9707 43.6162H39.295V31.5166C39.295 29.0667 38.3915 26.8254 36.9004 25.105C38.7246 23.6588 40.9659 22.874 43.3282 22.874C49.0472 22.874 53.6993 27.526 53.6993 33.2451Z" fill="#FFA649"/>
<path d="M53.6992 33.2451V41.8877C53.6992 42.8418 52.9248 43.6162 51.9707 43.6162H43.3281V22.874C44.9979 22.874 46.5754 23.2704 47.9732 23.9745C51.3657 25.68 53.6992 29.1946 53.6992 33.2451Z" fill="url(#paint1_linear)"/>
<path d="M29.5 21.1455C23.7814 21.1455 19.1289 25.798 19.1289 31.5166V45.3447C19.1289 46.2993 19.9028 47.0732 20.8574 47.0732H38.1426C39.0972 47.0732 39.8711 46.2993 39.8711 45.3447V31.5166C39.8711 25.798 35.2186 21.1455 29.5 21.1455Z" fill="#1666AA"/>
<path d="M39.8711 31.5166V45.3447C39.8711 46.2989 39.0967 47.0732 38.1426 47.0732H29.5V21.1455C31.2481 21.1455 32.8971 21.5799 34.3421 22.3474C37.6275 24.0886 39.8711 27.5456 39.8711 31.5166Z" fill="#014E8F"/>
<path d="M57.2715 42.752C56.3169 42.752 55.543 43.5259 55.543 44.4805V53.2383H46.7852C45.8306 53.2383 45.0566 54.0122 45.0566 54.9668C45.0566 55.9214 45.8306 56.6953 46.7852 56.6953H57.2715C58.2261 56.6953 59 55.9214 59 54.9668V44.4805C59 43.5259 58.2261 42.752 57.2715 42.752Z" fill="#014E8F"/>
<path d="M12.2148 53.2383H3.45703V44.4805C3.45703 43.5259 2.68312 42.752 1.72852 42.752C0.773914 42.752 0 43.5259 0 44.4805V54.9668C0 55.9214 0.773914 56.6953 1.72852 56.6953H12.2148C13.1694 56.6953 13.9434 55.9214 13.9434 54.9668C13.9434 54.0122 13.1694 53.2383 12.2148 53.2383Z" fill="#014E8F"/>
<path d="M12.2148 2.30469H1.72852C0.773914 2.30469 0 3.0786 0 4.0332V14.5195C0 15.4741 0.773914 16.248 1.72852 16.248C2.68312 16.248 3.45703 15.4741 3.45703 14.5195V5.76172H12.2148C13.1694 5.76172 13.9434 4.9878 13.9434 4.0332C13.9434 3.0786 13.1694 2.30469 12.2148 2.30469Z" fill="#014E8F"/>
<path d="M57.2715 2.30469H46.6699C45.7153 2.30469 44.9414 3.0786 44.9414 4.0332C44.9414 4.9878 45.7153 5.76172 46.6699 5.76172H55.543V14.5195C55.543 15.4741 56.3169 16.248 57.2715 16.248C58.2261 16.248 59 15.4741 59 14.5195V4.0332C59 3.0786 58.2261 2.30469 57.2715 2.30469Z" fill="#014E8F"/>
<path d="M29.5 24.6025C33.0003 24.6025 35.8379 21.765 35.8379 18.2646C35.8379 14.7643 33.0003 11.9268 29.5 11.9268C25.9997 11.9268 23.1621 14.7643 23.1621 18.2646C23.1621 21.765 25.9997 24.6025 29.5 24.6025Z" fill="#FECEC0"/>
<path d="M35.8379 18.2646C35.8379 19.818 35.2755 21.2446 34.3421 22.3474C33.1806 23.7256 31.4405 24.6025 29.5 24.6025V11.9268C32.9951 11.9268 35.8379 14.7696 35.8379 18.2646Z" fill="#FEB99E"/>
<path d="M43.3281 26.3311C46.5102 26.3311 49.0898 23.7514 49.0898 20.5693C49.0898 17.3872 46.5102 14.8076 43.3281 14.8076C40.146 14.8076 37.5664 17.3872 37.5664 20.5693C37.5664 23.7514 40.146 26.3311 43.3281 26.3311Z" fill="#FECEC0"/>
<path d="M49.0898 20.5693C49.0898 21.8415 48.675 23.0192 47.9732 23.9745C46.9234 25.4023 45.2318 26.3311 43.3281 26.3311V14.8076C46.5051 14.8076 49.0898 17.3923 49.0898 20.5693Z" fill="#FEB99E"/>
<path d="M15.6719 26.3311C18.854 26.3311 21.4336 23.7514 21.4336 20.5693C21.4336 17.3872 18.854 14.8076 15.6719 14.8076C12.4898 14.8076 9.91016 17.3872 9.91016 20.5693C9.91016 23.7514 12.4898 26.3311 15.6719 26.3311Z" fill="#FECEC0"/>
<path d="M21.4336 20.5693C21.4336 21.8392 21.0199 23.0158 20.3204 23.9699C19.2706 25.4011 17.5779 26.3311 15.6719 26.3311V14.8076C18.8489 14.8076 21.4336 17.3923 21.4336 20.5693Z" fill="#FEB99E"/>
<defs>
<linearGradient id="paint0_linear" x1="21.2607" y1="22.874" x2="15.358" y2="23.0233" gradientUnits="userSpaceOnUse">
<stop stop-color="#FF9424"/>
<stop offset="1" stop-color="#FF8302"/>
</linearGradient>
<linearGradient id="paint1_linear" x1="52.3439" y1="22.874" x2="42.8316" y2="23.2621" gradientUnits="userSpaceOnUse">
<stop stop-color="#FF9424"/>
<stop offset="1" stop-color="#FF8302"/>
</linearGradient>
</defs>
</svg>
