<svg width="65" height="65" viewBox="0 0 65 65" fill="none" xmlns="http://www.w3.org/2000/svg">
<path d="M59.5504 65H12.2534V1.32111C12.2534 0.591621 12.8451 0 13.5746 0H59.5504C60.2799 0 60.8715 0.591621 60.8715 1.32111V63.6789C60.8715 64.4084 60.2799 65 59.5504 65Z" fill="#B8DCFC"/>
<path d="M57.4364 0V25.6143C57.4364 26.6745 56.2422 27.3133 55.3724 26.7063C53.4468 25.3624 51.1061 24.5734 48.5849 24.5734C42.0284 24.5734 36.6944 29.9074 36.6944 36.4638C36.6944 36.5461 36.6954 36.628 36.6969 36.7103C36.7123 37.4467 36.1137 38.0492 35.3768 38.0492H12.2534V65H49.774V49.4344C49.774 48.8036 50.2194 48.2586 50.8388 48.139C52.4892 47.8207 54.019 47.1601 55.3516 46.2337C56.2323 45.6218 57.4364 46.2342 57.4364 47.3069V65H59.5499C60.2799 65 60.871 64.4084 60.871 63.6789V1.32111C60.8715 0.591621 60.2799 0 59.5504 0H57.4364Z" fill="#AFD3F1"/>
<path d="M36.5625 5.54871H23.0871C21.6276 5.54871 20.4444 6.73145 20.4444 8.19092V19.817C20.4444 21.2765 21.6276 22.4593 23.0871 22.4593H50.0379C51.4973 22.4593 52.6806 21.2765 52.6806 19.817V8.19092C52.6806 6.73145 51.4973 5.54871 50.0379 5.54871H36.5625Z" fill="url(#paint0_linear)"/>
<path d="M50.0379 5.54871H47.5281C48.987 5.54871 50.1703 6.73145 50.1703 8.19092V19.817C50.1703 21.2765 48.987 22.4593 47.5281 22.4593H50.0379C51.4973 22.4593 52.6806 21.2765 52.6806 19.817V8.19092C52.6806 6.73195 51.4973 5.54871 50.0379 5.54871Z" fill="#EE8416"/>
<path d="M5.38361 40.6909C4.65412 40.6909 4.0625 41.2825 4.0625 42.012V63.6789C4.0625 64.4083 4.65412 64.9995 5.38361 64.9995H45.8107C46.5402 64.9995 47.1318 64.4083 47.1318 63.6789V40.6909H5.38361Z" fill="#4092D8"/>
<path d="M44.8859 40.6909V65H45.8107C46.5402 65 47.1318 64.4083 47.1318 63.6789V40.6909H44.8859Z" fill="#1267AE"/>
<path d="M25.5969 60.9043H12.6512C12.0844 60.9043 11.5706 60.5467 11.4 60.0067C11.0846 59.0084 10.3844 58.2452 9.35734 57.9194C8.8039 57.7438 8.42255 57.2375 8.42255 56.6568V49.1001C8.42255 48.5417 8.78307 48.0587 9.30775 47.8673C10.3011 47.5048 11.0598 46.7311 11.3945 45.779C11.5775 45.2583 12.0804 44.9186 12.6323 44.9186H38.5372C39.1026 44.9186 39.6208 45.2667 39.8018 45.8018C40.1395 46.7986 40.8923 47.5514 41.8886 47.8886C42.4242 48.0701 42.7718 48.5883 42.7718 49.1532V56.6578C42.7718 57.2271 42.4118 57.7453 41.8673 57.9114C40.8556 58.2204 40.1078 58.9479 39.7859 59.9779C39.6163 60.5224 39.1293 60.9048 38.559 60.9048H25.5969V60.9043Z" fill="#1267AE"/>
<path d="M40.8258 49.418C40.8382 49.4234 40.8506 49.4289 40.863 49.4338C40.9577 49.474 41.0207 49.5653 41.0207 49.6679V56.1549C41.0207 56.2581 40.9577 56.3488 40.863 56.389C39.6922 56.8859 38.7529 57.8251 38.2565 58.996C38.2159 59.0907 38.1251 59.1537 38.0224 59.1537H10.9983C11.16 59.4007 11.2904 59.6729 11.3866 59.9665C11.5681 60.5189 12.0675 60.9048 12.6492 60.9048H38.559C39.1293 60.9048 39.6163 60.5219 39.7859 59.9779C40.1077 58.9479 40.8561 58.2204 41.8672 57.9114C42.4113 57.7453 42.7718 57.2271 42.7718 56.6578V49.1532C42.7718 48.5883 42.4241 48.0701 41.8886 47.8886C40.8923 47.5514 40.1395 46.7986 39.8018 45.8018C39.6208 45.2667 39.1025 44.9186 38.5372 44.9186H38.193V45.3218C38.193 47.0847 39.2087 48.7163 40.8258 49.418Z" fill="#014E8F"/>
<path d="M57.8331 36.4633C57.8331 41.5712 53.6922 45.7116 48.5848 45.7116C43.4775 45.7116 39.3366 41.5712 39.3366 36.4633C39.3366 31.3559 43.4775 27.2156 48.5848 27.2156C53.6922 27.2156 57.8331 31.3559 57.8331 36.4633Z" fill="#FFAF5C"/>
<path d="M54.2075 29.1233C55.4031 30.6814 56.1152 32.6299 56.1152 34.7459C56.1152 39.8533 51.9749 43.9942 46.8675 43.9942C44.7515 43.9942 42.803 43.282 41.2449 42.0864C42.9349 44.2897 45.5935 45.7115 48.5848 45.7115C53.6922 45.7115 57.8331 41.5711 57.8331 36.4633C57.8331 33.4719 56.4108 30.8134 54.2075 29.1233Z" fill="url(#paint1_linear)"/>
<path d="M29.8246 8.65369H24.5401C23.9932 8.65369 23.5493 9.09703 23.5493 9.64452C23.5493 10.1915 23.9927 10.6353 24.5401 10.6353H26.1915V18.3641C26.1915 18.9111 26.6354 19.3549 27.1824 19.3549C27.7298 19.3549 28.1732 18.9111 28.1732 18.3641V10.6353H29.8246C30.3721 10.6353 30.8154 10.1915 30.8154 9.64452C30.8154 9.09703 30.3721 8.65369 29.8246 8.65369Z" fill="white"/>
<path d="M37.8836 8.65369H35.2414C33.9664 8.65369 32.9294 9.69064 32.9294 10.9656V18.3636C32.9294 18.9111 33.3733 19.3544 33.9203 19.3544C34.4673 19.3544 34.9111 18.9111 34.9111 18.3636V14.9949H38.2139V18.3636C38.2139 18.9111 38.6577 19.3544 39.2047 19.3544C39.7522 19.3544 40.1955 18.9111 40.1955 18.3636V10.9656C40.1955 9.69064 39.1586 8.65369 37.8836 8.65369ZM34.9111 13.0132V10.9656C34.9111 10.7836 35.0594 10.6353 35.2414 10.6353H37.8836C38.0656 10.6353 38.2139 10.7831 38.2139 10.9656V13.0132H34.9111Z" fill="white"/>
<path d="M47.1011 14.004L49.4324 10.1577C49.716 9.69003 49.5663 9.08055 49.0981 8.79689C48.6305 8.51323 48.021 8.663 47.7373 9.13064L45.9426 12.0922L44.1475 9.13064C43.8643 8.663 43.2548 8.51323 42.7867 8.79689C42.319 9.08055 42.1693 9.68953 42.4529 10.1577L44.7837 14.004L42.4529 17.8502C42.1693 18.3179 42.3185 18.9274 42.7867 19.211C42.9473 19.3082 43.1244 19.3543 43.2994 19.3543C43.6342 19.3543 43.9615 19.1847 44.1475 18.8773L45.9426 15.9157L47.7373 18.8773C47.9238 19.1847 48.2506 19.3543 48.5859 19.3543C48.7609 19.3543 48.9379 19.3082 49.0981 19.211C49.5663 18.9274 49.716 18.3179 49.4324 17.8502L47.1011 14.004Z" fill="white"/>
<path d="M31.1363 51.9109H30.4514C29.9912 49.6526 27.9897 47.9476 25.5969 47.9476C23.2047 47.9476 21.2027 49.6526 20.7425 51.9109H20.0408C19.4938 51.9109 19.0499 52.3548 19.0499 52.9018C19.0499 53.4493 19.4938 53.8926 20.0408 53.8926H20.7425C21.2027 56.1515 23.2047 57.8564 25.5969 57.8564C27.9897 57.8564 29.9912 56.1515 30.4514 53.8926H31.1363C31.6833 53.8926 32.1271 53.4493 32.1271 52.9018C32.1271 52.3548 31.6833 51.9109 31.1363 51.9109ZM25.5969 55.8743C23.958 55.8743 22.6245 54.5408 22.6245 52.9018C22.6245 51.2628 23.958 49.9293 25.5969 49.9293C27.2359 49.9293 28.5694 51.2628 28.5694 52.9018C28.5694 54.5408 27.2359 55.8743 25.5969 55.8743Z" fill="#4092D8"/>
<path d="M37.8524 51.9109H34.5263C33.9788 51.9109 33.535 52.3547 33.535 52.9017C33.535 53.4492 33.9788 53.8925 34.5263 53.8925H37.8524C38.3999 53.8925 38.8437 53.4492 38.8437 52.9017C38.8437 52.3547 38.3999 51.9109 37.8524 51.9109Z" fill="#4092D8"/>
<path d="M16.668 51.9109H13.3415C12.7945 51.9109 12.3506 52.3547 12.3506 52.9017C12.3506 53.4492 12.7945 53.8925 13.3415 53.8925H16.668C17.215 53.8925 17.6589 53.4492 17.6589 52.9017C17.6589 52.3547 17.2155 51.9109 16.668 51.9109Z" fill="#4092D8"/>
<path d="M47.9337 33.7954V32.8373C47.9337 31.6872 46.998 30.752 45.8484 30.752C44.6984 30.752 43.7626 31.6872 43.7626 32.8373V33.7954C43.7626 34.9454 44.6984 35.8807 45.8484 35.8807C46.998 35.8807 47.9337 34.9454 47.9337 33.7954Z" fill="white"/>
<path d="M51.3218 37.046C50.1718 37.046 49.236 37.9818 49.236 39.1313V40.0894C49.236 41.2394 50.1718 42.1747 51.3218 42.1747C52.4713 42.1747 53.4071 41.2394 53.4071 40.0894V39.1313C53.4071 37.9818 52.4713 37.046 51.3218 37.046Z" fill="white"/>
<path d="M51.5063 30.864C51.0208 30.6111 50.4228 30.7991 50.1693 31.2846L45.2435 40.7257C44.9905 41.2107 45.1785 41.8093 45.6635 42.0627C45.8098 42.1391 45.9665 42.1753 46.1212 42.1753C46.4783 42.1753 46.8234 41.9814 47.0005 41.6427L51.9264 32.201C52.1793 31.716 51.9913 31.1175 51.5063 30.864Z" fill="white"/>
<path d="M37.355 28.7346H20.4444C19.8974 28.7346 19.4536 28.2912 19.4536 27.7438C19.4536 27.1968 19.8974 26.7529 20.4444 26.7529H37.355C37.9025 26.7529 38.3463 27.1968 38.3463 27.7438C38.3463 28.2912 37.9025 28.7346 37.355 28.7346Z" fill="#014E8F"/>
<path d="M32.0705 37.5866H20.4444C19.8974 37.5866 19.4536 37.1428 19.4536 36.5958C19.4536 36.0483 19.8974 35.6045 20.4444 35.6045H32.0705C32.618 35.6045 33.0614 36.0483 33.0614 36.5958C33.0614 37.1428 32.618 37.5866 32.0705 37.5866Z" fill="#014E8F"/>
<path d="M32.0705 33.1606H20.4444C19.8974 33.1606 19.4536 32.7173 19.4536 32.1698C19.4536 31.6228 19.8974 31.179 20.4444 31.179H32.0705C32.618 31.179 33.0614 31.6223 33.0614 32.1698C33.0614 32.7173 32.618 33.1606 32.0705 33.1606Z" fill="#014E8F"/>
<defs>
<linearGradient id="paint0_linear" x1="48.4679" y1="5.54871" x2="19.5515" y2="10.0468" gradientUnits="userSpaceOnUse">
<stop stop-color="#FF9424"/>
<stop offset="1" stop-color="#FF8302"/>
</linearGradient>
<linearGradient id="paint1_linear" x1="55.6653" y1="29.1233" x2="40.5261" y2="30.3587" gradientUnits="userSpaceOnUse">
<stop stop-color="#FF9424"/>
<stop offset="1" stop-color="#FF8302"/>
</linearGradient>
</defs>
</svg>
