<svg width="63" height="63" viewBox="0 0 63 63" fill="none" xmlns="http://www.w3.org/2000/svg">
<g clip-path="url(#clip0)">
<path d="M20.3239 13.8091L18.4441 13.1564V13.1689L14.9435 19.2438C14.5647 19.9009 13.6164 19.9009 13.2376 19.2438L9.73656 13.1689L9.73511 13.1569L7.85672 13.8091C4.76612 14.8824 2.69403 17.7951 2.69403 21.0669V24.8213H25.4866V21.0669C25.4866 17.7951 23.4145 14.8824 20.3239 13.8091Z" fill="#636363"/>
<path d="M20.3239 13.8092L19.6058 13.5602C21.4991 14.9848 22.6695 17.2405 22.6695 19.6996V24.8214H25.4866V21.067C25.4866 17.7952 23.4145 14.8825 20.3239 13.8092Z" fill="#494949"/>
<path d="M9.73661 13.1688L13.2377 19.2438C13.6164 19.9009 14.5648 19.9009 14.9435 19.2438L18.4441 13.1688V13.1563L16.2672 12.4008H11.9135L9.73517 13.1568L9.73661 13.1688Z" fill="#DDF5FF"/>
<path d="M27.0233 29.4312H1.15741C0.450372 29.4312 -0.123047 28.8578 -0.123047 28.1508V26.1017C-0.123047 25.3947 0.450372 24.8213 1.15741 24.8213H27.0233C27.7303 24.8213 28.3037 25.3947 28.3037 26.1017V28.1508C28.3037 28.8578 27.7303 29.4312 27.0233 29.4312Z" fill="#DDF5FF"/>
<path d="M26.2552 24.8213V26.1017C26.2552 26.8088 25.6818 27.3822 24.9747 27.3822H-0.123047V28.1508C-0.123047 28.8578 0.450372 29.4312 1.15741 29.4312H27.0233C27.7303 29.4312 28.3037 28.8578 28.3037 28.1508V26.1017C28.3037 25.3947 27.7303 24.8213 27.0233 24.8213H26.2552Z" fill="#C1E9F4"/>
<path d="M23.8702 62.7237H4.31052C3.62223 62.7237 3.05746 62.1801 3.03102 61.4927L1.79767 29.4313H26.3831L25.1502 61.4927C25.1237 62.1801 24.5585 62.7237 23.8702 62.7237Z" fill="#357AB5"/>
<path d="M1.79767 29.4313L1.88659 31.736H22.6196C23.3463 31.736 23.9269 32.3397 23.8991 33.0655L22.7585 62.7237H23.8707C24.559 62.7237 25.1238 62.1801 25.1502 61.4927L26.3835 29.4308H1.79767V29.4313Z" fill="#014E8F"/>
<path d="M19.4684 5.87015C19.4684 2.89972 17.0608 0.492126 14.0904 0.492126C11.1204 0.492126 8.71234 2.89972 8.71234 5.87015V8.30273C8.71234 11.2732 11.1199 13.6808 14.0904 13.6808C17.0608 13.6808 19.4684 11.2732 19.4684 8.30273V5.87015Z" fill="#FFE1B4"/>
<path d="M14.0903 0.492126C13.7173 0.492126 13.3535 0.530098 13.0016 0.602196C15.4501 1.10544 17.2915 3.2727 17.2915 5.87015V8.30273C17.2915 10.9002 15.4501 13.0674 13.0016 13.5707C13.3535 13.6428 13.7173 13.6808 14.0903 13.6808C17.0608 13.6808 19.4683 11.2732 19.4683 8.30273V5.87015C19.4683 2.89972 17.0608 0.492126 14.0903 0.492126Z" fill="#ECCC9C"/>
<path d="M15.8832 38.7786H9.44049C8.89688 38.7786 8.45612 39.2193 8.45612 39.7629V45.2212C8.45612 45.7648 8.89688 46.2056 9.44049 46.2056H14.8988C15.4424 46.2056 15.8832 45.7648 15.8832 45.2212V38.7786Z" fill="url(#paint0_linear)"/>
<path d="M19.7245 36.2177H13.2819C12.7382 36.2177 12.2975 36.6584 12.2975 37.202V42.6603C12.2975 43.2039 12.7382 43.6447 13.2819 43.6447H19.7245V36.2177Z" fill="#FFAA50"/>
<path d="M54.8973 13.8091L53.017 13.1564V13.1689L49.5164 19.2438C49.1377 19.9009 48.1893 19.9009 47.8106 19.2438L44.31 13.1689L44.3081 13.1569L42.4301 13.8091C39.3391 14.8824 37.267 17.7951 37.267 21.0669V24.8213H60.06V21.0669C60.06 17.7951 57.9879 14.8824 54.8973 13.8091Z" fill="#636363"/>
<path d="M54.8973 13.8092L54.1792 13.5602C56.0725 14.9848 57.2429 17.2405 57.2429 19.6996V24.8214H60.06V21.067C60.06 17.7952 57.9879 14.8825 54.8973 13.8092Z" fill="#494949"/>
<path d="M44.3099 13.1688L47.811 19.2438C48.1897 19.9009 49.1381 19.9009 49.5168 19.2438L53.0174 13.1688V13.1563L50.8405 12.4008H46.4868L44.3085 13.1568L44.3099 13.1688Z" fill="#DDF5FF"/>
<path d="M61.5966 29.4312H35.7308C35.0237 29.4312 34.4503 28.8578 34.4503 28.1508V26.1017C34.4503 25.3947 35.0237 24.8213 35.7308 24.8213H61.5966C62.3036 24.8213 62.8771 25.3947 62.8771 26.1017V28.1508C62.8771 28.8578 62.3036 29.4312 61.5966 29.4312Z" fill="#DDF5FF"/>
<path d="M60.8285 24.8213V26.1017C60.8285 26.8088 60.2551 27.3822 59.5481 27.3822H34.4503V28.1508C34.4503 28.8578 35.0237 29.4312 35.7308 29.4312H61.5966C62.3036 29.4312 62.8771 28.8578 62.8771 28.1508V26.1017C62.8771 25.3947 62.3036 24.8213 61.5966 24.8213H60.8285Z" fill="#C1E9F4"/>
<path d="M58.4435 62.7237H38.8838C38.1955 62.7237 37.6303 62.1801 37.6038 61.4927L36.371 29.4308H60.9563L59.723 61.4927C59.6966 62.1801 59.1318 62.7237 58.4435 62.7237Z" fill="url(#paint1_linear)"/>
<path d="M36.371 29.4313L36.4594 31.736H57.1928C57.9191 31.736 58.5002 32.3397 58.4723 33.0655L57.3317 62.7237H58.444C59.1318 62.7237 59.697 62.1801 59.7235 61.4927L60.9563 29.4308H36.371V29.4313Z" fill="#E0801C"/>
<path d="M54.0417 5.87015C54.0417 2.89972 51.6341 0.492126 48.6637 0.492126C45.6932 0.492126 43.2856 2.89972 43.2856 5.87015V8.30273C43.2856 11.2732 45.6932 13.6808 48.6637 13.6808C51.6336 13.6808 54.0417 11.2732 54.0417 8.30273V5.87015Z" fill="#FFE1B4"/>
<path d="M48.6637 0.492126C48.2907 0.492126 47.9269 0.530098 47.575 0.602196C50.0235 1.10544 51.8649 3.2727 51.8649 5.87015V8.30273C51.8649 10.9002 50.0235 13.0674 47.575 13.5707C47.9269 13.6428 48.2907 13.6808 48.6637 13.6808C51.6341 13.6808 54.0417 11.2732 54.0417 8.30273V5.87015C54.0417 2.89972 51.6341 0.492126 48.6637 0.492126Z" fill="#ECCC9C"/>
<path d="M46.8708 38.7786H53.3135C53.8571 38.7786 54.2979 39.2193 54.2979 39.7629V45.2212C54.2979 45.7648 53.8571 46.2056 53.3135 46.2056H47.8552C47.3116 46.2056 46.8708 45.7648 46.8708 45.2212V38.7786Z" fill="#014E8F"/>
<path d="M43.0295 36.2177H49.4721C50.0158 36.2177 50.4565 36.6584 50.4565 37.202V42.6603C50.4565 43.2039 50.0158 43.6447 49.4721 43.6447H43.0295V36.2177Z" fill="#357AB5"/>
<path d="M19.7246 55.7452C19.1939 55.7452 18.7642 55.3155 18.7642 54.7848V35.3212C18.7642 34.7911 19.1939 34.3609 19.7246 34.3609C20.2552 34.3609 20.6849 34.7911 20.6849 35.3212V54.7848C20.6849 55.3155 20.2552 55.7452 19.7246 55.7452Z" fill="#04447B"/>
<path d="M43.0295 55.7452C42.4989 55.7452 42.0692 55.3155 42.0692 54.7848V35.3212C42.0692 34.7911 42.4989 34.3609 43.0295 34.3609C43.5601 34.3609 43.9898 34.7911 43.9898 35.3212V54.7848C43.9898 55.3155 43.5601 55.7452 43.0295 55.7452Z" fill="#995B1B"/>
</g>
<defs>
<linearGradient id="paint0_linear" x1="14.9126" y1="38.7786" x2="8.13432" y2="39.3317" gradientUnits="userSpaceOnUse">
<stop stop-color="#FF9424"/>
<stop offset="1" stop-color="#FF8302"/>
</linearGradient>
<linearGradient id="paint1_linear" x1="57.7435" y1="29.4308" x2="35.238" y2="30.787" gradientUnits="userSpaceOnUse">
<stop stop-color="#FF9424"/>
<stop offset="1" stop-color="#FF8302"/>
</linearGradient>
<clipPath id="clip0">
<rect width="63" height="63" fill="white"/>
</clipPath>
</defs>
</svg>
