<svg width="63" height="63" viewBox="0 0 63 63" fill="none" xmlns="http://www.w3.org/2000/svg">
<g clip-path="url(#clip0)">
<path d="M52.1346 42.0821L51.1904 41.8923C50.5204 41.7577 50.0383 41.1691 50.0383 40.4857V39.1251H43.862V40.52C43.862 41.2034 43.3799 41.7919 42.7099 41.9267L41.9366 42.0821V47.2756H52.1346V42.0821Z" fill="#FFE1B4"/>
<path d="M47.3533 39.1251V41.6598C47.3533 42.3432 47.8352 42.9317 48.5054 43.0664L52.1345 43.7888V42.0821L51.1902 41.8923C50.5203 41.7577 50.0382 41.1691 50.0382 40.4857V39.1251H47.3533Z" fill="#FAD098"/>
<path d="M52.1338 42.082L49.3328 42.818C47.827 43.2136 46.2446 43.2136 44.7387 42.818L41.9377 42.082L35.9126 43.856C33.0421 44.7012 31.0713 47.3359 31.0713 50.3281V61.3378H63.0001V50.3281C63.0001 47.3359 61.0293 44.7011 58.1588 43.856L52.1338 42.082Z" fill="#014E8F"/>
<path d="M58.1587 43.8561L52.1336 42.0822L48.6002 43.0105L51.4724 43.8562C54.3428 44.7013 56.3137 47.3361 56.3137 50.3284V61.338H63V50.3284C63 47.336 61.0292 44.7012 58.1587 43.8561Z" fill="#074375"/>
<path d="M29.8116 28.4991C24.9414 16.9263 16.6067 17.5633 16.4587 17.5756C16.3107 17.5633 7.97586 16.9263 3.10578 28.4991C0.734548 34.1336 0.144047 39.0186 0.00352708 41.4526C-0.051721 42.4092 0.546902 43.2817 1.4604 43.5711L16.4587 48.321L31.457 43.5711C32.3705 43.2818 32.9691 42.4093 32.9139 41.4526C32.7734 39.0186 32.1827 34.1336 29.8116 28.4991Z" fill="#C1DAF0"/>
<path d="M32.9139 41.4526C32.7734 39.0185 32.1829 34.1335 29.8117 28.4991C24.9415 16.9263 16.6068 17.5633 16.4587 17.5756C16.3998 17.5707 15.041 17.4674 13.1202 18.0757C16.0211 18.9942 20.2047 21.5365 23.1347 28.4991C25.5058 34.1337 26.0964 39.0186 26.2369 41.4526C26.2922 42.4092 25.6935 43.2818 24.78 43.5711L13.1202 47.2636L16.4587 48.3208L31.4571 43.571C32.3704 43.2818 32.9691 42.4093 32.9139 41.4526Z" fill="#ACC9E1"/>
<path d="M26.6399 44.7839L21.1259 43.1604V43.1602L20.2616 42.9864C19.6484 42.8631 19.2071 42.3244 19.2071 41.6988V40.4536H13.5539V41.7303C13.5539 42.3559 13.1126 42.8946 12.4993 43.0179L11.7916 43.1602V43.1604L6.2776 44.7839C3.6503 45.5575 1.84644 47.9691 1.84644 50.708V61.3443H31.0713V50.708C31.0711 47.9691 29.2672 45.5575 26.6399 44.7839Z" fill="#FFE1B4"/>
<path d="M26.6399 44.7839L21.1259 43.1604V43.1602L20.2616 42.9864C19.6484 42.8631 19.2071 42.3244 19.2071 41.6988V40.4536H16.4587V41.9678C16.4587 43.0255 17.1553 43.9568 18.17 44.2555L19.9645 44.7839C22.5918 45.5575 24.3956 47.9691 24.3956 50.708V61.3443H31.0711V50.708C31.0711 47.9691 29.2672 45.5575 26.6399 44.7839Z" fill="#FAD098"/>
<path d="M16.4587 23.3899C18.4302 23.3899 20.0283 21.7918 20.0283 19.8203C20.0283 17.8489 18.4302 16.2507 16.4587 16.2507C14.4873 16.2507 12.8892 17.8489 12.8892 19.8203C12.8892 21.7918 14.4873 23.3899 16.4587 23.3899Z" fill="#D59F63"/>
<path d="M26.0384 34.5329H24.3561V30.3903H26.0384C26.7744 30.3903 27.3712 30.987 27.3712 31.7231V33.2C27.3712 33.9362 26.7744 34.5329 26.0384 34.5329Z" fill="#FAD098"/>
<path d="M6.87911 34.5329H8.56141V30.3903H6.87911C6.14304 30.3903 5.54626 30.987 5.54626 31.7231V33.2C5.54626 33.9362 6.14304 34.5329 6.87911 34.5329Z" fill="#FAD098"/>
<path d="M16.4588 41.0791C11.8526 41.0791 8.11865 37.3451 8.11865 32.739V30.3952C8.11865 25.789 11.8526 22.0551 16.4588 22.0551C21.0649 22.0551 24.7989 25.789 24.7989 30.3952V32.739C24.7988 37.3451 21.0648 41.0791 16.4588 41.0791Z" fill="#FFE1B4"/>
<path d="M20.0281 22.8578V34.2486C20.0281 37.0744 18.6214 39.5702 16.4714 41.0787C21.0717 41.0718 24.7988 37.3408 24.7988 32.739V30.3952C24.7988 27.0666 22.848 24.1954 20.0281 22.8578Z" fill="#FAD098"/>
<path d="M26.2683 29.9102V29.7833C26.2683 24.3655 21.8763 19.9736 16.4586 19.9736C11.0408 19.9736 6.64893 24.3655 6.64893 29.7833V29.9102C6.64893 30.1753 6.86389 30.3904 7.12918 30.3904H8.39016C8.72571 30.3904 9.02964 30.1924 9.16511 29.8854L9.86709 27.2506C10.111 26.3353 11.2238 25.9863 11.9474 26.5975C13.7736 28.1398 16.9781 30.3903 20.1288 30.3903H25.7881C26.0533 30.3903 26.2683 30.1753 26.2683 29.9102Z" fill="#D59F63"/>
<path d="M16.4588 19.9736C15.3661 19.9736 14.3164 20.155 13.3348 20.4846C16.9917 21.7472 19.6193 25.2172 19.6193 29.303V30.3699C19.7893 30.3825 19.9592 30.3903 20.129 30.3903H25.7883C26.0534 30.3903 26.2685 30.1753 26.2685 29.91V29.7832C26.2683 24.3657 21.8764 19.9736 16.4588 19.9736Z" fill="#CD915A"/>
<path d="M26.5451 51.4122C26.5451 51.1377 26.4585 50.8696 26.295 50.6491C25.2968 49.3029 23.6968 48.4301 21.8922 48.4301C20.1984 48.4301 18.6848 49.1989 17.6802 50.4064C17.0416 51.1741 15.8757 51.1741 15.2371 50.4064C14.2326 49.1989 12.719 48.4301 11.0251 48.4301C9.22048 48.4301 7.6205 49.3029 6.62235 50.6491C6.45882 50.8696 6.37219 51.1377 6.37219 51.4122V61.3441H26.5452V51.4122H26.5451Z" fill="#FFFCFD"/>
<path d="M26.2951 50.6491C25.2969 49.3029 23.6969 48.4301 21.8923 48.4301C20.6352 48.4301 19.4777 48.8543 18.5535 49.5664C18.9561 49.8766 19.3151 50.2407 19.6181 50.6491C19.7816 50.8696 19.8682 51.1377 19.8682 51.4122V61.3441H26.5452V51.4122C26.5452 51.1378 26.4586 50.8696 26.2951 50.6491Z" fill="#F2F2F2"/>
<path d="M37.4563 61.3379V57.5482V51.2613C37.4563 50.7356 37.03 50.3093 36.5043 50.3093C35.9785 50.3093 35.5522 50.7356 35.5522 51.2613V57.5482V61.3379H37.4563Z" fill="#063B67"/>
<path d="M58.3807 61.3379V51.2613C58.3807 50.7356 57.9545 50.3093 57.4287 50.3093C56.9029 50.3093 56.4767 50.7356 56.4767 51.2613V61.3379H58.3807Z" fill="#063B67"/>
<path d="M56.909 33.1774H55.0529V28.8987H56.909C57.6693 28.8987 58.2857 29.515 58.2857 30.2753V31.8009C58.2856 32.561 57.6692 33.1774 56.909 33.1774Z" fill="#FAD098"/>
<path d="M37.162 33.1774H39.0182V28.8987H37.162C36.4017 28.8987 35.7854 29.515 35.7854 30.2753V31.8009C35.7854 32.561 36.4017 33.1774 37.162 33.1774Z" fill="#FAD098"/>
<path d="M47.0355 39.9385C42.2782 39.9385 38.4215 36.0819 38.4215 31.3245V28.9037C38.4215 24.1463 42.2782 20.2897 47.0355 20.2897C51.7929 20.2897 55.6495 24.1463 55.6495 28.9037V31.3245C55.6495 36.0819 51.793 39.9385 47.0355 39.9385Z" fill="#FFE1B4"/>
<path d="M50.879 21.1948V33.1085C50.879 35.9297 49.4767 38.4218 47.3328 39.931C51.9523 39.7742 55.6496 35.9824 55.6496 31.3245V28.9037C55.6496 25.5279 53.7067 22.6074 50.879 21.1948Z" fill="#FAD098"/>
<path d="M35.643 1.65564C33.9585 1.65564 32.4589 2.44695 31.4955 3.67816C30.532 2.44695 29.0324 1.65564 27.3479 1.65564C24.4408 1.65564 22.0842 4.01223 22.0842 6.91934C22.0842 13.5327 31.4955 17.2154 31.4955 17.2154C31.4955 17.2154 40.9067 13.5327 40.9067 6.91934C40.9067 4.01223 38.55 1.65564 35.643 1.65564Z" fill="#FFAA52"/>
<path d="M35.6429 1.65564C34.4291 1.65564 33.3122 2.06772 32.4219 2.75802C32.8227 2.97421 33.1963 3.24393 33.5326 3.56114C33.5551 3.58132 33.5765 3.60298 33.5986 3.62377C33.6176 3.64223 33.6365 3.66057 33.6552 3.67939C33.7643 3.78669 33.8687 3.8994 33.9652 4.02035C34.2486 4.36107 34.4937 4.74301 34.6899 5.16358C36.767 9.6153 33.455 14.7964 31.6138 17.1674C32.696 16.7172 40.9069 13.0972 40.9069 6.91958C40.9066 4.01223 38.5499 1.65564 35.6429 1.65564Z" fill="url(#paint0_linear)"/>
<path d="M41.9374 42.082L39.3614 46.6306C39.2949 46.7481 39.3051 46.8939 39.3872 47.0011L47.0356 58.8475L41.9374 42.082Z" fill="#2170B4"/>
<path d="M56.2743 28.8987H56.909C57.1108 28.8987 57.3019 28.9432 57.4747 29.0212V26.832C57.4747 21.8761 53.4572 17.8586 48.5013 17.8586H45.5698C40.6139 17.8586 36.5964 21.8761 36.5964 26.832V29.0212C36.7692 28.9432 36.9603 28.8987 37.1621 28.8987H37.7968H38.4216C38.4222 27.8507 38.6101 26.8466 38.9534 25.9178C42.7623 24.8386 46.6336 27.784 50.8437 27.784C52.9464 27.784 54.3818 27.3134 55.3525 26.738L55.3749 26.7377C55.5538 27.4282 55.6491 28.1524 55.6496 28.8987H56.2743Z" fill="#D59F63"/>
<path d="M56.2744 28.8987C56.2745 28.8987 56.2745 28.8987 56.2744 28.8987H56.9091C57.1108 28.8987 57.3019 28.9432 57.4747 29.0212V26.832C57.4747 21.8761 53.4572 17.8586 48.5014 17.8586H45.5698C44.9276 17.8586 44.3017 17.9274 43.6978 18.0556C47.7547 18.9168 50.799 22.5183 50.799 26.832V27.783C50.8139 27.7831 50.8287 27.784 50.8436 27.784C52.9463 27.784 54.3817 27.3134 55.3524 26.738L55.3748 26.7377C55.5537 27.4282 55.6491 28.1524 55.6495 28.8987H56.2744Z" fill="#CD915A"/>
<path d="M52.1338 42.082L49.3185 42.8217C47.822 43.2148 46.2493 43.2148 44.7528 42.8217L41.9375 42.082L47.0356 58.8477L52.1338 42.082Z" fill="#FFFCFD"/>
<path d="M48.0134 47.6677H46.0512L45.417 52.2502L47.0356 56.9805L48.6539 52.2511L48.0134 47.6677Z" fill="#F33A3A"/>
<path d="M47.0355 45.5402L44.9312 46.5413L45.9603 48.3242H48.1107L49.14 46.5413L47.0355 45.5402Z" fill="#E25959"/>
<path d="M52.1336 42.082L54.7096 46.6306C54.7762 46.7481 54.7659 46.8939 54.6839 47.0011L47.0354 58.8475L52.1336 42.082Z" fill="#2170B4"/>
<path d="M48.0135 47.6677H46.0513L45.2959 53.1261L47.0357 58.8476L48.776 53.1244L48.0135 47.6677Z" fill="url(#paint1_linear)"/>
<path d="M47.0355 44.6199L44.9312 46.5412L45.9603 48.3242H48.1107L49.14 46.5412L47.0355 44.6199Z" fill="url(#paint2_linear)"/>
<path d="M12.864 33.5516C12.549 33.5516 12.2928 33.2954 12.2928 32.9804V31.9156C12.2928 31.6005 12.549 31.3444 12.864 31.3444C13.179 31.3444 13.4352 31.6005 13.4352 31.9156V32.9804C13.4352 33.2954 13.179 33.5516 12.864 33.5516Z" fill="#64463C"/>
<path d="M20.0532 33.5516C19.7382 33.5516 19.4821 33.2954 19.4821 32.9804V31.9156C19.4821 31.6005 19.7382 31.3444 20.0532 31.3444C20.3682 31.3444 20.6244 31.6005 20.6244 31.9156V32.9804C20.6244 33.2954 20.3682 33.5516 20.0532 33.5516Z" fill="#64463C"/>
<path d="M16.4585 38.5089C15.4352 38.5089 14.5212 38.0879 14.0136 37.3824C13.8296 37.1269 13.888 36.7692 14.1437 36.5852C14.2415 36.5148 14.3565 36.4777 14.4765 36.4777C14.6603 36.4777 14.8338 36.5665 14.941 36.7153C15.2257 37.1109 15.8214 37.3666 16.4585 37.3666C17.0957 37.3666 17.6913 37.111 17.9761 36.7154C18.0831 36.5665 18.2567 36.4777 18.4405 36.4777C18.5604 36.4777 18.6755 36.5149 18.7734 36.5853C19.029 36.7693 19.0874 37.127 18.9035 37.3825C18.3959 38.0879 17.4819 38.5089 16.4585 38.5089Z" fill="#D7AF7D"/>
<path d="M43.3229 32.1451C43.0079 32.1451 42.7517 31.8889 42.7517 31.5739V30.4741C42.7517 30.1591 43.0079 29.903 43.3229 29.903C43.6379 29.903 43.8941 30.1591 43.8941 30.4741V31.5739C43.8942 31.8888 43.6379 32.1451 43.3229 32.1451Z" fill="#64463C"/>
<path d="M50.7483 32.1451C50.4333 32.1451 50.1771 31.8889 50.1771 31.5739V30.4741C50.1771 30.1591 50.4333 29.903 50.7483 29.903C51.0633 29.903 51.3195 30.1591 51.3195 30.4741V31.5739C51.3196 31.8888 51.0633 32.1451 50.7483 32.1451Z" fill="#64463C"/>
<path d="M47.0355 37.2653C45.9845 37.2653 45.0462 36.8332 44.5256 36.1096C44.3416 35.8539 44.3999 35.4962 44.6556 35.3123C44.7534 35.2419 44.8685 35.2047 44.9885 35.2047C45.1723 35.2047 45.3458 35.2936 45.453 35.4424C45.7504 35.8558 46.3716 36.1229 47.0356 36.1229C47.6996 36.1229 48.3208 35.8558 48.6182 35.4424C48.7253 35.2937 48.8989 35.2048 49.0826 35.2048C49.2026 35.2048 49.3176 35.2421 49.4156 35.3125C49.6711 35.4965 49.7296 35.8542 49.5456 36.1097C49.0248 36.8332 48.0864 37.2653 47.0355 37.2653Z" fill="#D7AF7D"/>
</g>
<defs>
<linearGradient id="paint0_linear" x1="39.6924" y1="1.65564" x2="31.175" y2="2.07204" gradientUnits="userSpaceOnUse">
<stop stop-color="#FF9424"/>
<stop offset="1" stop-color="#FF8302"/>
</linearGradient>
<linearGradient id="paint1_linear" x1="48.3212" y1="47.6677" x2="45.126" y2="47.7489" gradientUnits="userSpaceOnUse">
<stop stop-color="#FF9424"/>
<stop offset="1" stop-color="#FF8302"/>
</linearGradient>
<linearGradient id="paint2_linear" x1="48.59" y1="44.6199" x2="44.7562" y2="44.9753" gradientUnits="userSpaceOnUse">
<stop stop-color="#FF9424"/>
<stop offset="1" stop-color="#FF8302"/>
</linearGradient>
<clipPath id="clip0">
<rect width="63" height="63" fill="white"/>
</clipPath>
</defs>
</svg>
