<svg width="60" height="60" viewBox="0 0 60 60" fill="none" xmlns="http://www.w3.org/2000/svg">
<path d="M51.7236 9.31866L48.6199 11.3877L43.4471 10.3532L40.3434 9.31866L36.2051 10.3532L33.1014 9.31866L35.1705 5.18041H39.3087L43.3642 3.15271C46.4919 4.69935 49.3214 6.78705 51.7236 9.31866Z" fill="url(#paint0_linear)"/>
<path d="M27.9288 5.18042L26.8942 8.28413L23.7905 9.31867L20.6868 14.4915L15.514 17.5952L8.27216 18.6297V21.7334L10.3412 23.8025V27.9407L7.23775 25.8716L4.13403 23.8025L2.33391 18.3918C5.43235 11.008 11.3553 5.17104 18.7833 2.18018L21.7214 4.14588L27.9288 5.18042Z" fill="#FFAB55"/>
<path d="M29.9979 34.1479L28.9634 39.3207L24.8252 43.459V46.5627L20.6869 49.6663V54.8391L17.5833 53.8046L15.5141 48.6318V38.2862L10.3413 37.2517L8.27228 33.1134V30.0097L10.3413 27.9406L13.4451 24.8369L15.5141 28.9752H22.756L25.8597 34.1479H29.9979Z" fill="url(#paint1_linear)"/>
<path d="M56.1722 15.3501C61.8198 25.4256 61.1763 37.8496 54.5169 47.2868L51.7236 44.4935V40.3552L49.6546 36.217L47.5855 32.0787V27.9405L44.4818 25.8714L40.3435 26.9059L33.1017 23.8022L32.0671 16.5604L35.1709 13.4567H41.3782L43.4472 16.5604L49.6546 17.5949L55.8619 15.5258L56.1722 15.3501Z" fill="#EA8114"/>
<path d="M36.2053 10.3538L40.3435 9.31927L43.4472 10.3538L48.62 11.3883L51.7237 9.31927C53.4566 11.1329 54.9516 13.1595 56.1723 15.3507L55.862 15.5266L49.6547 17.5957L43.4473 16.5611L41.3783 13.4574H35.171L32.0672 16.5611L33.1018 23.803L40.3436 26.9067L44.4819 25.8722L47.5856 27.9412V32.0795L49.6547 36.2177L51.7237 40.356V44.4942L54.517 47.2875C44.9629 60.8257 26.2425 64.0546 12.7054 54.5004C1.20832 46.3853 -3.10478 31.3707 2.33391 18.3923L4.13403 23.803L7.23775 25.872L10.3415 27.9411L8.27228 30.0103V33.114L10.3413 37.2523L15.5141 38.2868V48.6324L17.5832 53.8051L20.6869 54.8397V49.6669L24.8252 46.5632V43.4595L28.9634 39.3212L29.9979 34.1484H25.8597L22.756 28.9756H15.5141L13.4451 24.8374L10.3413 27.9411V23.8029L8.27228 21.7339V18.6302L15.5141 17.5957L20.6869 14.4919L23.7906 9.31916L26.8943 8.28462L27.9289 5.18091L21.7216 4.14637L18.7834 2.18067C26.7392 -1.02336 35.686 -0.669573 43.3645 3.15321L39.309 5.18091H35.1707L33.1017 9.31916L36.2053 10.3538Z" fill="#014E8F"/>
<defs>
<linearGradient id="paint0_linear" x1="49.29" y1="3.15271" x2="32.7448" y2="6.20581" gradientUnits="userSpaceOnUse">
<stop stop-color="#FF9424"/>
<stop offset="1" stop-color="#FF8302"/>
</linearGradient>
<linearGradient id="paint1_linear" x1="27.1588" y1="24.8369" x2="7.26837" y2="26.0123" gradientUnits="userSpaceOnUse">
<stop stop-color="#FF9424"/>
<stop offset="1" stop-color="#FF8302"/>
</linearGradient>
</defs>
</svg>
